<svg width="302" height="525" viewBox="0 0 302 525" fill="none" xmlns="http://www.w3.org/2000/svg">
<path opacity="0.4" d="M146.773 465.166C206.373 465.166 254.689 461.427 254.689 456.815C254.689 452.202 206.373 448.463 146.773 448.463C87.1732 448.463 38.8578 452.202 38.8578 456.815C38.8578 461.427 87.1732 465.166 146.773 465.166Z" fill="#67ABE2"/>
<path d="M192.312 225.566C190.949 228.647 190.88 231.591 192.176 232.138C193.471 232.686 195.584 230.632 196.879 227.552C198.243 224.471 198.311 221.527 197.016 220.98C195.789 220.432 193.675 222.486 192.312 225.566Z" fill="#FAC487"/>
<path d="M121.073 224.676C122.436 227.757 122.504 230.701 121.209 231.248C119.914 231.796 117.8 229.742 116.505 226.662C115.142 223.581 115.074 220.637 116.369 220.09C117.596 219.542 119.709 221.596 121.073 224.676Z" fill="#FAC487"/>
<path d="M206.083 337.973L201.992 343.518L200.288 345.366L197.152 348.789L186.245 355.635L182.563 355.498L179.7 351.938L173.906 342.354L183.654 331.812L182.904 325.856L192.516 327.294L193.744 327.499L194.425 327.636L196.675 326.883L197.629 328.115H197.698L197.629 328.047L206.083 337.973Z" fill="#FAC487"/>
<path d="M118.005 340.437L181.814 341.601L170.77 369.874L126.458 370.764L118.005 340.437Z" fill="#1A1A1A"/>
<path d="M193.812 207.562L187.199 262.876L186.858 265.682L123.527 261.917L123.459 258.289L122.436 204.618L193.812 207.562Z" fill="#FAC487"/>
<path d="M123.595 210.506L124.481 216.256L115.005 215.092L113.165 214.887L111.051 215.777L110.097 214.682H110.029H110.097L101.644 205.166L105.393 199.621L105.939 197.978L107.166 194.624L118.959 187.23H123.868L126.799 190.722L132.73 199.895L123.595 210.506Z" fill="#FAC487"/>
<path d="M157.817 179.7C157.885 180.111 157.953 180.453 158.158 180.864C157.613 180.179 157.544 179.837 157.817 179.7Z" fill="#534741"/>
<path opacity="0.4" d="M206.083 337.973L202.06 343.518L200.356 345.366C197.425 339 192.585 327.294 192.585 327.294L193.744 327.499L194.425 327.636L196.675 326.951L197.629 328.184H197.698L197.629 328.115L206.083 337.973Z" fill="#FAC487"/>
<path d="M190.88 265.956C190.949 267.599 189.176 273.349 189.108 276.43C198.993 287.657 205.742 301.417 205.742 301.417C205.742 301.417 200.493 317.778 194.902 326.814C194.902 326.814 200.765 341.19 203.492 346.53C215.013 322.844 217.74 299.295 217.74 299.295C217.74 299.295 196.675 270.132 190.88 265.956Z" fill="#F2F2F2"/>
<path opacity="0.4" d="M187.199 262.875L186.858 265.682L123.527 261.917L123.459 258.289L146.91 253.702L162.112 254.318L187.199 262.875Z" fill="#FAC487"/>
<path d="M162.112 256.098L191.085 265.956C190.812 272.802 187.472 317.915 187.472 317.915C187.472 317.915 181.064 352.554 180.859 352.828L117.869 351.938C117.323 347.352 116.437 315.04 116.437 315.04C116.437 315.04 117.323 263.56 118.346 261.164L146.842 255.551L162.112 256.098Z" fill="#F2F2F2"/>
<path opacity="0.4" d="M115.005 215.092L113.165 214.887L110.983 215.777L110.029 214.75H109.961L101.507 205.235L105.257 199.69L105.87 198.047C109.211 203.523 113.778 212.628 115.005 215.092Z" fill="#FAC487"/>
<path d="M118.619 281.359C118.414 279.511 119.164 264.655 118.891 261.301C104.166 247.473 94.8948 238.505 94.8948 238.505C94.8948 238.505 106.688 224.608 113.574 218.31C113.574 218.31 106.552 204.139 102.939 198.526C88.4185 214.545 79.9652 236.246 79.9652 236.246C79.9652 236.246 108.597 277.32 118.619 281.359Z" fill="#F2F2F2"/>
<path d="M200.152 325.377C200.152 326.267 199.402 327.02 198.516 327.02C197.629 327.02 196.879 326.267 196.879 325.377C196.879 324.487 197.629 323.734 198.516 323.734C199.402 323.802 200.152 324.487 200.152 325.377Z" fill="#4D4D4D"/>
<path d="M110.097 219.953C110.097 220.843 109.347 221.596 108.461 221.596C107.575 221.596 106.825 220.843 106.825 219.953C106.825 219.063 107.575 218.31 108.461 218.31C109.415 218.31 110.097 219.063 110.097 219.953Z" fill="#4D4D4D"/>
<path d="M119.573 227.346C119.573 227.346 121.414 244.529 123.322 247.746C125.367 251.169 135.389 257.947 135.389 257.947L174.996 259.042C174.996 259.042 185.631 254.866 187.949 251.922C190.608 248.499 193.812 229.742 193.812 229.742L195.039 199.073L125.708 190.174L119.573 227.346Z" fill="#534741"/>
<path d="M146.705 359.126L142.274 439.563L133.207 438.536L124.89 358.579L146.705 359.126Z" fill="#1A1A1A"/>
<path d="M150.386 360.701L160.34 439.632L169.338 438.673L171.724 359.811L150.386 360.701Z" fill="#1A1A1A"/>
<path d="M194.63 196.609C193.471 194.966 191.835 194.008 190.062 193.597C189.04 193.391 188.017 193.323 186.926 193.391C186.858 191.748 186.517 190.105 185.904 188.668C185.836 188.531 185.836 188.463 185.767 188.326C185.495 187.778 185.222 187.299 184.881 186.82C182.291 183.054 177.928 181.754 173.428 181.411C171.179 178.262 172.065 173.539 178.95 166.009C173.292 166.625 164.157 169.842 159.93 174.155C160.203 171.554 161.43 168.131 164.021 163.818C157.749 165.872 147.66 172.307 146.023 178.194C145.001 175.798 145.751 171.827 149.637 165.392C141.729 167.994 127.617 177.578 132.321 184.287C127.413 180.316 129.73 179.7 128.844 172.512C123.05 178.947 121.209 188.12 122.845 196.13C119.641 198.663 118.278 203.044 117.8 206.878C117.323 210.574 117.46 214.408 118.005 218.036C118.414 220.5 119.028 225.977 121.277 227.346C122.845 225.156 189.653 229.058 190.608 230.29C193.744 228.578 194.425 221.801 195.38 218.652C197.425 212.08 198.788 202.702 194.63 196.609Z" fill="#534741"/>
<path d="M143.842 454.966C116.369 455.172 116.71 454.966 105.257 454.966C105.257 454.966 104.848 454.145 104.643 452.844C104.439 451.475 104.439 449.627 105.189 447.573C107.507 441.275 118.687 443.534 118.687 443.534L132.935 438.605L142.07 439.563L143.637 446.957C143.637 446.957 143.774 450.38 143.774 452.913C143.842 453.734 143.842 454.556 143.842 454.966Z" fill="#42210B"/>
<path d="M131.844 440.796C131.844 441.206 131.503 441.48 131.162 441.48C130.753 441.48 130.48 441.138 130.48 440.796C130.48 440.385 130.821 440.111 131.162 440.111C131.503 440.111 131.844 440.385 131.844 440.796Z" fill="#1A1A1A"/>
<path d="M128.299 442.302C128.299 442.712 127.958 442.986 127.617 442.986C127.208 442.986 126.935 442.644 126.935 442.302C126.935 441.891 127.276 441.617 127.617 441.617C127.958 441.549 128.299 441.891 128.299 442.302Z" fill="#1A1A1A"/>
<path d="M124.754 443.739C124.754 444.15 124.413 444.424 124.072 444.424C123.663 444.424 123.391 444.082 123.391 443.739C123.391 443.329 123.731 443.055 124.072 443.055C124.481 443.055 124.754 443.397 124.754 443.739Z" fill="#1A1A1A"/>
<path d="M121.277 445.245C121.277 445.656 120.936 445.93 120.595 445.93C120.255 445.93 119.914 445.588 119.914 445.245C119.914 444.835 120.255 444.561 120.595 444.561C120.936 444.561 121.277 444.835 121.277 445.245Z" fill="#1A1A1A"/>
<path d="M143.842 455.103C116.369 455.309 116.71 455.172 105.257 455.172C105.257 455.172 104.848 453.939 104.643 453.049H143.842C143.842 453.939 143.842 454.624 143.842 455.103Z" fill="#1A1A1A"/>
<path d="M159.249 454.966C186.722 455.172 186.381 454.966 197.834 454.966C197.834 454.966 198.243 454.145 198.447 452.844C198.652 451.475 198.652 449.627 197.902 447.573C195.584 441.275 184.404 443.534 184.404 443.534L170.156 438.605L161.021 439.563L159.453 446.957C159.453 446.957 159.317 450.38 159.317 452.913C159.249 453.734 159.249 454.556 159.249 454.966Z" fill="#42210B"/>
<path d="M171.315 440.796C171.315 441.206 171.656 441.48 171.997 441.48C172.406 441.48 172.679 441.138 172.679 440.796C172.679 440.385 172.338 440.111 171.997 440.111C171.588 440.111 171.315 440.385 171.315 440.796Z" fill="#1A1A1A"/>
<path d="M174.792 442.302C174.792 442.712 175.133 442.986 175.474 442.986C175.883 442.986 176.155 442.644 176.155 442.302C176.155 441.891 175.814 441.617 175.474 441.617C175.133 441.549 174.792 441.891 174.792 442.302Z" fill="#1A1A1A"/>
<path d="M178.337 443.739C178.337 444.15 178.678 444.424 179.019 444.424C179.428 444.424 179.7 444.082 179.7 443.739C179.7 443.329 179.359 443.055 179.019 443.055C178.678 443.055 178.337 443.397 178.337 443.739Z" fill="#1A1A1A"/>
<path d="M181.882 445.245C181.882 445.656 182.223 445.93 182.563 445.93C182.972 445.93 183.245 445.588 183.245 445.245C183.245 444.835 182.904 444.561 182.563 444.561C182.223 444.561 181.882 444.835 181.882 445.245Z" fill="#1A1A1A"/>
<path d="M159.249 455.103C186.722 455.309 186.381 455.172 197.834 455.172C197.834 455.172 198.243 453.939 198.447 453.049H159.249C159.249 453.939 159.249 454.624 159.249 455.103Z" fill="#1A1A1A"/>
<path d="M110.642 78.0412C110.642 85.5715 108.256 91.938 103.416 97.0038C98.5079 102.207 92.3043 104.808 84.8054 104.808C77.3747 104.808 71.1711 102.207 66.2627 96.9354C61.4226 91.8011 59.0366 85.503 59.0366 78.0412C59.0366 70.5109 61.4226 64.2129 66.2627 59.0786C71.1711 53.8074 77.3747 51.206 84.8054 51.206C92.2361 51.206 98.3716 53.8074 103.348 59.0786C108.256 64.2129 110.642 70.5794 110.642 78.0412ZM96.9399 77.9727C96.9399 74.3445 95.8492 71.2639 93.6677 68.731C91.3499 66.0612 88.4185 64.7605 84.8736 64.7605C81.465 64.7605 78.6018 66.1297 76.2158 68.8679C73.898 71.5378 72.8072 74.6183 72.8072 78.0412C72.8072 81.7379 73.898 84.8185 76.0113 87.2829C78.2609 89.8843 81.2605 91.185 84.8736 91.185C88.2822 91.185 91.1454 89.8158 93.5314 87.0775C95.8492 84.4762 96.9399 81.3956 96.9399 77.9727Z" fill="#DD2525"/>
<path d="M150.591 85.5714C150.591 91.1165 148.887 95.5662 145.546 98.989C142.206 102.412 137.775 104.123 132.321 104.123C127.004 104.123 122.641 102.412 119.232 99.0575C115.823 95.6346 114.119 91.3218 114.119 85.9822C114.119 80.3687 115.755 75.782 119.028 72.2907C122.3 68.7994 126.731 67.0195 132.321 67.0195C137.775 67.0195 142.206 68.731 145.546 72.1538C148.887 75.6451 150.591 80.0949 150.591 85.5714ZM138.729 85.5714C138.729 83.6546 138.116 81.9432 136.957 80.5056C135.798 79.068 134.23 78.315 132.389 78.315C130.48 78.315 128.912 79.068 127.685 80.574C126.526 82.0116 125.981 83.6546 125.981 85.5714C125.981 87.5567 126.526 89.1996 127.685 90.6373C128.912 92.1433 130.48 92.8963 132.389 92.8963C134.298 92.8963 135.798 92.1433 137.025 90.6373C138.184 89.2681 138.729 87.5567 138.729 85.5714Z" fill="#DD2525"/>
<path d="M194.834 85.9822C194.834 91.1849 193.335 95.4293 190.267 98.8521C187.131 102.412 183.041 104.123 177.928 104.123C176.087 104.123 174.11 103.644 171.929 102.754C169.815 101.864 168.861 101.385 169.065 101.385C168.725 101.385 168.588 101.727 168.588 102.48C168.588 103.713 168.656 105.561 168.793 108.025C168.929 110.49 168.997 112.338 168.997 113.57C168.997 114.323 168.588 114.734 167.77 114.734L160.408 114.803C158.772 114.803 157.681 114.734 157.204 114.597C156.454 114.46 156.113 113.981 156.113 113.228L156.181 85.2976C156.181 79.6841 155.772 74.8921 154.886 71.0585C154.818 70.7847 154.818 70.5793 154.818 70.4424C154.818 70.1001 154.954 69.8263 155.227 69.6894C156.181 69.3471 157.954 68.9364 160.612 68.5256C163.203 68.1149 165.043 67.9095 166.202 67.9095C167.157 67.9095 167.702 68.5256 167.838 69.7579C167.975 70.9901 168.111 71.6062 168.316 71.6062C168.043 71.6062 169.134 70.9216 171.383 69.6209C173.701 68.3202 175.746 67.6357 177.655 67.6357C182.904 67.6357 187.063 69.3471 190.199 72.8384C193.335 76.2613 194.834 80.6425 194.834 85.9822ZM181.405 85.9137C181.405 83.9969 180.791 82.2855 179.632 80.8479C178.337 79.3419 176.769 78.5888 174.928 78.5888C173.019 78.5888 171.451 79.3419 170.293 80.8479C169.27 82.2171 168.793 83.9285 168.793 85.9137C168.793 87.9675 169.338 89.6789 170.361 91.048C171.52 92.5541 173.088 93.2387 175.065 93.2387C179.291 93.2387 181.405 90.8427 181.405 85.9137Z" fill="#DD2525"/>
<path d="M220.74 74.0707C220.74 74.3445 220.535 74.6183 220.194 75.0291C219.512 74.8922 218.831 74.7552 218.149 74.7552C216.717 74.7552 215.558 75.0975 214.604 75.7136C213.445 76.4667 212.9 77.4935 212.9 78.7942C212.9 79.6157 213.513 80.711 214.74 82.0117C216.581 83.997 217.74 85.2976 218.149 85.9822C219.376 87.8306 219.99 89.8158 219.99 91.8695C219.99 93.1018 219.717 94.4024 219.24 95.7716C218.694 97.2776 218.013 98.4414 217.126 99.126C215.354 100.701 213.241 102.001 210.855 103.028C208.264 104.123 205.878 104.671 203.697 104.671C203.219 104.671 202.129 103.37 200.493 100.701C198.788 98.0991 197.97 96.4562 197.97 95.9085C197.97 95.7031 198.107 95.5662 198.379 95.4978C200.084 95.1555 201.788 94.8817 203.492 94.5394C205.605 93.8548 206.696 92.7595 206.696 91.185C206.696 90.0896 206.083 88.8574 204.856 87.4883C202.674 85.0238 201.515 83.7231 201.447 83.5862C200.22 81.8748 199.606 80.0264 199.606 78.0412C199.606 74.413 201.447 71.3324 205.128 68.7995C208.4 66.5404 211.945 65.4451 215.627 65.4451C216.036 65.4451 216.99 66.7458 218.49 69.3471C219.921 72.1539 220.74 73.6599 220.74 74.0707Z" fill="#DD2525"/>
<path d="M240.373 61.2692C240.373 65.6504 239.964 69.8263 239.146 73.6599C238.191 77.6304 237.237 81.6009 236.283 85.503C236.078 86.3929 235.124 86.8721 233.419 86.8721C231.442 86.8721 230.352 86.4614 230.147 85.7084C227.898 77.9042 226.739 73.523 226.739 72.4277C226.739 71.4693 226.807 69.9632 226.875 67.978C226.943 65.9927 227.011 64.5551 227.011 63.5282C227.011 62.4329 226.943 60.79 226.875 58.5993C226.807 56.4087 226.739 54.7657 226.739 53.6704C226.739 52.7805 226.943 52.3013 227.42 52.3013C228.102 52.3013 229.125 52.3697 230.488 52.4382C231.851 52.5066 232.874 52.5751 233.556 52.5751C234.237 52.5751 235.26 52.5066 236.623 52.4382C237.987 52.3697 239.009 52.3013 239.691 52.3013C240.168 52.5066 240.373 55.4503 240.373 61.2692ZM240.373 97.2776C240.373 99.3313 239.759 100.974 238.464 102.343C237.237 103.713 235.601 104.329 233.556 104.329C231.511 104.329 229.875 103.644 228.647 102.343C227.42 101.043 226.807 99.3313 226.807 97.2776C226.807 95.2239 227.42 93.5809 228.716 92.2803C229.943 90.9796 231.579 90.295 233.624 90.295C235.601 90.295 237.237 90.9796 238.532 92.2803C239.759 93.5809 240.373 95.2239 240.373 97.2776Z" fill="#DD2525"/>
</svg>
