<svg width="81" height="103" viewBox="0 0 81 103" fill="none" xmlns="http://www.w3.org/2000/svg">
<path fill-rule="evenodd" clip-rule="evenodd" d="M70.8585 21.5776V35.058H62.7076V21.5776H8.9429V94.6226H44.6815V102.773H8.9429C4.3972 102.773 0.791992 99.1683 0.791992 94.6226V21.5776C0.791992 17.0319 4.3972 13.4266 8.9429 13.4266H16.7803C18.191 6.21618 26.1852 0.886719 35.7469 0.886719C45.3085 0.886719 53.3027 6.37293 54.7134 13.4266H62.5508C67.0965 13.4266 70.8585 17.0319 70.8585 21.5776ZM80.2634 56.6893L79.0094 57.1596C79.0094 57.1596 75.8744 58.4136 70.8585 63.5863C66.1561 68.4455 58.9456 77.6937 50.638 94.4658L49.384 96.9738L48.13 94.6226C48.13 94.6226 47.6598 93.8388 46.876 92.5848C44.368 88.3526 38.0981 78.7909 30.104 72.8344L29.1635 72.0507L29.7905 70.9535C29.7905 70.9206 30.0045 70.5425 30.3499 69.9322L30.3501 69.9318C31.6509 67.634 34.8142 62.0457 35.4334 59.1973L35.9036 57.3163L37.6279 58.2568C37.9414 58.4136 43.2708 61.5485 48.9137 73.4614C50.011 70.4832 51.892 65.624 54.3999 60.608C57.2214 54.9651 60.0429 50.2626 63.0211 46.5006C66.3128 42.4252 69.6045 39.2902 73.2097 37.4092L74.934 36.4687L75.2475 38.3497C75.2475 38.5064 77.4419 49.0086 79.9499 55.5921L80.2634 56.6893ZM35.7469 12.6429C33.7092 12.6429 32.1417 11.0754 32.1417 9.03769C32.1417 7.1567 33.7092 5.43246 35.7469 5.43246C37.7846 5.43246 39.3521 6.99995 39.3521 9.03769C39.3521 11.0754 37.7846 12.6429 35.7469 12.6429Z" fill="#0F84A9"/>
</svg>
