<svg width="32" height="32" viewBox="0 0 32 32" fill="none" xmlns="http://www.w3.org/2000/svg">
<path d="M12.9587 3.10368H17.8611V3.92859H19.6316V2.9882C19.6318 2.07556 18.8897 1.33301 17.9775 1.33301H12.8423C11.9301 1.33301 11.188 2.07556 11.188 2.9882V3.92859H12.9587V3.10368Z" fill="#546466"/>
<path d="M23.7204 10.9434H7.09953C6.64411 10.9434 6.28559 11.3319 6.32229 11.7859L7.71184 28.9681C7.78927 29.9273 8.58934 30.666 9.55054 30.666H21.2691C22.2304 30.666 23.0304 29.9273 23.1079 28.9679L24.4974 11.7859C24.5343 11.3319 24.1758 10.9434 23.7204 10.9434ZM11.124 28.8334C11.1055 28.8345 11.0869 28.8351 11.0685 28.8351C10.6044 28.8351 10.2148 28.4737 10.1859 28.0042L9.31511 13.8986C9.28512 13.4105 9.6564 12.9904 10.1443 12.9604C10.6306 12.9309 11.0524 13.3013 11.0824 13.7896L11.953 27.8952C11.9832 28.3833 11.6119 28.8031 11.124 28.8334ZM16.3051 27.9498C16.3051 28.4386 15.9088 28.8349 15.4198 28.8349C14.9308 28.8349 14.5345 28.4386 14.5345 27.9498V13.844C14.5345 13.355 14.9308 12.9586 15.4198 12.9586C15.9086 12.9586 16.3051 13.355 16.3051 13.844V27.9498ZM21.5048 13.8961L20.6734 28.0017C20.6459 28.4721 20.2556 28.8349 19.7905 28.8349C19.7731 28.8349 19.7554 28.8345 19.7377 28.8336C19.2496 28.8047 18.8772 28.3858 18.9061 27.8977L19.7373 13.7918C19.7659 13.3037 20.1835 12.9313 20.673 12.9602C21.1611 12.9889 21.5335 13.408 21.5048 13.8961Z" fill="#546466"/>
<path d="M26.7819 8.21155L26.2005 6.46863C26.0472 6.00918 25.6171 5.69922 25.1325 5.69922H5.68716C5.20287 5.69922 4.77251 6.00918 4.61944 6.46863L4.03802 8.21155C3.92589 8.54769 4.07181 8.89054 4.34417 9.06152C4.45517 9.13112 4.58654 9.17297 4.73089 9.17297H26.089C26.2334 9.17297 26.365 9.13112 26.4758 9.0613C26.7481 8.89032 26.894 8.54747 26.7819 8.21155Z" fill="#546466"/>
</svg>
