<svg width="33" height="28" viewBox="0 3 33 25" fill="none" xmlns="http://www.w3.org/2000/svg">
<g style="mix-blend-mode:multiply" clip-path="url(#clip0)">
<path d="M31.9573 23.6314H30.9057L31.4101 19.9075V19.9043L31.4871 19.2925C31.7528 17.1784 30.2544 15.2493 28.1404 14.9836C27.9807 14.9635 27.8199 14.9535 27.659 14.9535H26.4148L25.975 13.1946C25.9145 12.9533 25.6976 12.784 25.4489 12.784H23.2284L23.8169 8.51931C23.8579 8.22256 23.6506 7.9488 23.3539 7.90772C23.3292 7.90433 23.3043 7.90256 23.2794 7.90263H13.3491C13.6476 5.22331 11.7175 2.80934 9.03816 2.5109C6.35885 2.21246 3.94489 4.14256 3.64645 6.82189C3.38734 9.1484 4.81628 11.3314 7.0522 12.0247L5.45058 23.6314H4.29642C3.99689 23.6314 3.75405 23.8743 3.75405 24.1738V26.8857C3.75405 27.1852 3.99689 27.4281 4.29642 27.4281H8.63538C8.63538 28.6262 9.6067 29.5975 10.8049 29.5975C12.003 29.5975 12.9743 28.6262 12.9743 27.4281H23.2794C23.2794 28.6262 24.2507 29.5975 25.4489 29.5975C26.647 29.5975 27.6184 28.6262 27.6184 27.4281H31.9573C32.2568 27.4281 32.4997 27.1852 32.4997 26.8857V24.1738C32.4997 23.8743 32.2568 23.6314 31.9573 23.6314ZM26.4702 16.0382H27.659C28.4544 16.0383 29.2115 16.3798 29.7379 16.976C30.2643 17.5725 30.5094 18.3663 30.411 19.1558L30.3937 19.2925H26.0634L26.4702 16.0382ZM23.0787 13.8687H25.0253L25.297 14.9535H22.929L23.0787 13.8687ZM25.3746 16.0382L24.9087 19.7676C24.8715 20.0648 25.0824 20.3359 25.3796 20.373C25.4026 20.3759 25.4257 20.3773 25.4489 20.3772H30.2516L29.8112 23.6314H21.7325L22.1811 20.3772L22.7777 16.0382H25.3746ZM4.70319 7.36026C4.70557 5.26446 6.404 3.56602 8.49979 3.56365C10.5966 3.56365 12.2964 5.26345 12.2964 7.36026C12.2964 9.45707 10.5966 11.1569 8.49979 11.1569C6.40298 11.1569 4.70319 9.45707 4.70319 7.36026ZM8.1185 12.2221C8.24433 12.2319 8.37016 12.2416 8.49816 12.2416C10.5643 12.238 12.4048 10.935 13.0948 8.98738H22.6573L21.1343 20.0274L20.637 23.6314H6.54563L8.1185 12.2221ZM10.8049 28.5128C10.2057 28.5128 9.72012 28.0272 9.72012 27.4281H11.8896C11.8896 28.0272 11.404 28.5128 10.8049 28.5128ZM25.4489 28.5128C24.8498 28.5128 24.3641 28.0272 24.3641 27.4281H26.5336C26.5336 28.0272 26.048 28.5128 25.4489 28.5128ZM31.4149 26.3433H4.83879V24.7162H31.4149V26.3433Z" fill="#043B5D"/>
<path d="M5.92415 13.8687H2.66992V14.9534H5.92415V13.8687Z" fill="#043B5D"/>
<path d="M3.75422 20.3774H0.5V21.4622H3.75422V20.3774Z" fill="#043B5D"/>
<path d="M4.83918 17.123H1.58496V18.2078H4.83918V17.123Z" fill="#043B5D"/>
<ellipse cx="8.5003" cy="7.37256" rx="5.33331" ry="6" fill="white"/>
<path d="M13.3336 8.03939C13.3336 10.7088 11.1697 12.8727 8.5003 12.8727C5.83094 12.8727 3.66699 10.7088 3.66699 8.03939C3.66699 5.37001 5.83094 3.20605 8.5003 3.20605C11.1697 3.20605 13.3336 5.37001 13.3336 8.03939Z" stroke="#3ECCCD"/>
<path d="M10.5633 9.3273L9.17751 8.40363V5.98193H8.09277V8.6938C8.09277 8.87509 8.18328 9.04445 8.33413 9.14506L9.96124 10.2298L10.5633 9.3273Z" fill="#3ECCCD"/>
<path d="M28.7032 21.4619H24.3643V22.5467H28.7032V21.4619Z" fill="#043B5D"/>
<path d="M18.3985 21.4619H14.0596V22.5467H18.3985V21.4619Z" fill="#043B5D"/>
<path d="M12.9744 21.4619H11.8896V22.5467H12.9744V21.4619Z" fill="#043B5D"/>
<path d="M10.8054 21.4619H9.7207V22.5467H10.8054V21.4619Z" fill="#043B5D"/>
</g>
<defs>
<clipPath id="clip0">
<rect width="31.9999" height="32" fill="white" transform="translate(0.5 0.0390625)"/>
</clipPath>
</defs>
</svg>
