<svg width="17" height="13" viewBox="0 0 17 13" fill="none" xmlns="http://www.w3.org/2000/svg">
<path d="M8.56424 7L15.8795 0.175C15.9157 0.141892 15.9558 0.108784 16 0.0804054C15.8555 0.0283784 15.7029 0 15.5463 0H1.45369C1.29711 0 1.14454 0.0283784 1 0.0804054C1.04015 0.108784 1.07628 0.137162 1.11242 0.17027L8.56424 7Z" fill="#043B5D"/>
<path d="M9.0021 8.38104C8.87509 8.48093 8.72426 8.53287 8.57343 8.53287C8.4226 8.53287 8.27177 8.48493 8.14873 8.38503L0 2V11.4537C0 12.3048 0.686668 13 1.53607 13H15.4639C16.3094 13 17 12.3088 17 11.4537V2.004L9.0021 8.38104Z" fill="#043B5D"/>
</svg>
