<svg width="28" height="28" viewBox="0 0 28 28" fill="none" xmlns="http://www.w3.org/2000/svg">
<path fill-rule="evenodd" clip-rule="evenodd" d="M10.7869 18.2625C10.7869 18.0422 10.8745 17.8309 11.0302 17.6751C11.186 17.5193 11.3973 17.4318 11.6176 17.4318H16.6017C16.822 17.4318 17.0333 17.5193 17.1891 17.6751C17.3449 17.8309 17.4324 18.0422 17.4324 18.2625C17.4324 18.4828 17.3449 18.6941 17.1891 18.8499C17.0333 19.0057 16.822 19.0932 16.6017 19.0932H11.6176C11.3973 19.0932 11.186 19.0057 11.0302 18.8499C10.8745 18.6941 10.7869 18.4828 10.7869 18.2625ZM7.46421 13.2784C7.46421 13.0581 7.55173 12.8468 7.70751 12.691C7.86329 12.5352 8.07458 12.4477 8.29489 12.4477H19.9244C20.1447 12.4477 20.356 12.5352 20.5118 12.691C20.6676 12.8468 20.7551 13.0581 20.7551 13.2784C20.7551 13.4987 20.6676 13.71 20.5118 13.8658C20.356 14.0216 20.1447 14.1091 19.9244 14.1091H8.29489C8.07458 14.1091 7.86329 14.0216 7.70751 13.8658C7.55173 13.71 7.46421 13.4987 7.46421 13.2784ZM4.14148 8.2943C4.14148 8.07399 4.229 7.86271 4.38478 7.70692C4.54056 7.55114 4.75185 7.46362 4.97216 7.46362H23.2472C23.4675 7.46362 23.6788 7.55114 23.8345 7.70692C23.9903 7.86271 24.0778 8.07399 24.0778 8.2943C24.0778 8.51462 23.9903 8.7259 23.8345 8.88169C23.6788 9.03747 23.4675 9.12499 23.2472 9.12499H4.97216C4.75185 9.12499 4.54056 9.03747 4.38478 8.88169C4.229 8.7259 4.14148 8.51462 4.14148 8.2943Z" fill="#043B5D"/>
</svg>
