<svg width="21" height="13" viewBox="0 0 21 13" fill="none" xmlns="http://www.w3.org/2000/svg">
<path fill-rule="evenodd" clip-rule="evenodd" d="M7.56812 11.2625C7.56812 11.0422 7.65564 10.8309 7.81142 10.6751C7.96721 10.5193 8.17849 10.4318 8.39881 10.4318H13.3829C13.6032 10.4318 13.8145 10.5193 13.9703 10.6751C14.1261 10.8309 14.2136 11.0422 14.2136 11.2625C14.2136 11.4828 14.1261 11.6941 13.9703 11.8499C13.8145 12.0057 13.6032 12.0932 13.3829 12.0932H8.39881C8.17849 12.0932 7.96721 12.0057 7.81142 11.8499C7.65564 11.6941 7.56812 11.4828 7.56812 11.2625ZM4.2454 6.2784C4.2454 6.05809 4.33291 5.8468 4.4887 5.69102C4.64448 5.53523 4.85577 5.44771 5.07608 5.44771H16.7056C16.9259 5.44771 17.1372 5.53523 17.293 5.69102C17.4488 5.8468 17.5363 6.05809 17.5363 6.2784C17.5363 6.49871 17.4488 6.70999 17.293 6.86578C17.1372 7.02156 16.9259 7.10908 16.7056 7.10908H5.07608C4.85577 7.10908 4.64448 7.02156 4.4887 6.86578C4.33291 6.70999 4.2454 6.49871 4.2454 6.2784ZM0.922668 1.2943C0.922668 1.07399 1.01019 0.862707 1.16597 0.706924C1.32175 0.551141 1.53304 0.463623 1.75335 0.463623H20.0284C20.2487 0.463623 20.4599 0.551141 20.6157 0.706924C20.7715 0.862707 20.859 1.07399 20.859 1.2943C20.859 1.51462 20.7715 1.7259 20.6157 1.88169C20.4599 2.03747 20.2487 2.12499 20.0284 2.12499H1.75335C1.53304 2.12499 1.32175 2.03747 1.16597 1.88169C1.01019 1.7259 0.922668 1.51462 0.922668 1.2943Z" fill="white"/>
</svg>
