<svg width="24" height="24" viewBox="0 0 24 24" fill="none" xmlns="http://www.w3.org/2000/svg">
<path d="M11.8972 2.22223C11.8972 2.22223 7.08977 5.72593 3.0157 5.23705C3.0157 5.23705 1.35891 18.1654 11.9515 22.158C11.9515 22.158 22.6799 18.4914 20.9688 5.15556C20.9416 5.1284 18.0355 5.97038 11.8972 2.22223Z" fill="white"/>
<path d="M11.6798 22.9185C9.07243 22.0494 6.95391 20.5012 5.32428 18.2741C4.0749 16.5901 3.1786 14.4988 2.60823 12.0272V12V11.9728C2.60823 11.9728 2.60823 11.9457 2.58107 11.8914L2.55391 11.7827L2.52675 11.7284V11.7012C2.47243 11.3753 2.30946 10.5333 2.11934 9.14815V9.12099V9.09383C2.11934 9.06667 2.11934 9.06667 2.11934 9.03951L2.09218 8.98519V8.93086V8.87654C2.06502 8.74074 2.06502 8.60494 2.06502 8.46914V8.33333C1.98354 7.19259 1.98354 6.05185 2.03786 5.07407V5.01975L2.11934 4.17778L2.93415 4.25926C3.23292 4.28642 3.50453 4.31358 3.80329 4.31358C5.3786 4.31358 7.00823 3.90617 8.66502 3.11852C9.61564 2.65679 10.5663 2.08642 11.3539 1.46173L11.3811 1.43457L11.8971 1L12.4132 1.43457C12.7663 1.73333 16.0527 4.28642 20.0181 4.28642C20.2897 4.28642 20.5885 4.28642 20.8601 4.25926L21.6749 4.17778L21.7564 4.99259V5.04691C21.8379 6.05185 21.8107 7.19259 21.7292 8.33333C21.7292 8.4963 21.7021 8.65926 21.6749 8.79506C21.6749 8.84938 21.6749 8.93086 21.6477 9.01235V9.06667V9.09383C21.5391 10.0988 21.3761 10.9136 21.2946 11.4025L21.2403 11.6469V11.7012V11.7284C21.2132 11.8914 21.186 12 21.186 12C20.6156 14.4173 19.7193 16.5358 18.47 18.2469C16.8946 20.4741 14.749 22.0494 12.1416 22.9185L11.9514 23L11.6798 22.9185ZM4.23786 11.7012C5.02551 15.1235 7.00823 19.5235 11.9514 21.2617C15.944 19.8494 18.5243 16.6173 19.6922 11.6469C19.6922 11.6198 19.7193 11.5654 19.7465 11.484V11.4296C19.828 11.0765 19.9909 10.1531 20.1267 8.95802V8.9037C20.1267 8.84938 20.1267 8.7679 20.1539 8.68642C20.1811 8.55062 20.1811 8.41481 20.1811 8.25185C20.2625 7.13827 20.2625 6.35062 20.2354 5.91605H20.0724C16.4058 5.91605 13.2823 4.01481 11.9514 3.0642C10.6206 4.01481 7.49712 5.91605 3.83045 5.91605H3.66749C3.66749 6.35062 3.66749 7.13827 3.72181 8.22469V8.36049C3.72181 8.41481 3.72181 8.44198 3.72181 8.4963C3.72181 8.57778 3.74897 8.65926 3.74897 8.74074V8.82222C3.74897 8.84938 3.74897 8.84938 3.74897 8.87654L3.77613 8.93086V8.95802C3.88477 9.96296 4.02057 10.8049 4.15638 11.4296V11.4568H4.2107V11.7012H4.23786Z" fill="white"/>
<path d="M11.9243 22.7012L11.7613 22.6469C9.20822 21.8049 7.11686 20.2568 5.54155 18.1111C4.31933 16.4272 3.42303 14.363 2.87982 11.9728C2.87982 11.9457 2.85266 11.837 2.8255 11.7012L2.79834 11.6469C2.71686 11.2667 2.5539 10.4518 2.4181 9.09382C2.4181 9.0395 2.4181 8.98518 2.39093 8.93086V8.84938C2.36377 8.71357 2.36377 8.57777 2.36377 8.46913V8.33333C2.22797 6.40493 2.33661 5.07407 2.33661 5.01975L2.39093 4.47654L2.93414 4.53086C4.80822 4.72098 6.79094 4.31357 8.80081 3.36296C10.4033 2.60246 11.4625 1.73333 11.5712 1.65185L11.9243 1.35308L12.2774 1.65185C12.6848 2.00493 16.4872 4.96543 20.9144 4.53086L21.4576 4.47654L21.5119 5.01975C21.5119 5.07407 21.6477 6.40493 21.4848 8.33333C21.4848 8.49629 21.4576 8.65925 21.4304 8.79505V8.82221C21.4304 8.87654 21.4304 8.93086 21.4033 8.98518V9.06666C21.2675 10.2617 21.0774 11.158 21.023 11.6197V11.6741C20.9959 11.837 20.9687 11.9457 20.9687 11.9457C20.4255 14.3358 19.5292 16.4 18.307 18.1111C16.7045 20.2839 14.6403 21.8049 12.0601 22.6469L11.9243 22.7012ZM3.91192 11.5383C3.93908 11.6469 3.93908 11.7012 3.96624 11.7012V11.7284C4.78106 15.2321 6.79094 19.7679 11.9514 21.5605C16.0798 20.121 18.7687 16.8074 19.9366 11.7284C19.9366 11.7284 19.9638 11.6469 19.9909 11.5383V11.5111C20.0724 11.158 20.2354 10.2617 20.3712 8.98518V8.9037C20.3712 8.84938 20.3712 8.79505 20.3983 8.74073V8.71357C20.4255 8.55061 20.4255 8.38765 20.4255 8.25184C20.507 7.1111 20.507 6.18765 20.4798 5.64444C20.344 5.64444 20.2082 5.64444 20.0724 5.64444C16.2428 5.64444 13.0107 3.52592 11.9514 2.73827C10.865 3.52592 7.68723 5.64444 3.83044 5.64444C3.69464 5.64444 3.53168 5.64444 3.42303 5.64444C3.39587 6.18765 3.39587 7.1111 3.47735 8.25184V8.36049C3.47735 8.46913 3.50452 8.60493 3.50452 8.74073V8.82221C3.50452 8.87654 3.50452 8.93086 3.53168 8.98518C3.69464 10.3704 3.8576 11.1309 3.91192 11.4839V11.5383Z" fill="#BCBEC0"/>
<path d="M7.46313 9.41736C7.46313 8.86011 7.64204 8.29698 7.99986 7.728C8.35768 7.15314 8.87974 6.67801 9.56604 6.30259C10.2523 5.92718 11.053 5.73947 11.9681 5.73947C12.8187 5.73947 13.5695 5.89785 14.2206 6.21461C14.8717 6.5255 15.3732 6.95077 15.7252 7.49043C16.083 8.03009 16.2619 8.61667 16.2619 9.25019C16.2619 9.74878 16.1593 10.1858 15.954 10.5612C15.7545 10.9366 15.514 11.2622 15.2325 11.5379C14.9568 11.8077 14.4582 12.2652 13.7367 12.9105C13.5372 13.0923 13.3759 13.2536 13.2527 13.3944C13.1354 13.5293 13.0474 13.6554 12.9888 13.7728C12.9301 13.8842 12.8832 13.9986 12.848 14.1159C12.8187 14.2274 12.7717 14.4268 12.7072 14.7142C12.5958 15.3243 12.2467 15.6293 11.6602 15.6293C11.3551 15.6293 11.097 15.5296 10.8859 15.3301C10.6806 15.1307 10.5779 14.8345 10.5779 14.4415C10.5779 13.9487 10.6542 13.5235 10.8067 13.1656C10.9592 12.802 11.1616 12.4852 11.4138 12.2154C11.666 11.9397 12.0062 11.6141 12.4344 11.2387C12.8099 10.9102 13.0797 10.6639 13.2439 10.4996C13.414 10.3295 13.5548 10.1418 13.6663 9.93649C13.7836 9.73118 13.8422 9.50828 13.8422 9.26778C13.8422 8.79851 13.6663 8.40257 13.3143 8.07995C12.9682 7.75733 12.5195 7.59601 11.9681 7.59601C11.3229 7.59601 10.8477 7.76026 10.5427 8.08875C10.2377 8.41137 9.97959 8.88944 9.76841 9.52295C9.56898 10.1858 9.19063 10.5172 8.63337 10.5172C8.30488 10.5172 8.02626 10.4028 7.79749 10.1741C7.57459 9.93942 7.46313 9.68719 7.46313 9.41736ZM11.7569 19.0608C11.3991 19.0608 11.0853 18.9464 10.8155 18.7177C10.5515 18.483 10.4195 18.1575 10.4195 17.741C10.4195 17.3715 10.5486 17.0606 10.8067 16.8083C11.0648 16.5561 11.3815 16.43 11.7569 16.43C12.1265 16.43 12.4374 16.5561 12.6896 16.8083C12.9418 17.0606 13.068 17.3715 13.068 17.741C13.068 18.1516 12.936 18.4742 12.672 18.7089C12.408 18.9435 12.103 19.0608 11.7569 19.0608Z" fill="#BCBEC0"/>
</svg>
