<svg width="21" height="29" viewBox="0 0 21 29" fill="none" xmlns="http://www.w3.org/2000/svg">
<g id="inventory_icon">
<path id="Path" d="M19.4736 4.46495H16.5595V5.91861H18.826C19.196 5.91861 19.4736 6.18291 19.4736 6.53531V26.7104C19.4736 27.0628 19.196 27.3271 18.826 27.3271H2.17401C1.80396 27.3271 1.52643 27.0628 1.52643 26.7104V6.49126C1.52643 6.13886 1.80396 5.87456 2.17401 5.87456H4.44053V4.4209H1.52643C0.693833 4.4209 0 5.08165 0 5.87456V27.283C0 28.0759 0.693833 28.7367 1.52643 28.7367H19.4736C20.3062 28.7367 21 28.0759 21 27.283V5.87456C21 5.08165 20.3062 4.46495 19.4736 4.46495Z" fill="#043B5D"/>
<path id="Shape" fill-rule="evenodd" clip-rule="evenodd" d="M14.3141 2.45278H15.3107C15.9901 2.45278 16.5337 2.99784 16.579 3.67916V5.99567C16.579 6.35905 16.3072 6.63158 15.9448 6.63158H6.16053C5.79815 6.63158 5.52637 6.35905 5.52637 5.99567V3.67916C5.52637 2.99784 6.06994 2.45278 6.7494 2.45278H7.74595C8.42542 2.45278 8.96899 1.90771 8.96899 1.22639C8.96899 0.545061 9.51256 0 10.192 0H11.868C12.5475 0 13.0911 0.545061 13.0911 1.22639C13.0911 1.90771 13.6347 2.45278 14.3141 2.45278ZM10.4638 1.4535C10.4638 1.77145 10.7356 1.99856 11.0074 1.99856C11.2792 1.99856 11.551 1.77145 11.551 1.4535C11.551 1.13554 11.2792 0.908435 11.0074 0.908435C10.6903 0.908435 10.4638 1.18097 10.4638 1.4535Z" fill="#043B5D"/>
<path id="Path_2" d="M16.8682 13.2633H9.65848C9.20504 13.2633 8.84229 12.772 8.84229 12.158C8.84229 11.544 9.20504 11.0527 9.65848 11.0527H16.8682C17.3216 11.0527 17.6844 11.544 17.6844 12.158C17.6844 12.7106 17.3216 13.2633 16.8682 13.2633Z" fill="#043B5D"/>
<path id="Path_3" d="M16.8682 17.6842H9.65848C9.20504 17.6842 8.84229 17.1929 8.84229 16.5789C8.84229 15.9649 9.20504 15.4736 9.65848 15.4736H16.8682C17.3216 15.4736 17.6844 15.9649 17.6844 16.5789C17.6844 17.1929 17.3216 17.6842 16.8682 17.6842Z" fill="#043B5D"/>
<path id="Path_4" d="M16.8682 22.1051H9.65848C9.20504 22.1051 8.84229 21.6138 8.84229 20.9998C8.84229 20.3858 9.20504 19.8945 9.65848 19.8945H16.8682C17.3216 19.8945 17.6844 20.3858 17.6844 20.9998C17.6844 21.6138 17.3216 22.1051 16.8682 22.1051Z" fill="#043B5D"/>
<path id="Path_5" d="M7.59587 11.1671C7.40774 11.0146 7.07852 11.0146 6.89039 11.1671L5.52644 12.2723L4.1625 11.1671C3.97437 11.0146 3.64515 11.0146 3.45702 11.1671C3.26889 11.3195 3.26889 11.5863 3.45702 11.7388L5.19722 13.1489C5.38535 13.3014 5.66754 13.3014 5.85567 13.1489L7.59587 11.7388C7.784 11.5863 7.784 11.3576 7.59587 11.1671Z" fill="#043B5D"/>
<path id="Path_6" d="M7.59587 15.588C7.40774 15.4355 7.07852 15.4355 6.89039 15.588L5.52644 16.6932L4.1625 15.588C3.97437 15.4355 3.64515 15.4355 3.45702 15.588C3.26889 15.7404 3.26889 16.0072 3.45702 16.1597L5.19722 17.5698C5.38535 17.7223 5.66754 17.7223 5.85567 17.5698L7.59587 16.1597C7.784 16.0072 7.784 15.7404 7.59587 15.588Z" fill="#043B5D"/>
<path id="Path_7" d="M7.59587 20.0089C7.40774 19.8564 7.07852 19.8564 6.89039 20.0089L5.52644 21.1141L4.1625 20.0089C3.97437 19.8564 3.64515 19.8564 3.45702 20.0089C3.26889 20.1613 3.26889 20.4281 3.45702 20.5806L5.19722 21.9907C5.38535 22.1432 5.66754 22.1432 5.85567 21.9907L7.59587 20.5806C7.784 20.4281 7.784 20.1613 7.59587 20.0089Z" fill="#043B5D"/>
</g>
</svg>
