<svg width="255" height="46" viewBox="0 0 255 46" fill="none" xmlns="http://www.w3.org/2000/svg">
<path d="M244.766 11.8638H248.506V12.4538H246.996V16.0138H246.276V12.4538H244.766V11.8638ZM253.276 16.0138L253.266 13.1038L251.706 15.5238H251.376L249.806 13.1538V16.0138H249.116V11.8638H249.706L251.556 14.7038L253.366 11.8638H253.956L253.966 16.0138H253.276Z" fill="white"/>
<path d="M222.019 45.3994V38.5642H239.318C241.175 38.5642 242.694 37.0452 242.694 35.1887C242.694 33.3322 241.175 31.8133 239.318 31.8133H231.892C226.323 31.7289 221.766 27.1721 221.766 21.5182C221.766 15.8644 226.407 11.2231 232.061 11.2231H242.778V18.0584H232.061C230.205 18.0584 228.686 19.5773 228.686 21.4338C228.686 23.2903 230.205 24.8093 232.061 24.8093H239.318C244.972 24.8093 249.613 29.4505 249.613 35.1043C249.613 40.7582 244.972 45.3994 239.318 45.3994H222.019Z" fill="white"/>
<path d="M120.334 34.6822C119.997 34.6822 119.575 34.5135 119.322 34.2603L115.102 30.041C114.512 29.4503 114.512 28.5221 115.102 27.9314C115.693 27.3407 116.621 27.3407 117.212 27.9314L120.334 31.0536L127.676 23.7121C128.267 23.1214 129.195 23.1214 129.785 23.7121C130.376 24.3028 130.376 25.231 129.785 25.8217L121.431 34.1759C121.094 34.5135 120.672 34.6822 120.334 34.6822Z" fill="white"/>
<path d="M36.2016 45.3995C26.7504 45.3995 19.1556 37.7204 19.1556 28.3536C19.1556 18.9867 26.8348 11.3076 36.2016 11.3076C45.5684 11.3076 53.2475 18.9023 53.2475 28.3536V31.8134H26.5816C28.0162 35.8639 31.8979 38.5642 36.2016 38.5642C39.7458 38.5642 42.9524 36.7921 44.8089 33.8386L45.0621 33.4167L50.8847 37.1297L50.6316 37.5516C47.4249 42.446 42.0242 45.3995 36.2016 45.3995ZM45.8216 24.8937C44.387 20.8432 40.5053 18.1429 36.2016 18.1429C31.8979 18.1429 28.0162 20.9276 26.5816 24.8937H45.8216Z" fill="#3ECCCD"/>
<path d="M55.6102 45.3994V38.5642H72.9093C74.7658 38.5642 76.2847 37.0452 76.2847 35.1887C76.2847 33.3322 74.7658 31.8133 72.9093 31.8133H65.4834C59.9139 31.7289 55.3571 27.1721 55.3571 21.5182C55.3571 15.8644 59.9983 11.2231 65.6521 11.2231H76.3691V18.0584H65.6521C63.7956 18.0584 62.2767 19.5773 62.2767 21.4338C62.2767 23.2903 63.7956 24.8093 65.6521 24.8093H72.9093C78.5632 24.8093 83.2044 29.4505 83.2044 35.1043C83.2044 40.7582 78.5632 45.3994 72.9093 45.3994H55.6102Z" fill="#3ECCCD"/>
<path d="M122.528 45.5682C113.077 45.5682 105.482 37.8891 105.482 28.5222C105.482 19.1554 113.161 11.4763 122.528 11.4763C126.241 11.4763 129.785 12.6577 132.739 14.8517V2.19385H139.574V28.5222C139.574 37.8891 131.979 45.5682 122.528 45.5682ZM122.528 18.2272C116.874 18.2272 112.318 22.784 112.318 28.4378C112.318 34.0917 116.874 38.6485 122.528 38.6485C128.182 38.6485 132.739 34.0917 132.739 28.4378C132.739 22.8684 128.182 18.2272 122.528 18.2272Z" fill="#3ECCCD"/>
<path d="M14.6831 38.1422L19.6619 45.4838H13.0798C5.40069 45.4838 0 41.6864 0 31.8977V2.27823L7.51034 2.19385V11.6451H14.008L19.9994 18.9866H7.51034V31.8977C7.51034 36.117 9.36683 38.1422 13.0798 38.1422H14.6831Z" fill="#3ECCCD"/>
<path d="M100.757 37.9734L105.735 45.315H99.1533C91.4742 45.315 86.0735 41.5176 86.0735 31.7289V2.19385L93.5838 2.44701V11.4763H100.082L106.073 18.8179H93.4994V31.7289C93.4994 35.9482 95.3559 37.9734 99.0689 37.9734H100.757Z" fill="#3ECCCD"/>
<path d="M149.616 2.27832H147.084V45.4839H149.616V2.27832Z" fill="#0F84A9"/>
<path d="M157.042 45.3152V0L164.637 5.99139V45.3152H157.042Z" fill="white"/>
<path d="M202.779 25.4V45.3995H195.438V25.4C195.438 21.3495 193.919 19.3242 190.881 19.3242C187.843 19.3242 186.408 21.3495 186.408 25.4V45.3995H178.982V25.4C178.982 16.7927 183.792 12.2358 190.543 12.2358C194.341 12.2358 197.041 13.586 198.982 16.3707C201.007 13.586 203.792 12.2358 207.589 12.2358C214.256 12.2358 219.066 16.8771 219.066 25.4V45.3995H211.724V25.4C211.724 21.3495 210.289 19.3242 207.252 19.3242C204.298 19.3242 202.779 21.3495 202.779 25.4Z" fill="white"/>
<path d="M168.434 1.35007C170.206 -0.422029 173.244 -0.422029 175.016 1.35007C176.788 3.12217 176.788 6.16006 175.016 7.93217C173.244 9.70427 170.206 9.70427 168.434 7.93217C166.578 6.16006 166.578 3.20656 168.434 1.35007Z" fill="white"/>
<path d="M167.928 45.2308V11.814H175.438V45.2308H167.928Z" fill="white"/>
</svg>
