<svg width="55" height="39" viewBox="0 0 55 39" fill="none" xmlns="http://www.w3.org/2000/svg">
<g style="mix-blend-mode:multiply" clip-path="url(#clip0)">
<path d="M27.4975 6.03906C23.1563 6.03906 19.2539 8.08303 16.7916 11.6465C14.3402 15.1941 13.7735 19.6836 15.2741 23.6521C15.6675 24.7136 16.2965 25.7495 17.142 26.7284L26.3 37.4858C26.5988 37.837 27.0367 38.0391 27.4975 38.0391C27.9583 38.0391 28.3961 37.837 28.6949 37.4858L37.8525 26.7292C38.7343 25.7079 39.3456 24.7008 39.7214 23.6509C41.2209 19.6802 40.6538 15.1928 38.2034 11.6467C35.741 8.08303 31.8389 6.03906 27.4975 6.03906V6.03906ZM38.8628 23.3311C38.8621 23.3337 38.861 23.3362 38.86 23.339C38.5232 24.2824 37.9662 25.1959 37.1578 26.1321L37.1557 26.1347L27.9974 36.892C27.8727 37.0385 27.6899 37.1228 27.4975 37.1228C27.305 37.1228 27.1223 37.0385 26.9978 36.892L17.8374 26.1321C17.0617 25.234 16.4884 24.2924 16.1321 23.3309C14.7369 19.6406 15.2649 15.4673 17.5456 12.1674C19.8341 8.85492 23.4615 6.9551 27.4975 6.9551C31.5335 6.9551 35.1611 8.85492 37.4497 12.1674C39.73 15.4673 40.2584 19.6406 38.8628 23.3311V23.3311Z" fill="#043B5D"/>
<path d="M27.4972 8.75488C21.8011 8.75488 17.167 13.389 17.167 19.0854C17.167 24.7815 21.8011 29.4156 27.4972 29.4156C33.1933 29.4156 37.8277 24.7815 37.8277 19.0854C37.8277 13.389 33.1933 8.75488 27.4972 8.75488V8.75488ZM27.4972 28.4996C22.3062 28.4996 18.083 24.2765 18.083 19.0854C18.083 13.8941 22.3062 9.67092 27.4972 9.67092C32.6882 9.67092 36.9116 13.8943 36.9116 19.0854C36.9116 24.2762 32.6882 28.4996 27.4972 28.4996V28.4996Z" fill="#043B5D"/>
<path d="M33.7903 14.776H30.8998V12.2211C30.9024 12.1012 30.8566 11.9852 30.7728 11.8996C30.6887 11.8139 30.5737 11.7659 30.4538 11.7661H24.9663C24.7097 11.7631 24.4975 11.9647 24.4876 12.2211V16.2809H22.8032C22.5502 16.2809 22.3283 16.466 22.3283 16.7193V18.0476H21.2045C20.9512 18.0545 20.7513 18.2653 20.758 18.5186V23.8743C20.7557 23.9942 20.8017 24.1099 20.8855 24.1956C20.9696 24.2809 21.0846 24.3292 21.2045 24.329H33.7903C33.9104 24.3292 34.0254 24.2809 34.1093 24.1953C34.1933 24.1097 34.2394 23.9939 34.2368 23.8738V15.2156C34.2388 15.0973 34.1921 14.9833 34.1077 14.9002C34.0234 14.8171 33.9086 14.7722 33.7903 14.776V14.776ZM29.9838 12.6822V23.4129H25.4036V16.7806C25.4036 16.7604 25.4082 16.74 25.4082 16.719C25.4082 16.698 25.4036 16.6779 25.4036 16.6577V12.6822H29.9838ZM21.674 18.9636H22.8032C22.9215 18.9657 23.0355 18.9194 23.1189 18.8356C23.2022 18.7515 23.2477 18.637 23.2444 18.5186V17.197H24.4876V23.4129H21.674V18.9636ZM33.3208 23.4129H30.8998V15.692H33.3208V23.4129Z" fill="#043B5D"/>
<path d="M31.7754 20.1416H32.3155C32.5685 20.1416 32.7735 19.9364 32.7735 19.6836C32.7735 19.4306 32.5685 19.2256 32.3155 19.2256H31.7754C31.5224 19.2256 31.3174 19.4306 31.3174 19.6836C31.3174 19.9364 31.5224 20.1416 31.7754 20.1416Z" fill="#043B5D"/>
<path d="M31.7754 21.4502H32.3155C32.5685 21.4502 32.7735 21.245 32.7735 20.9922C32.7735 20.7392 32.5685 20.5342 32.3155 20.5342H31.7754C31.5224 20.5342 31.3174 20.7392 31.3174 20.9922C31.3174 21.245 31.5224 21.4502 31.7754 21.4502Z" fill="#043B5D"/>
<path d="M32.3155 21.7773H31.7754C31.5224 21.7773 31.3174 21.9823 31.3174 22.2354C31.3174 22.4881 31.5224 22.6934 31.7754 22.6934H32.3155C32.5685 22.6934 32.7735 22.4881 32.7735 22.2354C32.7735 21.9823 32.5685 21.7773 32.3155 21.7773V21.7773Z" fill="#043B5D"/>
<path d="M29.0029 17.9656C29.256 17.9656 29.4609 17.7607 29.4609 17.5076V16.6782C29.4609 16.4252 29.256 16.2202 29.0029 16.2202C28.7499 16.2202 28.5449 16.4252 28.5449 16.6782V17.5076C28.5449 17.7607 28.7499 17.9656 29.0029 17.9656Z" fill="#043B5D"/>
<path d="M27.6943 17.9656C27.9474 17.9656 28.1523 17.7607 28.1523 17.5076V16.6782C28.1523 16.4252 27.9474 16.2202 27.6943 16.2202C27.4413 16.2202 27.2363 16.4252 27.2363 16.6782V17.5076C27.2363 17.7607 27.4413 17.9656 27.6943 17.9656Z" fill="#043B5D"/>
<path d="M26.4512 17.9656C26.7042 17.9656 26.9092 17.7607 26.9092 17.5076V16.6782C26.9092 16.4252 26.7042 16.2202 26.4512 16.2202C26.1981 16.2202 25.9932 16.4252 25.9932 16.6782V17.5076C25.9932 17.7607 26.1981 17.9656 26.4512 17.9656Z" fill="#043B5D"/>
<path d="M31.7754 17.5244H32.3155C32.5685 17.5244 32.7735 17.3192 32.7735 17.0664C32.7735 16.8134 32.5685 16.6084 32.3155 16.6084H31.7754C31.5224 16.6084 31.3174 16.8134 31.3174 17.0664C31.3174 17.3192 31.5224 17.5244 31.7754 17.5244Z" fill="#043B5D"/>
<path d="M31.7754 18.833H32.3155C32.5685 18.833 32.7735 18.6278 32.7735 18.375C32.7735 18.122 32.5685 17.917 32.3155 17.917H31.7754C31.5224 17.917 31.3174 18.122 31.3174 18.375C31.3174 18.6278 31.5224 18.833 31.7754 18.833Z" fill="#043B5D"/>
<path d="M29.0029 15.7728C29.256 15.7728 29.4609 15.5678 29.4609 15.3148V14.4854C29.4609 14.2323 29.256 14.0273 29.0029 14.0273C28.7499 14.0273 28.5449 14.2323 28.5449 14.4854V15.3148C28.5449 15.5678 28.7499 15.7728 29.0029 15.7728Z" fill="#043B5D"/>
<path d="M27.6943 15.7728C27.9474 15.7728 28.1523 15.5678 28.1523 15.3148V14.4854C28.1523 14.2323 27.9474 14.0273 27.6943 14.0273C27.4413 14.0273 27.2363 14.2323 27.2363 14.4854V15.3148C27.2363 15.5678 27.4413 15.7728 27.6943 15.7728Z" fill="#043B5D"/>
<path d="M26.4512 15.7728C26.7042 15.7728 26.9092 15.5678 26.9092 15.3148V14.4854C26.9092 14.2323 26.7042 14.0273 26.4512 14.0273C26.1981 14.0273 25.9932 14.2323 25.9932 14.4854V15.3148C25.9932 15.5678 26.1981 15.7728 26.4512 15.7728Z" fill="#043B5D"/>
<path d="M29.0029 20.158C29.256 20.158 29.4609 19.953 29.4609 19.7V18.8706C29.4609 18.6176 29.256 18.4126 29.0029 18.4126C28.7499 18.4126 28.5449 18.6176 28.5449 18.8706V19.7C28.5449 19.953 28.7499 20.158 29.0029 20.158Z" fill="#043B5D"/>
<path d="M27.6943 20.158C27.9474 20.158 28.1523 19.953 28.1523 19.7V18.8706C28.1523 18.6176 27.9474 18.4126 27.6943 18.4126C27.4413 18.4126 27.2363 18.6176 27.2363 18.8706V19.7C27.2363 19.953 27.4413 20.158 27.6943 20.158Z" fill="#043B5D"/>
<path d="M26.4512 20.158C26.7042 20.158 26.9092 19.953 26.9092 19.7V18.8706C26.9092 18.6176 26.7042 18.4126 26.4512 18.4126C26.1981 18.4126 25.9932 18.6176 25.9932 18.8706V19.7C25.9932 19.953 26.1981 20.158 26.4512 20.158Z" fill="#043B5D"/>
<path d="M29.0029 22.3512C29.256 22.3512 29.4609 22.1459 29.4609 21.8932V21.0635C29.4609 20.8107 29.256 20.6055 29.0029 20.6055C28.7499 20.6055 28.5449 20.8107 28.5449 21.0635V21.8932C28.5449 22.1459 28.7499 22.3512 29.0029 22.3512Z" fill="#043B5D"/>
<path d="M27.6943 22.3512C27.9474 22.3512 28.1523 22.1459 28.1523 21.8932V21.0635C28.1523 20.8107 27.9474 20.6055 27.6943 20.6055C27.4413 20.6055 27.2363 20.8107 27.2363 21.0635V21.8932C27.2363 22.1459 27.4413 22.3512 27.6943 22.3512Z" fill="#043B5D"/>
<path d="M26.4512 22.3512C26.7042 22.3512 26.9092 22.1459 26.9092 21.8932V21.0635C26.9092 20.8107 26.7042 20.6055 26.4512 20.6055C26.1981 20.6055 25.9932 20.8107 25.9932 21.0635V21.8932C25.9932 22.1459 26.1981 22.3512 26.4512 22.3512Z" fill="#043B5D"/>
</g>
<defs>
<clipPath id="clip0">
<rect width="31.9999" height="32" fill="white" transform="translate(11.5 6.03906)"/>
</clipPath>
</defs>
</svg>
