<svg width="42" height="28" viewBox="0 0 42 28" fill="none" xmlns="http://www.w3.org/2000/svg">
<path d="M21.1614 12.8386L39.0283 0.320966C39.1166 0.260243 39.2147 0.19952 39.3225 0.147471C38.9695 0.0520494 38.5969 0 38.2144 0H3.79462C3.41218 0 3.03955 0.0520494 2.68652 0.147471C2.78459 0.19952 2.87284 0.251568 2.9611 0.312291L21.1614 12.8386Z" fill="#043B5D"/>
<path d="M22.2405 17.7744C21.9267 17.9913 21.5541 18.1041 21.1814 18.1041C20.8088 18.1041 20.4361 18 20.1321 17.7831L0 3.9209V24.4453C0 26.293 1.69647 27.8024 3.795 27.8024H38.205C40.2937 27.8024 42 26.3017 42 24.4453V3.92957L22.2405 17.7744Z" fill="#043B5D"/>
</svg>
