<svg width="24" height="25" viewBox="0 0 24 25" fill="none" xmlns="http://www.w3.org/2000/svg">
<g clip-path="url(#clip0)">
<path fill-rule="evenodd" clip-rule="evenodd" d="M2.68328 0.587891H13.3559V5.83918H18.2302V10.8911C16.4461 13.1179 14.6302 15.3779 12.8143 17.6047C12.7187 17.7044 12.6868 17.8374 12.655 17.9703L12.3364 20.7622C12.3045 20.9948 12.4001 21.2275 12.5912 21.3936C12.7824 21.5598 13.0054 21.5931 13.2284 21.5266L15.8089 20.6957C15.9364 20.6625 16.032 20.596 16.1275 20.463C16.8284 19.5989 17.5293 18.7348 18.2302 17.8706V23.5872C18.2302 24.2187 17.7523 24.7173 17.147 24.7173H2.68328C2.07797 24.7173 1.6001 24.2187 1.6001 23.5872V1.71792C1.6001 1.08643 2.07797 0.587891 2.68328 0.587891ZM13.547 14.4141H4.8178V13.3505H13.5151V14.4141H13.547ZM11.4762 17.4386H4.8178V16.375H11.4762V17.4386ZM10.3612 20.4298H4.8178V19.3663H10.3293V20.4298H10.3612ZM15.0125 11.4228H4.8178V10.3593H15.0125V11.4228ZM14.3116 0.820543L18.1028 4.8421H14.3116V0.820543Z" fill="#00A6A6"/>
<path fill-rule="evenodd" clip-rule="evenodd" d="M19.1541 10.8578L14.0249 17.2392L16.2868 19.2333L21.4161 12.852L19.1541 10.8578Z" fill="#00A6A6"/>
<path fill-rule="evenodd" clip-rule="evenodd" d="M22.8815 9.62819L21.9258 8.79729C21.5753 8.49817 21.0337 8.5314 20.7151 8.897L19.4727 10.4591L21.7346 12.42L22.9771 10.8579C23.2957 10.4923 23.2638 9.92732 22.8815 9.62819Z" fill="#00A6A6"/>
<path fill-rule="evenodd" clip-rule="evenodd" d="M13.6745 17.6712L13.3559 18.0701L13.0374 20.7289C13.0374 20.7954 13.1011 20.8619 13.1648 20.8287L15.6179 20.0642L15.9365 19.6654L13.6745 17.6712Z" fill="#00A6A6"/>
</g>
<defs>
<clipPath id="clip0">
<rect width="24" height="24.1626" fill="white" transform="translate(0 0.587891)"/>
</clipPath>
</defs>
</svg>
