<svg width="21" height="109" viewBox="0 0 21 109" fill="none" xmlns="http://www.w3.org/2000/svg">
<path d="M4.302 36.8417H1.96289V30.9592H10.3837M4.302 36.8417H16.3094M4.302 36.8417V47.9705M16.3094 36.8417H18.8045V30.9592H10.3837M16.3094 36.8417V47.9705M4.302 47.9705V101.23C4.302 105.364 13.0347 111.087 16.3094 101.23V47.9705M4.302 47.9705H10.3057M16.3094 47.9705H10.3057M10.3057 47.9705V74.203M10.3057 74.203H8.82428L7.73269 79.7674C7.73269 83.901 12.8787 83.1061 12.255 79.7674L11.7871 74.203H10.3057ZM10.3837 30.9592L10.3057 24.5999M8.35645 25.0768H12.4109L13.3466 4.72682C13.8144 2.18308 8.35645 0.434282 7.10893 4.72682L8.35645 25.0768Z" stroke="#0F84A9" stroke-width="2.80693"/>
</svg>
