<svg width="102" height="103" viewBox="0 0 102 103" fill="none" xmlns="http://www.w3.org/2000/svg">
<path fill-rule="evenodd" clip-rule="evenodd" d="M12.8074 16.7746V4.07632C12.8074 2.33107 14.2509 0.886719 15.9951 0.886719C17.7394 0.886719 19.1829 2.33107 19.1829 4.07632V16.8347C19.1829 18.58 17.7394 20.0243 15.9951 20.0243C14.2509 20.0243 12.8074 18.58 12.8074 16.7746ZM66.9385 19.9642C68.6828 19.9642 70.1263 18.5198 70.1263 16.7746V4.07632C70.1263 2.33107 68.6828 0.886719 66.9385 0.886719C65.1943 0.886719 63.7508 2.33107 63.7508 4.07632V16.8347C63.7508 18.58 65.1943 19.9642 66.9385 19.9642ZM76.5014 102.773C90.5153 102.773 101.943 91.3992 101.943 77.3168C101.943 63.2344 90.5153 51.8602 76.5014 51.8602C62.4874 51.8602 51.0597 63.2344 51.0597 77.3168C51.0597 91.3391 62.4273 102.773 76.5014 102.773ZM95.5683 77.3169C95.5683 66.7851 87.0276 58.2394 76.5021 58.2394C65.9766 58.2394 57.436 66.7851 57.436 77.3169C57.436 87.8486 65.9766 96.3943 76.5021 96.3943C87.0276 96.3943 95.5683 87.8486 95.5683 77.3169ZM12.8074 39.1018H25.5583V51.8602H12.8074V39.1018ZM12.8074 70.9376H25.5583V58.1792H12.8074V70.9376ZM44.6853 51.8602H31.9344V39.1018H44.6853V51.8602ZM31.9344 70.9376H44.6853V58.1792H31.9344V70.9376ZM6.43208 32.7226V76.6549C6.43208 77.0159 6.67267 77.3168 6.9734 77.2567H44.6246V83.6359H6.9734C3.12407 83.6359 0.0566406 80.5065 0.0566406 76.6549V20.6262C0.0566406 16.7746 3.18422 13.6451 6.9734 13.6451H9.61981V16.8347C9.61981 20.3253 12.5068 23.2139 15.9952 23.2139C19.5438 23.2139 22.3707 20.3253 22.3707 16.8347V13.6451H60.5031V16.8347C60.5031 20.3253 63.3299 23.2139 66.8785 23.2139C70.4271 23.2139 73.2539 20.3253 73.2539 16.8347V13.6451H75.9004C79.7497 13.6451 82.8171 16.7746 82.8171 20.6262V45.481H76.4417V32.7226H6.43208ZM63.7509 51.8602V39.1018H51V51.8602H63.7509ZM76.4411 77.3169H86.0043C87.8087 77.3169 89.192 78.7612 89.192 80.5065C89.192 82.2517 87.7485 83.6961 86.0043 83.6961H73.2534C71.5092 83.6961 70.0657 82.2517 70.0657 80.5065V67.748C70.0657 66.0028 71.5092 64.5584 73.2534 64.5584C74.9976 64.5584 76.4411 66.0028 76.4411 67.748V77.3169Z" fill="#0F84A9"/>
</svg>
