<svg width="40" height="40" viewBox="0 0 40 40" fill="none" xmlns="http://www.w3.org/2000/svg">
<path d="M20.243 18.1378C20.2142 18.101 20.1773 18.0712 20.1353 18.0508C20.0933 18.0303 20.0472 18.0197 20.0004 18.0197C19.9536 18.0197 19.9075 18.0303 19.8655 18.0508C19.8235 18.0712 19.7866 18.101 19.7578 18.1378L15.4453 23.5939C15.4098 23.6393 15.3877 23.6938 15.3817 23.7512C15.3756 23.8085 15.3858 23.8664 15.4111 23.9182C15.4364 23.97 15.4758 24.0137 15.5248 24.0442C15.5737 24.0747 15.6302 24.0908 15.6879 24.0906H18.5334V33.4241C18.5334 33.5935 18.672 33.7322 18.8414 33.7322H21.1517C21.3211 33.7322 21.4597 33.5935 21.4597 33.4241V24.0945H24.3129C24.5709 24.0945 24.7133 23.798 24.5555 23.5978L20.243 18.1378Z" fill="#0F84A9"/>
<path d="M31.5287 14.5839C29.7652 9.93253 25.2717 6.625 20.0082 6.625C14.7446 6.625 10.2512 9.92868 8.48765 14.58C5.18782 15.4464 2.75049 18.4536 2.75049 22.0268C2.75049 26.2815 6.19664 29.7277 10.4475 29.7277H11.9916C12.161 29.7277 12.2996 29.5891 12.2996 29.4196L12.2996 27.1094C12.2996 26.94 12.161 26.8013 11.9916 26.8013H10.4475C9.14993 26.8013 7.92934 26.2854 7.02063 25.3497C6.11578 24.4179 5.63447 23.1627 5.67683 21.8612C5.71148 20.8447 6.05802 19.8898 6.68564 19.085C7.32867 18.2649 8.22967 17.6681 9.23079 17.4024L10.6901 17.0212L11.2253 15.6119C11.5565 14.734 12.0185 13.9139 12.5999 13.1708C13.1739 12.4342 13.8538 11.7867 14.6176 11.2494C16.2001 10.1366 18.0637 9.54749 20.0082 9.54749C21.9527 9.54749 23.8163 10.1366 25.3988 11.2494C26.1651 11.7884 26.8427 12.4353 27.4164 13.1708C27.9979 13.9139 28.4599 14.7379 28.7911 15.6119L29.3224 17.0174L30.7779 17.4024C32.8648 17.9646 34.3241 19.8628 34.3241 22.0268C34.3241 23.3013 33.8274 24.5026 32.9264 25.4036C32.4846 25.8481 31.9589 26.2005 31.38 26.4404C30.801 26.6803 30.1802 26.803 29.5534 26.8013H28.0094C27.84 26.8013 27.7014 26.94 27.7014 27.1094V29.4196C27.7014 29.5891 27.84 29.7277 28.0094 29.7277H29.5534C33.8043 29.7277 37.2505 26.2815 37.2505 22.0268C37.2505 18.4574 34.8209 15.4541 31.5287 14.5839Z" fill="#0F84A9"/>
</svg>
