<svg width="24" height="24" viewBox="0 0 24 24" fill="none" xmlns="http://www.w3.org/2000/svg">
<path d="M13.9449 11.8425C13.0787 12.4725 11.9764 12.7874 10.7953 12.7874C9.61417 12.7874 8.51181 12.3937 7.56693 11.7638C4.9685 12.1575 3 14.3622 3 17.0394V19.0866C3 20.3465 4.02362 21.3701 5.28346 21.3701H15.9921C17.252 21.3701 18.2756 20.3465 18.2756 19.0866V17.0394C18.3543 14.441 16.4646 12.2362 13.9449 11.8425Z" fill="#043B5D"/>
<path d="M10.874 2C8.03938 2 5.83466 4.28346 5.83466 7.03937C5.83466 8.77165 6.7008 10.2677 8.03938 11.2126C8.82678 11.7638 9.8504 12.1575 10.9528 12.1575C12.0551 12.1575 13 11.8425 13.7874 11.2913C15.126 10.3465 15.9921 8.85039 15.9921 7.11811C15.9134 4.20472 13.7087 2 10.874 2Z" fill="#043B5D"/>
<path d="M17.0945 22C19.7907 22 21.9764 19.8143 21.9764 17.1181C21.9764 14.4219 19.7907 12.2362 17.0945 12.2362C14.3983 12.2362 12.2126 14.4219 12.2126 17.1181C12.2126 19.8143 14.3983 22 17.0945 22Z" fill="white"/>
<path d="M17.0945 21.2126C19.3558 21.2126 21.189 19.3794 21.189 17.1181C21.189 14.8568 19.3558 13.0236 17.0945 13.0236C14.8332 13.0236 13 14.8568 13 17.1181C13 19.3794 14.8332 21.2126 17.0945 21.2126Z" fill="#EB222D"/>
<path d="M18.0394 17.4331L18.6693 16.8031C18.9055 16.5669 18.9055 16.1732 18.6693 15.937C18.4331 15.7008 18.0394 15.7008 17.8031 15.937L17.1732 16.5669L16.5433 15.937C16.3071 15.7008 15.9134 15.7008 15.6772 15.937C15.4409 16.1732 15.4409 16.5669 15.6772 16.8031L16.3071 17.4331L15.6772 18.063C15.4409 18.2992 15.4409 18.6929 15.6772 18.9291C15.9134 19.1653 16.3071 19.1653 16.5433 18.9291L17.1732 18.2992L17.8031 18.9291C18.0394 19.1653 18.4331 19.1653 18.6693 18.9291C18.9055 18.6929 18.9055 18.2992 18.6693 18.063L18.0394 17.4331Z" fill="#BD2227"/>
<path d="M18.0394 17.1181L18.6693 16.4882C18.9055 16.2519 18.9055 15.8582 18.6693 15.622C18.4331 15.3858 18.0394 15.3858 17.8031 15.622L17.1732 16.2519L16.5433 15.622C16.3071 15.3858 15.9134 15.3858 15.6772 15.622C15.4409 15.8582 15.4409 16.2519 15.6772 16.4882L16.3071 17.1181L15.6772 17.748C15.4409 17.9842 15.4409 18.3779 15.6772 18.6141C15.9134 18.8504 16.3071 18.8504 16.5433 18.6141L17.1732 17.9842L17.8031 18.6141C18.0394 18.8504 18.4331 18.8504 18.6693 18.6141C18.9055 18.3779 18.9055 17.9842 18.6693 17.748L18.0394 17.1181Z" fill="white"/>
</svg>
