<svg width="25" height="25" viewBox="0 0 25 25" fill="none" xmlns="http://www.w3.org/2000/svg">
<path d="M14.1879 12.0303C13.2319 12.661 12.1166 13.0551 10.9217 13.0551C9.72677 13.0551 8.6115 12.661 7.65556 12.0303C5.02671 12.4245 3.03516 14.6318 3.03516 17.3911V19.4408C3.03516 20.7022 4.07076 21.7271 5.34536 21.7271H16.3387C17.6133 21.7271 18.6489 20.7022 18.6489 19.4408V17.3911C18.7286 14.7107 16.8167 12.5033 14.1879 12.0303Z" fill="#043B5D"/>
<path d="M11.081 2.01819C8.21317 2.01819 5.8233 4.30442 5.8233 7.14251C5.8233 8.87689 6.69959 10.4536 8.05384 11.3996C8.93013 11.9515 9.88607 12.3457 11.0013 12.3457C12.1166 12.3457 13.0726 12.0303 13.9488 11.4785C15.3031 10.5324 16.1794 9.03456 16.1794 7.22134C16.259 4.30442 13.9488 2.01819 11.081 2.01819Z" fill="#043B5D"/>
<path d="M17.1354 22.0424C19.6871 22.0424 21.7558 19.9952 21.7558 17.4699C21.7558 14.9446 19.6871 12.8975 17.1354 12.8975C14.5836 12.8975 12.515 14.9446 12.515 17.4699C12.515 19.9952 14.5836 22.0424 17.1354 22.0424Z" fill="white"/>
<path d="M17.1354 21.3328C19.2912 21.3328 21.0388 19.6033 21.0388 17.4699C21.0388 15.3364 19.2912 13.6069 17.1354 13.6069C14.9796 13.6069 13.2319 15.3364 13.2319 17.4699C13.2319 19.6033 14.9796 21.3328 17.1354 21.3328Z" fill="#00D7A2"/>
<path d="M19.1269 16.2874C18.8879 16.0509 18.4896 16.0509 18.2506 16.2874L16.5777 17.9429L15.9404 17.1546C15.7014 16.9181 15.3031 16.9181 15.0641 17.1546C14.8251 17.3911 14.8251 17.7852 15.0641 18.0217L16.1794 19.1254C16.4184 19.362 16.8167 19.362 17.0557 19.1254L19.1269 17.0757C19.3659 16.8392 19.3659 16.445 19.1269 16.2874Z" fill="#049648"/>
<path d="M19.1269 15.9721C18.8879 15.7356 18.4896 15.7356 18.2506 15.9721L16.5777 17.6276L15.8608 16.9181C15.6218 16.6816 15.2235 16.6816 14.9845 16.9181C14.7455 17.1546 14.7455 17.5488 14.9845 17.7853L16.0997 18.889C16.3387 19.1255 16.737 19.1255 16.976 18.889L19.0472 16.8393C19.3659 16.6027 19.3659 16.2086 19.1269 15.9721Z" fill="white"/>
</svg>
