<svg width="24" height="27" viewBox="0 0 24 27" fill="none" xmlns="http://www.w3.org/2000/svg">
<g clip-path="url(#clip0)">
<path d="M11.6531 13.3667C11.6625 13.1752 11.6625 12.9833 11.6531 12.7918C11.5935 12.1862 11.7995 11.7675 12.2945 11.3679C14.3896 9.67389 13.8663 5.70704 11.4509 4.73641C9.14886 3.81177 6.90444 5.40713 6.78731 8.06894C6.72496 9.48417 7.13776 10.7011 8.32137 11.5874C8.5358 11.7483 8.68033 12.1134 8.70867 12.3989C8.76723 12.9997 8.71717 13.611 8.72945 14.2195C8.73984 14.7522 8.5018 15.0818 8.01815 15.2783C6.50675 15.9001 4.99536 16.5383 3.48397 17.1726C2.10482 17.7523 1.51632 18.6491 1.5116 20.1678C1.52028 20.4071 1.51618 20.6467 1.49932 20.8855C1.45209 21.3119 1.12147 21.5955 0.726617 21.5562C0.309095 21.5179 0.0738829 21.2736 0.0332642 20.8472C-0.197223 18.3799 0.825802 16.659 3.08439 15.7094C4.34735 15.1786 5.60559 14.6353 6.87516 14.1217C7.15854 14.0068 7.22561 13.8544 7.24167 13.5602C7.27379 12.9748 7.12643 12.5484 6.69285 12.0981C4.37286 9.68347 4.94057 4.64347 8.39316 3.3116C11.5388 2.09951 14.8572 4.24295 15.0679 7.65022C15.185 9.53591 14.7184 11.1629 13.3335 12.5149C13.0898 12.7535 13.1758 13.3772 13.1843 13.8218C13.1843 13.9378 13.4582 14.0805 13.6301 14.1562C14.4076 14.4983 15.1963 14.8183 15.9775 15.1537C16.498 15.3779 16.6633 15.7171 16.4867 16.1617C16.2978 16.6235 15.9048 16.7845 15.3985 16.5737C14.367 16.1444 13.343 15.6941 12.3096 15.2668C11.8373 15.0751 11.6247 14.7417 11.6531 14.2281C11.6691 13.9406 11.6531 13.6532 11.6531 13.3657V13.3667Z" fill="#043B5D"/>
<path d="M10 18.9706L13.5 22.4706L21.5 14.4706" stroke="#25DD83" stroke-width="2" stroke-linecap="round"/>
</g>
<defs>
<clipPath id="clip0">
<rect width="23.9999" height="24" fill="white" transform="translate(0 2.97058)"/>
</clipPath>
</defs>
</svg>
