<svg width="25" height="25" viewBox="0 0 25 25" fill="none" xmlns="http://www.w3.org/2000/svg">
<path fill-rule="evenodd" clip-rule="evenodd" d="M3.52598 4.66032V1.66918C3.52598 1.25807 3.866 0.917847 4.27686 0.917847C4.68772 0.917847 5.02775 1.25807 5.02775 1.66918V4.67449C5.02775 5.0856 4.68772 5.42582 4.27686 5.42582C3.866 5.42582 3.52598 5.0856 3.52598 4.66032ZM16.2769 5.41164C16.6877 5.41164 17.0277 5.07142 17.0277 4.66032V1.66918C17.0277 1.25807 16.6877 0.917847 16.2769 0.917847C15.866 0.917847 15.526 1.25807 15.526 1.66918V4.67449C15.526 5.0856 15.866 5.41164 16.2769 5.41164ZM18.5294 24.9178C21.8305 24.9178 24.5224 22.2386 24.5224 18.9214C24.5224 15.6042 21.8305 12.9249 18.5294 12.9249C15.2284 12.9249 12.5365 15.6042 12.5365 18.9214C12.5365 22.2244 15.2142 24.9178 18.5294 24.9178ZM23.0208 18.9214C23.0208 16.4406 21.009 14.4276 18.5296 14.4276C16.0503 14.4276 14.0385 16.4406 14.0385 18.9214C14.0385 21.4022 16.0503 23.4152 18.5296 23.4152C21.009 23.4152 23.0208 21.4022 23.0208 18.9214ZM3.52598 12.9249V9.91962H6.52952V12.9249H3.52598ZM6.52952 17.4187V14.4134H3.52598V17.4187H6.52952ZM11.035 12.9249H8.03145V9.91962H11.035V12.9249ZM8.03145 17.4187H11.035V14.4134H8.03145V17.4187ZM2.02423 8.41696V18.7655C2.02423 18.8505 2.0809 18.9214 2.15174 18.9072H11.0207V20.4099H2.15174C1.24501 20.4099 0.522461 19.6727 0.522461 18.7655V5.56758C0.522461 4.66032 1.25918 3.92316 2.15174 3.92316H2.77512V4.67449C2.77512 5.4967 3.45516 6.17715 4.27689 6.17715C5.11278 6.17715 5.77866 5.4967 5.77866 4.67449V3.92316H14.7609V4.67449C14.7609 5.4967 15.4268 6.17715 16.2627 6.17715C17.0986 6.17715 17.7645 5.4967 17.7645 4.67449V3.92316H18.3879C19.2946 3.92316 20.0171 4.66032 20.0171 5.56758V11.4223H18.5154V8.41696H2.02423ZM15.526 12.9249V9.91962H12.5225V12.9249H15.526ZM18.5152 18.9214H20.7679C21.1929 18.9214 21.5188 19.2616 21.5188 19.6727C21.5188 20.0838 21.1788 20.424 20.7679 20.424H17.7644C17.3535 20.424 17.0135 20.0838 17.0135 19.6727V16.6674C17.0135 16.2563 17.3535 15.9161 17.7644 15.9161C18.1752 15.9161 18.5152 16.2563 18.5152 16.6674V18.9214Z" fill="#D8D8D8"/>
</svg>
