<svg width="24" height="25" viewBox="0 0 24 25" fill="none" xmlns="http://www.w3.org/2000/svg">
<path fill-rule="evenodd" clip-rule="evenodd" d="M3.00352 3.78144V0.7903C3.00352 0.379195 3.34354 0.0389709 3.7544 0.0389709C4.16526 0.0389709 4.50529 0.379195 4.50529 0.7903V3.79562C4.50529 4.20672 4.16526 4.54694 3.7544 4.54694C3.34354 4.54694 3.00352 4.20672 3.00352 3.78144ZM15.7544 4.53277C16.1653 4.53277 16.5053 4.19254 16.5053 3.78144V0.7903C16.5053 0.379195 16.1653 0.0389709 15.7544 0.0389709C15.3435 0.0389709 15.0035 0.379195 15.0035 0.7903V3.79562C15.0035 4.20672 15.3435 4.53277 15.7544 4.53277ZM18.007 24.039C21.308 24.039 23.9999 21.3597 23.9999 18.0425C23.9999 14.7253 21.308 12.0461 18.007 12.0461C14.7059 12.0461 12.0141 14.7253 12.0141 18.0425C12.0141 21.3455 14.6917 24.039 18.007 24.039ZM22.4983 18.0425C22.4983 15.5617 20.4865 13.5487 18.0072 13.5487C15.5278 13.5487 13.516 15.5617 13.516 18.0425C13.516 20.5233 15.5278 22.5363 18.0072 22.5363C20.4865 22.5363 22.4983 20.5233 22.4983 18.0425ZM3.00352 12.0461V9.04074H6.00706V12.0461H3.00352ZM6.00706 16.5399V13.5345H3.00352V16.5399H6.00706ZM10.5125 12.0461H7.50898V9.04074H10.5125V12.0461ZM7.50898 16.5399H10.5125V13.5345H7.50898V16.5399ZM1.50177 7.53809V17.8866C1.50177 17.9716 1.55844 18.0425 1.62928 18.0283H10.4982V19.531H1.62928C0.72255 19.531 0 18.7938 0 17.8866V4.68871C0 3.78144 0.736718 3.04429 1.62928 3.04429H2.25266V3.79562C2.25266 4.61783 2.9327 5.29827 3.75443 5.29827C4.59032 5.29827 5.2562 4.61783 5.2562 3.79562V3.04429H14.2385V3.79562C14.2385 4.61783 14.9044 5.29827 15.7403 5.29827C16.5762 5.29827 17.242 4.61783 17.242 3.79562V3.04429H17.8654C18.7721 3.04429 19.4947 3.78144 19.4947 4.68871V10.5434H17.9929V7.53809H1.50177ZM15.0035 12.0461V9.04074H12V12.0461H15.0035ZM17.9928 18.0425H20.2454C20.6705 18.0425 20.9963 18.3827 20.9963 18.7938C20.9963 19.205 20.6563 19.5452 20.2454 19.5452H17.2419C16.831 19.5452 16.491 19.205 16.491 18.7938V15.7885C16.491 15.3774 16.831 15.0372 17.2419 15.0372C17.6528 15.0372 17.9928 15.3774 17.9928 15.7885V18.0425Z" fill="#25B3B4"/>
</svg>
