<?xml version="1.0" encoding="utf-8"?>
<!-- Generator: Adobe Illustrator 25.0.1, SVG Export Plug-In . SVG Version: 6.00 Build 0)  -->
<svg version="1.1" id="Capa_1" xmlns="http://www.w3.org/2000/svg" xmlns:xlink="http://www.w3.org/1999/xlink" x="0px" y="0px"
	 viewBox="0 0 361.1 361.1" style="enable-background:new 0 0 361.1 361.1;" xml:space="preserve">
<style type="text/css">
	.st0{fill:#E52525;}
</style>
<g>
	<g>
		<path class="st0" d="M359.6,327.2L191.5,21.8c-2.2-4-6.4-6.5-11-6.5c-4.6,0-8.8,2.5-11,6.5L1.5,327.2c-2.1,3.9-2.1,8.6,0.2,12.4
			c2.2,3.8,6.3,6.1,10.8,6.1h336.1c4.4,0,8.5-2.3,10.8-6.1C361.6,335.8,361.7,331.1,359.6,327.2z M33.6,320.8l146.9-267l146.9,267
			H33.6z"/>
		<path class="st0" d="M164.9,143.1v90.4c0,8.6,7,15.7,15.7,15.7c8.6,0,15.7-7,15.7-15.7v-90.4c0-8.7-7-15.7-15.7-15.7
			C171.9,127.4,164.9,134.4,164.9,143.1z"/>
		<path class="st0" d="M180.6,265.4c-9.1,0-16.5,7.4-16.5,16.5c0,9.1,7.4,16.5,16.5,16.5s16.5-7.4,16.5-16.5
			C197.1,272.8,189.7,265.4,180.6,265.4z"/>
	</g>
</g>
</svg>
