<svg width="24" height="27" viewBox="0 0 24 27" fill="none" xmlns="http://www.w3.org/2000/svg">
<g clip-path="url(#clip0)">
<path d="M11.6531 13.275C11.6625 13.0835 11.6625 12.8916 11.6531 12.7001C11.5935 12.0945 11.7995 11.6758 12.2945 11.2762C14.3896 9.58216 13.8663 5.61531 11.4509 4.64468C9.14886 3.72004 6.90444 5.3154 6.78731 7.97721C6.72496 9.39244 7.13776 10.6093 8.32137 11.4956C8.5358 11.6566 8.68033 12.0217 8.70867 12.3072C8.76723 12.908 8.71717 13.5193 8.72945 14.1277C8.73984 14.6605 8.5018 14.9901 8.01815 15.1865C6.50675 15.8084 4.99536 16.4465 3.48397 17.0808C2.10482 17.6605 1.51632 18.5574 1.5116 20.0761C1.52028 20.3154 1.51618 20.5549 1.49932 20.7938C1.45209 21.2202 1.12147 21.5038 0.726617 21.4645C0.309095 21.4262 0.0738829 21.1818 0.0332642 20.7554C-0.197223 18.2881 0.825802 16.5673 3.08439 15.6177C4.34735 15.0869 5.60559 14.5436 6.87516 14.03C7.15854 13.915 7.22561 13.7627 7.24167 13.4685C7.27379 12.8831 7.12643 12.4567 6.69285 12.0063C4.37286 9.59174 4.94057 4.55174 8.39316 3.21987C11.5388 2.00778 14.8572 4.15122 15.0679 7.55849C15.185 9.44418 14.7184 11.0712 13.3335 12.4231C13.0898 12.6617 13.1758 13.2855 13.1843 13.7301C13.1843 13.846 13.4582 13.9888 13.6301 14.0645C14.4076 14.4066 15.1963 14.7266 15.9775 15.062C16.498 15.2862 16.6633 15.6254 16.4867 16.07C16.2978 16.5318 15.9048 16.6928 15.3985 16.482C14.367 16.0527 13.343 15.6024 12.3096 15.175C11.8373 14.9834 11.6247 14.65 11.6531 14.1364C11.6691 13.8489 11.6531 13.5624 11.6531 13.275Z" fill="#043B5D"/>
<path d="M21.9271 20.4707L12.2803 16.7567M18.9607 13.7903L15.2467 23.4371" stroke="#DD2525" stroke-width="1.5" stroke-linecap="round"/>
</g>
<defs>
<clipPath id="clip0">
<rect width="23.9999" height="24" fill="white" transform="translate(0 2.87888)"/>
</clipPath>
</defs>
</svg>
