<?xml version="1.0" encoding="UTF-8"?>
<svg xmlns="http://www.w3.org/2000/svg" xmlns:xlink="http://www.w3.org/1999/xlink" width="41pt" height="41pt" viewBox="0 0 41 41" version="1.1">
<g id="surface1">
<path style=" stroke:none;fill-rule:nonzero;fill:rgb(100%,100%,100%);fill-opacity:1;" d="M 20.207031 4.53125 C 20.207031 4.53125 12.464844 10.171875 5.90625 9.386719 C 5.90625 9.386719 3.238281 30.203125 20.292969 36.628906 C 20.292969 36.628906 37.570312 30.726562 34.8125 9.253906 C 34.769531 9.210938 30.089844 10.566406 20.207031 4.53125 Z M 20.207031 4.53125 "/>
<path style=" stroke:none;fill-rule:nonzero;fill:rgb(100%,100%,100%);fill-opacity:1;" d="M 19.855469 37.855469 C 15.660156 36.457031 12.246094 33.964844 9.625 30.375 C 7.613281 27.664062 6.167969 24.296875 5.25 20.316406 L 5.25 20.230469 C 5.25 20.230469 5.25 20.1875 5.207031 20.097656 L 5.164062 19.925781 L 5.117188 19.835938 L 5.117188 19.792969 C 5.03125 19.269531 4.769531 17.914062 4.464844 15.683594 L 4.464844 15.59375 C 4.464844 15.550781 4.464844 15.550781 4.464844 15.507812 L 4.417969 15.421875 L 4.417969 15.246094 C 4.375 15.027344 4.375 14.808594 4.375 14.589844 L 4.375 14.371094 C 4.246094 12.535156 4.246094 10.695312 4.332031 9.121094 L 4.332031 9.035156 L 4.464844 7.679688 L 5.773438 7.808594 C 6.257812 7.855469 6.695312 7.898438 7.175781 7.898438 C 9.710938 7.898438 12.335938 7.242188 15.003906 5.972656 C 16.535156 5.230469 18.0625 4.3125 19.332031 3.304688 L 19.375 3.261719 L 20.207031 2.5625 L 21.039062 3.261719 C 21.605469 3.742188 26.898438 7.855469 33.285156 7.855469 C 33.71875 7.855469 34.203125 7.855469 34.640625 7.808594 L 35.949219 7.679688 L 36.082031 8.992188 L 36.082031 9.078125 C 36.214844 10.695312 36.167969 12.535156 36.039062 14.371094 C 36.039062 14.632812 35.996094 14.894531 35.949219 15.113281 C 35.949219 15.203125 35.949219 15.332031 35.90625 15.464844 L 35.90625 15.59375 C 35.730469 17.214844 35.46875 18.523438 35.339844 19.3125 L 35.25 19.707031 L 35.25 19.835938 C 35.207031 20.097656 35.164062 20.273438 35.164062 20.273438 C 34.246094 24.167969 32.800781 27.578125 30.789062 30.332031 C 28.253906 33.917969 24.800781 36.457031 20.601562 37.855469 L 20.292969 37.988281 Z M 7.875 19.792969 C 9.140625 25.304688 12.335938 32.386719 20.292969 35.1875 C 26.722656 32.914062 30.878906 27.710938 32.757812 19.707031 C 32.757812 19.664062 32.800781 19.574219 32.847656 19.445312 L 32.847656 19.355469 C 32.976562 18.789062 33.238281 17.300781 33.457031 15.375 L 33.457031 15.289062 C 33.457031 15.203125 33.457031 15.070312 33.503906 14.9375 C 33.546875 14.71875 33.546875 14.5 33.546875 14.238281 C 33.675781 12.445312 33.675781 11.179688 33.632812 10.476562 L 33.371094 10.476562 C 27.464844 10.476562 22.4375 7.417969 20.292969 5.886719 C 18.152344 7.417969 13.121094 10.476562 7.21875 10.476562 L 6.957031 10.476562 C 6.957031 11.179688 6.957031 12.445312 7.042969 14.195312 L 7.042969 14.414062 C 7.042969 14.5 7.042969 14.546875 7.042969 14.632812 C 7.042969 14.765625 7.085938 14.894531 7.085938 15.027344 L 7.085938 15.15625 C 7.085938 15.203125 7.085938 15.203125 7.085938 15.246094 L 7.128906 15.332031 L 7.128906 15.375 C 7.304688 16.996094 7.523438 18.351562 7.742188 19.355469 L 7.742188 19.398438 L 7.832031 19.398438 L 7.832031 19.792969 Z M 7.875 19.792969 "/>
<path style=" stroke:none;fill-rule:nonzero;fill:rgb(73.72549%,74.509804%,75.294118%);fill-opacity:1;" d="M 20.25 37.503906 L 19.988281 37.417969 C 15.878906 36.0625 12.511719 33.570312 9.972656 30.113281 C 8.003906 27.402344 6.5625 24.078125 5.6875 20.230469 C 5.6875 20.1875 5.644531 20.011719 5.601562 19.792969 L 5.554688 19.707031 C 5.425781 19.09375 5.164062 17.78125 4.945312 15.59375 C 4.945312 15.507812 4.945312 15.421875 4.898438 15.332031 L 4.898438 15.203125 C 4.855469 14.984375 4.855469 14.765625 4.855469 14.589844 L 4.855469 14.371094 C 4.636719 11.265625 4.8125 9.121094 4.8125 9.035156 L 4.898438 8.160156 L 5.773438 8.246094 C 8.792969 8.554688 11.984375 7.898438 15.222656 6.367188 C 17.800781 5.144531 19.507812 3.742188 19.683594 3.613281 L 20.25 3.132812 L 20.820312 3.613281 C 21.476562 4.179688 27.597656 8.949219 34.726562 8.246094 L 35.601562 8.160156 L 35.6875 9.035156 C 35.6875 9.121094 35.90625 11.265625 35.644531 14.371094 C 35.644531 14.632812 35.601562 14.894531 35.558594 15.113281 L 35.558594 15.15625 C 35.558594 15.246094 35.558594 15.332031 35.515625 15.421875 L 35.515625 15.550781 C 35.296875 17.476562 34.988281 18.917969 34.902344 19.664062 L 34.902344 19.75 C 34.859375 20.011719 34.8125 20.1875 34.8125 20.1875 C 33.9375 24.035156 32.496094 27.359375 30.527344 30.113281 C 27.949219 33.613281 24.625 36.0625 20.46875 37.417969 Z M 7.347656 19.53125 C 7.394531 19.707031 7.394531 19.792969 7.4375 19.792969 L 7.4375 19.835938 C 8.75 25.480469 11.984375 32.78125 20.292969 35.667969 C 26.941406 33.351562 31.273438 28.015625 33.152344 19.835938 C 33.152344 19.835938 33.195312 19.707031 33.238281 19.53125 L 33.238281 19.488281 C 33.371094 18.917969 33.632812 17.476562 33.851562 15.421875 L 33.851562 15.289062 C 33.851562 15.203125 33.851562 15.113281 33.894531 15.027344 L 33.894531 14.984375 C 33.9375 14.71875 33.9375 14.457031 33.9375 14.238281 C 34.070312 12.402344 34.070312 10.914062 34.027344 10.039062 C 33.808594 10.039062 33.589844 10.039062 33.371094 10.039062 C 27.203125 10.039062 22 6.628906 20.292969 5.363281 C 18.546875 6.628906 13.429688 10.039062 7.21875 10.039062 C 7 10.039062 6.738281 10.039062 6.5625 10.039062 C 6.519531 10.914062 6.519531 12.402344 6.648438 14.238281 L 6.648438 14.414062 C 6.648438 14.589844 6.695312 14.808594 6.695312 15.027344 L 6.695312 15.15625 C 6.695312 15.246094 6.695312 15.332031 6.738281 15.421875 C 7 17.652344 7.261719 18.875 7.347656 19.445312 Z M 7.347656 19.53125 "/>
<path style=" stroke:none;fill-rule:nonzero;fill:rgb(73.72549%,74.509804%,75.294118%);fill-opacity:1;" d="M 13.066406 14.503906 C 13.066406 13.609375 13.355469 12.703125 13.933594 11.785156 C 14.507812 10.859375 15.347656 10.09375 16.453125 9.492188 C 17.558594 8.886719 18.847656 8.582031 20.320312 8.582031 C 21.691406 8.582031 22.898438 8.839844 23.949219 9.347656 C 24.996094 9.847656 25.804688 10.535156 26.371094 11.402344 C 26.945312 12.273438 27.234375 13.214844 27.234375 14.238281 C 27.234375 15.039062 27.070312 15.742188 26.738281 16.347656 C 26.417969 16.953125 26.03125 17.476562 25.578125 17.921875 C 25.132812 18.355469 24.332031 19.089844 23.167969 20.128906 C 22.847656 20.421875 22.589844 20.683594 22.390625 20.910156 C 22.199219 21.125 22.058594 21.328125 21.964844 21.519531 C 21.871094 21.699219 21.792969 21.882812 21.738281 22.070312 C 21.691406 22.25 21.613281 22.570312 21.511719 23.035156 C 21.332031 24.015625 20.769531 24.507812 19.824219 24.507812 C 19.335938 24.507812 18.917969 24.347656 18.578125 24.027344 C 18.25 23.707031 18.082031 23.226562 18.082031 22.59375 C 18.082031 21.800781 18.207031 21.117188 18.453125 20.542969 C 18.695312 19.957031 19.023438 19.445312 19.429688 19.011719 C 19.835938 18.566406 20.382812 18.042969 21.070312 17.4375 C 21.675781 16.910156 22.109375 16.511719 22.375 16.25 C 22.648438 15.972656 22.875 15.671875 23.054688 15.339844 C 23.246094 15.011719 23.339844 14.652344 23.339844 14.265625 C 23.339844 13.507812 23.054688 12.871094 22.488281 12.351562 C 21.929688 11.832031 21.210938 11.574219 20.320312 11.574219 C 19.28125 11.574219 18.515625 11.835938 18.027344 12.367188 C 17.535156 12.886719 17.121094 13.65625 16.78125 14.675781 C 16.457031 15.742188 15.847656 16.277344 14.953125 16.277344 C 14.421875 16.277344 13.972656 16.09375 13.605469 15.722656 C 13.246094 15.347656 13.066406 14.941406 13.066406 14.503906 Z M 19.980469 30.035156 C 19.40625 30.035156 18.898438 29.847656 18.464844 29.480469 C 18.039062 29.101562 17.828125 28.578125 17.828125 27.910156 C 17.828125 27.3125 18.035156 26.8125 18.453125 26.40625 C 18.867188 26 19.375 25.796875 19.980469 25.796875 C 20.578125 25.796875 21.078125 26 21.484375 26.40625 C 21.890625 26.8125 22.09375 27.3125 22.09375 27.910156 C 22.09375 28.570312 21.878906 29.089844 21.453125 29.46875 C 21.03125 29.84375 20.539062 30.035156 19.980469 30.035156 Z M 19.980469 30.035156 "/>
</g>
</svg>