<?xml version="1.0" encoding="utf-8"?>
<!-- Generator: Adobe Illustrator 25.0.1, SVG Export Plug-In . SVG Version: 6.00 Build 0)  -->
<svg version="1.1" id="Capa_1" xmlns="http://www.w3.org/2000/svg" xmlns:xlink="http://www.w3.org/1999/xlink" x="0px" y="0px"
	 viewBox="0 0 480 480" style="enable-background:new 0 0 480 480;" xml:space="preserve">
<style type="text/css">
	.st0{fill:#00A0D8;}
	.st1{fill:#231F20;}
</style>
<g>
	<g>
		<g>
			<path class="st0" d="M221.6,80.8L113.4,189c-1.1,1-1.7,2.5-1.7,3.9l-4.3,246.6c-0.1,3.1,2.5,5.7,5.6,5.8c0,0,0.1,0,0.1,0l225,0
				c1.5,0,3-0.6,4-1.7l0,0c1.1-1.1,1.7-2.6,1.6-4.1l-4.3-246.7c0-1.5-0.6-2.9-1.7-3.9L229.7,80.8C227.5,78.6,223.8,78.6,221.6,80.8z
				 M328.2,195.4l4.2,238.6H118.9l4.2-238.6L225.7,92.9L328.2,195.4z"/>
			<path class="st0" d="M242.7,162.4c9.4-9.4,9.4-24.6,0-34s-24.6-9.4-34,0c-9.4,9.4-9.4,24.6,0,34c0,0,0,0,0,0
				C218,171.8,233.3,171.8,242.7,162.4z M216.7,154.4c-4.9-5-4.9-12.9,0-17.9l0,0c4.9-4.9,13-5,17.9,0c4.9,4.9,5,13,0,17.9
				C229.7,159.3,221.7,159.3,216.7,154.4C216.7,154.4,216.7,154.4,216.7,154.4z"/>
			<rect x="130.4" y="226.2" class="st0" width="17.3" height="11.4"/>
			<rect x="165.1" y="226.2" class="st0" width="17.3" height="11.4"/>
			<rect x="199.7" y="226.3" class="st0" width="17.3" height="11.4"/>
			<rect x="234.3" y="226.3" class="st0" width="17.3" height="11.4"/>
			<rect x="268.9" y="226.2" class="st0" width="17.3" height="11.4"/>
			<rect x="303.6" y="226.3" class="st0" width="17.3" height="11.4"/>
		</g>
		<rect x="139.1" y="266.7" class="st1" width="4.2" height="145.2"/>
		<rect x="151.9" y="266.7" class="st1" width="4.2" height="145.2"/>
		<rect x="180" y="266.7" class="st1" width="4.2" height="145.2"/>
		<rect x="164.7" y="266.7" class="st1" width="6.8" height="145.2"/>
		<rect x="191.6" y="266.7" class="st1" width="11.7" height="145.2"/>
		<rect x="210.2" y="266.7" class="st1" width="4.2" height="145.2"/>
		<rect x="223" y="266.7" class="st1" width="4.2" height="145.2"/>
		<rect x="251.1" y="266.7" class="st1" width="4.2" height="145.2"/>
		<rect x="235.8" y="266.7" class="st1" width="6.8" height="145.2"/>
		<rect x="262.7" y="266.7" class="st1" width="11.7" height="145.2"/>
		<rect x="279.8" y="266.7" class="st1" width="4.2" height="145.2"/>
		<rect x="292.6" y="266.7" class="st1" width="4.2" height="145.2"/>
		<rect x="305.4" y="266.7" class="st1" width="6.8" height="145.2"/>
	</g>
</g>
</svg>
