<svg width="32" height="32" viewBox="0 0 32 32" fill="none" xmlns="http://www.w3.org/2000/svg">
<path d="M5.28012 16.0161C5.28012 10.8001 8.92812 6.4321 13.8241 5.3441V6.6241L17.7281 4.5601L13.8241 2.5121V3.8081C8.09612 4.9281 3.77612 9.9681 3.77612 16.0161C3.77612 22.0961 8.14412 27.1521 13.9041 28.2401V26.7041C8.97612 25.6481 5.28012 21.2641 5.28012 16.0161Z" fill="#9066C5" stroke="#9066C5" stroke-width="0.4" stroke-miterlimit="10"/>
<path d="M28.672 16.0161C28.672 9.93608 24.304 4.88008 18.544 3.79208V5.32808C23.472 6.40008 27.168 10.7681 27.168 16.0161C27.168 21.2001 23.552 25.5521 18.704 26.6721V25.3601L14.8 27.4241L18.704 29.4881V28.2081C24.384 27.0721 28.672 22.0481 28.672 16.0161Z" fill="#9066C5" stroke="#9066C5" stroke-width="0.4" stroke-miterlimit="10"/>
<path d="M13.5679 20.8801C13.6799 20.3681 13.9839 19.8721 14.4799 19.4081L15.1679 18.7681C15.5999 18.3521 15.8559 18.0801 15.9519 17.9361C16.0319 17.7921 16.1279 17.4721 16.2399 16.9761C16.3519 17.4721 16.4479 17.7921 16.5279 17.9361C16.6079 18.0801 16.8639 18.3521 17.2959 18.7681L17.9839 19.4081C18.4799 19.8721 18.7679 20.3681 18.8959 20.8801H13.5679ZM14.8159 13.8561L15.4719 14.5601C15.7599 14.8801 15.9359 15.0881 15.9999 15.2161C16.0639 15.3441 16.1119 15.5681 16.1599 15.9041C16.1759 16.0001 16.1919 16.1601 16.2239 16.3681C16.2559 16.1601 16.2879 16.0001 16.2879 15.9041C16.3359 15.5681 16.3839 15.3281 16.4479 15.2161C16.5119 15.0881 16.6879 14.8801 16.9759 14.5601L17.6159 13.8561C18.0639 13.3761 18.1439 13.1521 18.3199 12.9921C17.2159 13.9361 15.3279 13.9841 14.0799 13.0241C14.2879 13.1681 14.3679 13.3761 14.8159 13.8561ZM20.2879 21.8241C20.2879 21.4561 20.0799 21.1521 19.8399 21.1521H12.6079C12.3519 21.1521 12.1599 21.4561 12.1599 21.8241C12.1599 22.1921 12.3679 22.4961 12.6079 22.4961H19.8399C20.0799 22.4961 20.2879 22.1921 20.2879 21.8241ZM12.7679 20.8801C12.7679 20.8481 12.7679 20.8161 12.7679 20.7841V20.1921C12.7679 19.6961 12.8319 19.2961 12.9599 18.9921C13.0879 18.7041 13.3439 18.3361 13.7439 17.9201L14.7679 16.8481C15.0879 16.4961 15.2639 16.2721 15.2639 16.1761C15.2639 16.0641 15.0559 15.8081 14.6559 15.3921L13.6319 14.3361C13.2799 13.9841 13.0559 13.6641 12.9279 13.3601C12.8159 13.0561 12.7519 12.6401 12.7519 12.1121V11.4721C12.7519 11.4241 12.7519 11.3761 12.7679 11.3281H13.4079C13.3599 11.3921 13.3599 12.1121 13.3599 12.1121C13.3599 12.6721 13.4399 12.9761 13.4879 13.1361C13.5519 13.2801 13.6959 13.5361 14.0479 13.9041L15.0719 14.9601C15.6639 15.5521 15.8559 15.8401 15.8559 16.1761C15.8559 16.4801 15.6959 16.7521 15.1999 17.2801L14.1759 18.3521C13.7439 18.8161 13.5679 19.1041 13.5039 19.2481C13.4399 19.3921 13.3599 19.6801 13.3599 20.1921C13.3599 20.1921 13.3599 20.8481 13.3759 20.8801H12.7679ZM17.2319 17.2641C16.7519 16.7361 16.5919 16.4641 16.5919 16.1761C16.5919 15.8561 16.7839 15.5521 17.3599 14.9761L18.3839 13.9201C18.7359 13.5521 18.8799 13.2961 18.9439 13.1521C19.0079 12.9921 19.0719 12.6881 19.0719 12.1281C19.0719 12.1281 19.0719 11.4081 19.0239 11.3441H19.6639C19.6639 11.3921 19.6799 11.4401 19.6799 11.4881V12.1281C19.6799 12.6561 19.6159 13.0721 19.5039 13.3761C19.3919 13.6801 19.1519 14.0001 18.7999 14.3521L17.7759 15.4081C17.3759 15.8081 17.1839 16.0641 17.1839 16.1921C17.1839 16.2881 17.3439 16.5281 17.6639 16.8641L18.6879 17.9361C19.0879 18.3681 19.3439 18.7201 19.4719 19.0081C19.5999 19.2961 19.6639 19.6961 19.6639 20.2081V20.8001C19.6639 20.8321 19.6639 20.8641 19.6639 20.8961H19.0399C19.0559 20.8641 19.0559 20.2081 19.0559 20.2081C19.0559 19.6961 18.9759 19.4081 18.9119 19.2641C18.8479 19.1041 18.6719 18.8321 18.2399 18.3681L17.2319 17.2641ZM20.2879 10.4481C20.2879 10.8161 20.0799 11.1201 19.8399 11.1201H12.6079C12.3519 11.1201 12.1599 10.8161 12.1599 10.4481C12.1599 10.0801 12.3679 9.77614 12.6079 9.77614H19.8399C20.0799 9.77614 20.2879 10.0801 20.2879 10.4481Z" fill="#9066C5"/>
</svg>
