<svg width="144" height="133" viewBox="0 0 144 133" fill="none" xmlns="http://www.w3.org/2000/svg">
<path d="M6.92564 120.8L72 8.00445L137.074 120.8H6.92564Z" fill="white" stroke="#DD2525" stroke-width="8"/>
<path d="M62.336 41.8H76.544L74.144 86.728H64.64L62.336 41.8ZM69.44 109.672C67.2 109.672 65.344 108.968 63.872 107.56C62.4 106.088 61.664 104.296 61.664 102.184C61.664 100.072 62.4 98.312 63.872 96.904C65.344 95.496 67.2 94.792 69.44 94.792C71.616 94.792 73.408 95.496 74.816 96.904C76.288 98.312 77.024 100.072 77.024 102.184C77.024 104.296 76.288 106.088 74.816 107.56C73.408 108.968 71.616 109.672 69.44 109.672Z" fill="#DD2525"/>
</svg>
