<svg width="194" height="156" viewBox="0 0 194 156" fill="none" xmlns="http://www.w3.org/2000/svg">
<path d="M48.0654 20.4907L137.737 33.8696L140.299 55.3032L52.3355 48.7502L48.0654 20.4907Z" fill="#3ECCCD"/>
<path d="M27.9963 133.392C28.5657 133.802 29.135 134.075 29.8467 134.075C29.989 134.075 30.2737 134.075 30.416 133.938L42.5145 131.208L57.1751 127.932C58.5984 127.658 59.4524 126.43 59.3101 125.065L47.9233 20.4908C47.781 19.1256 46.6423 18.1699 45.2189 18.1699C43.7956 18.1699 42.6569 19.1256 42.3722 20.4908L42.2299 21.7194L27 131.071C27 131.891 27.2847 132.71 27.9963 133.392Z" fill="#DEEAFB"/>
<path d="M30.843 133.392C31.4124 133.802 31.9817 134.075 32.6934 134.075C32.8357 134.075 33.1204 134.075 33.2627 133.938L45.3612 131.208L60.0218 127.932C61.4451 127.658 62.2991 126.43 62.1568 125.065L50.77 20.4908C50.6276 19.1256 49.4889 18.1699 48.0656 18.1699C46.6422 18.1699 45.5036 19.1256 45.2189 20.4908L45.0766 21.7194L29.8467 131.071C29.8467 131.891 30.1314 132.71 30.843 133.392Z" fill="#236D9D"/>
<path fill-rule="evenodd" clip-rule="evenodd" d="M143.858 54.0745L152.825 125.474C152.967 126.703 152.255 127.932 150.69 128.478H150.547L62.1571 148H61.5878C61.0185 148 60.4491 147.727 60.0221 147.454C59.4528 147.044 59.0258 146.362 58.8834 145.543L57.0331 128.614L48.2083 46.9755V46.839V46.4294L45.5039 20.9003V20.2177V20.0812V19.9447V19.8082V19.6716V19.5351V19.3986V19.2621V19.1256C45.6462 19.1256 45.6462 18.989 45.6462 18.989C45.7886 18.989 45.7886 18.8525 45.7886 18.8525L45.9309 18.716L46.0732 18.5795L46.2156 18.443L46.3579 18.3064C46.3579 18.1699 46.5003 18.1699 46.5003 18.1699H46.6426H46.7849H46.9273H47.0696H47.2119H47.3543H47.4966H47.6389H48.2083H48.3506H48.4929H48.6353L55.752 19.2621L61.1608 20.0812L70.2702 21.4464L76.106 22.2655L89.6278 24.1768L95.4636 24.9959L101.015 25.815L108.131 26.9072L114.11 27.7263L119.661 28.5454L125.923 29.501L131.759 30.3201L139.018 31.4123C140.157 31.5488 141.153 32.5045 141.296 33.7331L143.858 54.0745ZM51.1974 23.9039L53.4748 44.3818L137.88 51.4809L136.029 36.3272L132.044 35.7811L126.493 34.962L114.252 33.1873L108.701 32.3681L95.7483 30.4569L90.1972 29.6378L76.3907 27.59L70.8397 26.7708L51.1974 23.9039Z" fill="#2980B9"/>
<path d="M51.0547 46.8391C51.0547 46.8391 124.073 55.5764 150.12 125.474L61.7298 145.27L51.0547 46.8391Z" fill="#3598DA"/>
<path d="M45.2188 21.583L45.5034 131.208L57.0326 128.751L45.2188 21.583Z" fill="#3ECCCD"/>
<path d="M113.967 27.59C113.967 27.59 113.967 27.7266 113.967 27.59L119.66 28.5457C119.518 26.7709 119.66 25.1327 119.945 23.7675C119.945 23.631 119.945 23.631 119.945 23.4945V23.3579C119.945 23.2214 120.087 23.0849 120.087 22.9484C120.087 22.9484 120.087 22.9484 120.087 22.8119C120.087 22.6753 120.23 22.5388 120.23 22.5388C120.23 22.5388 120.23 22.5388 120.23 22.4023C120.23 22.4023 120.23 22.4023 120.23 22.2658C120.514 21.8562 121.084 21.5832 121.511 21.8562C121.938 22.2658 122.65 22.9484 123.219 23.904C123.931 24.9962 124.5 26.2248 124.927 27.7266C125.069 28.2726 125.212 28.8187 125.354 29.2283C125.496 29.9109 125.639 30.457 125.781 31.1395C125.923 32.3682 126.066 33.5969 126.066 34.6891C126.066 35.5082 125.923 36.3273 125.781 37.1464C125.496 38.5116 124.927 39.0577 124.785 39.1942C123.219 39.0577 121.938 40.1498 121.796 41.515C121.653 43.0167 122.792 44.2454 124.215 44.3819C124.358 44.3819 124.642 44.3819 124.785 44.3819C126.35 44.3819 127.774 43.8358 128.912 42.6072C130.478 41.1055 131.332 38.5116 131.617 35.5082C131.759 33.8699 131.617 32.0952 131.332 30.3204C131.332 30.1839 131.332 30.1839 131.332 30.0474C130.193 23.631 126.493 16.6685 121.368 15.9859C119.66 15.7129 117.952 16.2589 116.671 17.4876C114.963 19.6719 113.825 23.3579 113.967 27.59Z" fill="#34495E"/>
<path d="M113.967 27.7265C113.967 24.3135 115.532 21.4466 117.952 20.9005C119.091 20.6275 120.23 20.9005 121.368 21.5831C121.511 21.7196 121.938 21.9927 121.938 21.9927C121.511 21.5831 120.799 21.7196 120.514 22.2657C120.372 22.5388 120.087 23.0848 119.945 23.6309C119.518 24.9961 119.518 26.6343 119.66 28.4091L113.967 27.7265Z" fill="#2D3E50"/>
<path d="M95.4648 24.996L101.016 25.8152C100.874 22.1291 101.87 19.8083 102.582 19.1257C102.866 18.9892 102.866 18.9892 103.009 18.9892C103.436 19.1257 104.147 19.5353 104.859 20.3544C106.282 21.9926 107.99 24.996 108.56 29.2281C109.129 33.4602 108.275 36.3272 107.279 37.4193C106.994 37.6923 106.852 37.6924 106.852 37.6924C105.286 37.5558 104.005 38.648 103.863 40.0132C103.72 41.5149 104.859 42.7436 106.282 42.8801C106.425 42.8801 106.709 42.8801 106.852 42.8801C108.417 42.8801 109.983 42.1975 111.264 41.1053C113.826 38.648 114.822 34.0063 114.111 28.5456C113.684 25.1326 112.403 21.7196 110.695 18.9892C108.702 15.8492 106.425 14.0745 103.863 13.6649C102.012 13.3919 100.162 13.938 98.7386 15.3032C97.4575 16.5318 96.4612 18.4431 95.8918 20.7639C95.6072 22.1291 95.4648 23.4943 95.4648 24.996Z" fill="#34495E"/>
<path d="M101.014 25.8157C100.872 22.1296 101.868 19.8088 102.58 19.1262C102.865 18.9897 102.865 18.9897 103.007 18.9897C103.434 19.1262 104.146 19.5358 104.857 20.3549C103.434 18.5801 101.441 17.761 99.5911 18.1706C97.029 18.7167 95.321 21.5836 95.4633 25.1331L101.014 25.8157Z" fill="#2D3E50"/>
<path d="M81.6561 23.0847C81.6561 19.8082 82.5101 17.4874 83.5064 16.6683C83.9334 16.2587 84.2181 16.2587 84.3604 16.3952C84.7874 16.3952 85.0721 16.6683 85.4991 16.9413C86.0684 17.3509 86.6378 18.0335 87.2071 18.8526C87.7765 19.6717 88.3458 20.7639 88.7728 21.856C89.3422 23.3577 89.7692 24.996 90.0538 26.9072C90.4808 31.1393 89.4845 34.2793 88.4881 35.3714C88.0611 35.781 87.7765 35.781 87.6341 35.781C86.0684 35.6445 84.7874 36.7366 84.6451 38.1018C84.5028 39.6035 85.6414 40.8322 87.0648 40.9687C87.3495 40.9687 87.4918 40.9687 87.7765 40.9687C89.4845 40.9687 91.1925 40.2861 92.4735 39.0575C95.1779 36.4636 96.3166 31.6854 95.7472 26.2246C95.3202 22.6751 94.1816 19.1256 92.4735 16.3952C90.4808 13.2553 87.9188 11.344 85.3568 10.9345C83.3641 10.6614 81.3714 11.2075 79.8057 12.5727C78.5247 13.6649 77.6707 15.3031 77.1013 17.2144C76.6743 18.7161 76.3896 20.3543 76.3896 22.1291L81.6561 23.0847Z" fill="#34495E"/>
<path d="M81.6565 23.0847C81.6565 19.8082 82.5105 17.4874 83.5069 16.6683C83.9339 16.2587 84.2186 16.2587 84.3609 16.3953C84.7879 16.3953 85.0726 16.6683 85.4996 16.9413C83.6492 15.3031 81.3719 14.6205 79.3792 15.1666C78.9522 15.3031 78.5252 15.5761 78.2405 15.7127C77.3865 16.2587 76.8171 17.2144 76.6748 18.17C76.3901 19.3987 76.2478 20.7639 76.1055 22.1291L81.6565 23.0847Z" fill="#2D3E50"/>
<path d="M55.752 19.2622L61.303 20.0813C61.4454 16.8049 62.584 14.6206 63.5804 13.8015C64.1497 13.3919 64.5767 13.3919 64.8614 13.3919C65.2884 13.3919 65.7154 13.6649 66.1424 14.0745C68.1351 15.5762 70.4125 19.3987 70.8395 24.5865C71.2665 28.9551 70.1278 32.0951 68.8468 33.3237C68.2775 33.8698 67.8505 33.8698 67.5658 33.8698C66.0001 33.7333 64.7191 34.8254 64.5767 36.1906C64.4344 37.6923 65.5731 38.921 66.9964 39.0575C67.2811 39.0575 67.4234 39.0575 67.7081 39.0575C69.5585 39.0575 71.4088 38.3749 72.8322 37.0097C75.6789 34.4159 76.9599 29.5012 76.5329 24.0404C76.2482 20.3544 74.9672 16.6684 73.2592 13.8015C71.2665 10.525 68.5621 8.4772 65.7154 8.06764C63.5804 7.7946 61.5877 8.34068 59.8797 9.84239C59.0257 10.6615 58.1717 11.6171 57.6023 12.8458C57.3176 13.5284 56.8906 14.211 56.7483 15.0301C56.179 16.2588 55.8943 17.7605 55.752 19.2622Z" fill="#34495E"/>
<path d="M55.752 19.2622L61.303 20.0814C61.4454 16.8049 62.584 14.6206 63.5804 13.8015C64.1497 13.3919 64.5767 13.3919 64.8614 13.3919C65.2884 13.3919 65.7154 13.665 66.1424 14.0745C64.0074 12.0267 61.5877 11.0711 59.3103 11.7537C58.1717 12.1632 57.46 12.9824 57.033 13.938C56.8906 14.3476 56.7483 14.7571 56.606 15.0301C56.179 16.2588 55.8943 17.7605 55.752 19.2622Z" fill="#2D3E50"/>
<path d="M73.4189 78.6475L100.07 105.11L154.251 51.3103" stroke="#25DD83" stroke-width="24.0574"/>
</svg>
