<svg width="194" height="156" viewBox="0 0 194 156" fill="none" xmlns="http://www.w3.org/2000/svg">
<g opacity="0.8">
<path d="M69.7733 71.4222L70.6972 57.8403H61.1499L59.0967 71.4222H69.7733Z" fill="white"/>
<path d="M58.4804 75.7112L53.5527 108.696H67.4118L69.5676 75.7112H58.4804Z" fill="white"/>
<path d="M81.6812 71.4222L81.2706 57.8403H71.9286L71.21 71.4222H81.6812Z" fill="white"/>
<path d="M71.0049 75.7112L69.3623 108.696H82.8107L81.7841 75.7112H71.0049Z" fill="white"/>
</g>
<circle cx="97" cy="78" r="70" fill="#3ECCCD" stroke="#3ECCCD" stroke-width="1.7654"/>
<path d="M96.9997 146.672C59.1894 146.672 28.3281 115.913 28.3281 78.0001C28.3281 40.0877 59.0873 9.32861 96.9997 9.32861C134.912 9.32861 165.671 40.1899 165.671 78.0001C165.671 115.81 134.912 146.672 96.9997 146.672Z" fill="white"/>
<path d="M96.9999 144.015C60.6204 144.015 30.9854 114.38 30.9854 77.9999C30.9854 41.6204 60.6204 11.9854 96.9999 11.9854C133.38 11.9854 163.015 41.6204 163.015 77.9999C163.015 114.38 133.38 144.015 96.9999 144.015Z" fill="#37CED1"/>
<rect x="37.1416" y="18.9382" width="119.439" height="119.129" fill="white"/>
<rect x="37.2295" y="53.8979" width="119.95" height="24.0925" fill="#FECB22"/>
<rect x="37.1416" y="18.9382" width="119.439" height="119.129" stroke="#0B577C" stroke-width="1.5488"/>
<path d="M67.2568 34.5212L131.791 44.5683L133.634 60.6641L70.3299 55.7431L67.2568 34.5212Z" fill="#3ECCCD"/>
<path d="M52.8137 119.306C53.2235 119.614 53.6332 119.819 54.1454 119.819C54.2478 119.819 54.4527 119.819 54.5551 119.716L63.262 117.666L73.8128 115.206C74.8371 115 75.4517 114.078 75.3493 113.053L67.1545 34.5214C67.0521 33.4962 66.2326 32.7786 65.2083 32.7786C64.1839 32.7786 63.3645 33.4962 63.1596 34.5214L63.0572 35.4441L52.0967 117.563C52.0967 118.179 52.3015 118.794 52.8137 119.306Z" fill="#DEEAFB"/>
<path d="M54.8625 119.306C55.2723 119.614 55.682 119.819 56.1942 119.819C56.2966 119.819 56.5015 119.819 56.6039 119.716L65.3109 117.666L75.8616 115.206C76.886 115 77.5006 114.078 77.3981 113.053L69.2034 34.5214C69.1009 33.4962 68.2815 32.7786 67.2571 32.7786C66.2328 32.7786 65.4133 33.4962 65.2084 34.5214L65.106 35.4441L54.1455 117.563C54.1455 118.179 54.3504 118.794 54.8625 119.306Z" fill="#236D9D"/>
<path fill-rule="evenodd" clip-rule="evenodd" d="M136.195 59.7416L142.649 113.36C142.751 114.283 142.239 115.206 141.112 115.616H141.01L77.3979 130.276H76.9882C76.5784 130.276 76.1687 130.071 75.8614 129.866C75.4517 129.558 75.1444 129.046 75.0419 128.431L73.7103 115.718L67.3593 54.4105V54.308V54.0004L65.4131 34.829V34.3164V34.2139V34.1113V34.0088V33.9063V33.8038V33.7013V33.5987V33.4962C65.5155 33.4962 65.5155 33.3937 65.5155 33.3937C65.618 33.3937 65.618 33.2912 65.618 33.2912L65.7204 33.1886L65.8228 33.0861L65.9253 32.9836L66.0277 32.8811C66.0277 32.7786 66.1301 32.7786 66.1301 32.7786H66.2326H66.335H66.4374H66.5399H66.6423H66.7447H66.8472H66.9496H67.3593H67.4618H67.5642H67.6666L72.7884 33.5987L76.6809 34.2139L83.2367 35.2391L87.4365 35.8542L97.1678 37.2895L101.368 37.9046L105.363 38.5197L110.484 39.3399L114.787 39.955L118.781 40.5702L123.289 41.2878L127.488 41.9029L132.713 42.7231C133.532 42.8256 134.249 43.5433 134.351 44.466L136.195 59.7416ZM69.5104 37.0844L71.1494 52.4626L131.893 57.7937L130.561 46.4138L127.693 46.0037L123.698 45.3886L114.889 44.0558L110.894 43.4407L101.572 42.0054L97.5775 41.3903L87.6413 39.8525L83.6464 39.2373L69.5104 37.0844Z" fill="#2980B9"/>
<path d="M69.4082 54.3079C69.4082 54.3079 121.957 60.8692 140.703 113.36L77.0908 128.226L69.4082 54.3079Z" fill="#3598DA"/>
<path d="M65.208 35.3416L65.4129 117.666L73.7101 115.821L65.208 35.3416Z" fill="#3ECCCD"/>
<path d="M114.683 39.8525C114.683 39.8525 114.683 39.955 114.683 39.8525L118.781 40.5701C118.678 39.2373 118.781 38.0071 118.986 36.9819C118.986 36.8794 118.986 36.8794 118.986 36.7768V36.6743C118.986 36.5718 119.088 36.4693 119.088 36.3667C119.088 36.3667 119.088 36.3667 119.088 36.2642C119.088 36.1617 119.191 36.0592 119.191 36.0592C119.191 36.0592 119.191 36.0592 119.191 35.9567C119.191 35.9567 119.191 35.9567 119.191 35.8541C119.395 35.5466 119.805 35.3415 120.112 35.5466C120.42 35.8541 120.932 36.3667 121.342 37.0844C121.854 37.9046 122.264 38.8273 122.571 39.955C122.673 40.3651 122.776 40.7752 122.878 41.0827C122.981 41.5953 123.083 42.0054 123.185 42.518C123.288 43.4407 123.39 44.3634 123.39 45.1836C123.39 45.7987 123.288 46.4138 123.185 47.0289C122.981 48.0541 122.571 48.4642 122.468 48.5668C121.342 48.4642 120.42 49.2844 120.317 50.3096C120.215 51.4373 121.034 52.36 122.059 52.4626C122.161 52.4626 122.366 52.4626 122.468 52.4626C123.595 52.4626 124.62 52.0525 125.439 51.1298C126.566 50.0021 127.18 48.0541 127.385 45.7987C127.488 44.5684 127.385 43.2357 127.18 41.9029C127.18 41.8004 127.18 41.8004 127.18 41.6978C126.361 36.8794 123.698 31.6508 120.01 31.1382C118.781 30.9331 117.552 31.3432 116.63 32.2659C115.4 33.9062 114.581 36.6743 114.683 39.8525Z" fill="#34495E"/>
<path d="M114.684 39.9551C114.684 37.3921 115.81 35.2391 117.552 34.8291C118.371 34.624 119.191 34.8291 120.01 35.3417C120.113 35.4442 120.42 35.6492 120.42 35.6492C120.113 35.3417 119.6 35.4442 119.396 35.8543C119.293 36.0593 119.088 36.4694 118.986 36.8795C118.679 37.9047 118.679 39.1349 118.781 40.4677L114.684 39.9551Z" fill="#2D3E50"/>
<path d="M101.369 37.9045L105.364 38.5196C105.262 35.7516 105.979 34.0087 106.491 33.4961C106.696 33.3936 106.696 33.3936 106.798 33.3936C107.105 33.4961 107.618 33.8037 108.13 34.4188C109.154 35.649 110.383 37.9045 110.793 41.0827C111.203 44.2608 110.588 46.4138 109.871 47.2339C109.666 47.439 109.564 47.439 109.564 47.439C108.437 47.3364 107.515 48.1566 107.413 49.1818C107.31 50.3096 108.13 51.2322 109.154 51.3348C109.257 51.3348 109.461 51.3348 109.564 51.3348C110.691 51.3348 111.817 50.8222 112.739 50.002C114.583 48.1566 115.3 44.6709 114.788 40.5701C114.481 38.007 113.559 35.444 112.33 33.3936C110.896 31.0356 109.257 29.7028 107.413 29.3953C106.081 29.1902 104.749 29.6003 103.725 30.6255C102.803 31.5482 102.086 32.9835 101.676 34.7264C101.472 35.7516 101.369 36.7768 101.369 37.9045Z" fill="#34495E"/>
<path d="M105.362 38.5197C105.26 35.7517 105.977 34.0088 106.489 33.4962C106.694 33.3937 106.694 33.3937 106.796 33.3937C107.104 33.4962 107.616 33.8038 108.128 34.4189C107.104 33.0861 105.67 32.471 104.338 32.7786C102.494 33.1886 101.265 35.3416 101.367 38.0071L105.362 38.5197Z" fill="#2D3E50"/>
<path d="M91.4317 36.4693C91.4317 34.0088 92.0463 32.266 92.7633 31.6508C93.0706 31.3433 93.2755 31.3433 93.3779 31.4458C93.6852 31.4458 93.8901 31.6508 94.1974 31.8559C94.6071 32.1635 95.0169 32.6761 95.4266 33.2912C95.8364 33.9063 96.2461 34.7265 96.5534 35.5466C96.9631 36.6744 97.2704 37.9046 97.4753 39.3399C97.7826 42.5181 97.0656 44.8761 96.3485 45.6962C96.0412 46.0038 95.8364 46.0038 95.7339 46.0038C94.6071 45.9013 93.6852 46.7214 93.5828 47.7467C93.4804 48.8744 94.2998 49.7971 95.3242 49.8996C95.5291 49.8996 95.6315 49.8996 95.8364 49.8996C97.0656 49.8996 98.2948 49.387 99.2167 48.4643C101.163 46.5164 101.982 42.9282 101.573 38.8273C101.265 36.1618 100.446 33.4962 99.2167 31.4458C97.7826 29.0878 95.9388 27.6525 94.095 27.345C92.6609 27.1399 91.2268 27.55 90.1 28.5752C89.1781 29.3954 88.5635 30.6256 88.1538 32.0609C87.8465 33.1887 87.6416 34.4189 87.6416 35.7517L91.4317 36.4693Z" fill="#34495E"/>
<path d="M91.4315 36.4693C91.4315 34.0088 92.0461 32.2659 92.7631 31.6508C93.0704 31.3432 93.2753 31.3432 93.3777 31.4458C93.685 31.4458 93.8899 31.6508 94.1972 31.8558C92.8656 30.6256 91.2266 30.113 89.7925 30.5231C89.4852 30.6256 89.1779 30.8306 88.973 30.9332C88.3584 31.3432 87.9487 32.0609 87.8463 32.7785C87.6414 33.7012 87.539 34.7264 87.4365 35.7516L91.4315 36.4693Z" fill="#2D3E50"/>
<path d="M72.7881 33.5986L76.783 34.2138C76.8855 31.7533 77.7049 30.1129 78.422 29.4978C78.8317 29.1902 79.139 29.1902 79.3439 29.1902C79.6512 29.1902 79.9585 29.3953 80.2658 29.7028C81.6999 30.8306 83.3388 33.7012 83.6461 37.597C83.9534 40.8776 83.134 43.2356 82.2121 44.1583C81.8023 44.5684 81.495 44.5684 81.2901 44.5684C80.1634 44.4659 79.2415 45.286 79.139 46.3112C79.0366 47.439 79.8561 48.3617 80.8804 48.4642C81.0853 48.4642 81.1877 48.4642 81.3926 48.4642C82.7242 48.4642 84.0559 47.9516 85.0802 46.9264C87.1289 44.9785 88.0508 41.2877 87.7435 37.1869C87.5387 34.4188 86.6167 31.6507 85.3875 29.4978C83.9534 27.0373 82.0072 25.4995 79.9585 25.1919C78.422 24.9869 76.9879 25.397 75.7587 26.5247C75.1441 27.1398 74.5295 27.8575 74.1197 28.7801C73.9149 29.2928 73.6076 29.8054 73.5051 30.4205C73.0954 31.3432 72.8905 32.4709 72.7881 33.5986Z" fill="#34495E"/>
<path d="M72.7881 33.5987L76.783 34.2138C76.8855 31.7533 77.7049 30.1129 78.422 29.4978C78.8317 29.1903 79.139 29.1903 79.3439 29.1903C79.6512 29.1903 79.9585 29.3953 80.2658 29.7029C78.7293 28.165 76.9879 27.4474 75.3489 27.96C74.5295 28.2676 74.0173 28.8827 73.71 29.6003C73.6076 29.9079 73.5051 30.2155 73.4027 30.4205C73.0954 31.3432 72.8905 32.4709 72.7881 33.5987Z" fill="#2D3E50"/>
<path d="M114.274 60.4593L94.5045 59.4341L99.5238 105.876L92.251 107.106L93.2753 116.333L127.796 108.952L126.874 101.365L118.986 102.698" fill="white"/>
<path d="M114.274 60.4592L86.5146 58.7163L87.3341 67.7382L109.46 67.9432L114.274 60.4592Z" fill="white"/>
</svg>
