<svg width="194" height="156" viewBox="0 0 194 156" fill="none" xmlns="http://www.w3.org/2000/svg">
<path fill-rule="evenodd" clip-rule="evenodd" d="M158.83 69.9156C158.83 104.11 131.11 131.831 96.9147 131.831C62.7199 131.831 35 104.11 35 69.9156C35 35.7208 62.7199 8 96.9147 8C131.11 8 158.83 35.7208 158.83 69.9156Z" fill="#3ECCCD"/>
<path fill-rule="evenodd" clip-rule="evenodd" d="M158.83 69.9156C158.83 104.11 131.11 131.831 96.9147 131.831C62.7199 131.831 35 104.11 35 69.9156C35 35.7208 62.7199 8 96.9147 8C131.11 8 158.83 35.7208 158.83 69.9156Z" stroke="#3ECCCD" stroke-width="1.765"/>
<path fill-rule="evenodd" clip-rule="evenodd" d="M96.9159 130.655C63.4237 130.655 36.1758 103.407 36.1758 69.915C36.1758 36.4237 63.4237 9.17578 96.9159 9.17578C130.407 9.17578 157.654 36.4237 157.654 69.915C157.654 103.407 130.407 130.655 96.9159 130.655Z" fill="white"/>
<path fill-rule="evenodd" clip-rule="evenodd" d="M96.9157 128.304C64.72 128.304 38.5273 102.111 38.5273 69.9153C38.5273 37.7196 64.72 11.5278 96.9157 11.5278C129.11 11.5278 155.302 37.7196 155.302 69.9153C155.302 102.111 129.11 128.304 96.9157 128.304Z" fill="#37CED1"/>
<path fill-rule="evenodd" clip-rule="evenodd" d="M148.694 141.118C148.694 144.343 146.079 146.957 142.854 146.957H49.6498C46.4255 146.957 43.8105 144.343 43.8105 141.118V82.3949C43.8105 79.1697 46.4255 76.5557 49.6498 76.5557H142.854C146.079 76.5557 148.694 79.1697 148.694 82.3949V141.118Z" fill="white"/>
<mask id="mask0" mask-type="alpha" maskUnits="userSpaceOnUse" x="42" y="75" width="108" height="73">
<path fill-rule="evenodd" clip-rule="evenodd" d="M42.7686 75.5127H149.737V148H42.7686V75.5127Z" fill="white"/>
</mask>
<g mask="url(#mask0)">
<path fill-rule="evenodd" clip-rule="evenodd" d="M49.6504 77.5977C47.0047 77.5977 44.8518 79.7497 44.8518 82.3954V141.117C44.8518 143.763 47.0047 145.915 49.6504 145.915H142.855C145.5 145.915 147.652 143.763 147.652 141.117V82.3954C147.652 79.7497 145.5 77.5977 142.855 77.5977H49.6504ZM49.6504 148C45.8555 148 42.7686 144.912 42.7686 141.117V82.3954C42.7686 78.6005 45.8555 75.5127 49.6504 75.5127H142.855C146.65 75.5127 149.737 78.6005 149.737 82.3954V141.117C149.737 144.912 146.65 148 142.855 148H49.6504Z" fill="#0B577C"/>
</g>
<path fill-rule="evenodd" clip-rule="evenodd" d="M99.964 131.119C97.9133 133.169 94.5903 133.169 92.5396 131.119L46.3525 84.932C44.3018 82.8813 44.3018 79.5583 46.3525 77.5085L92.5396 31.3196C94.5903 29.2698 97.9133 29.2698 99.964 31.3196L146.152 77.5085C148.203 79.5583 148.203 82.8813 146.152 84.932L99.964 131.119Z" fill="#F9C441"/>
<path fill-rule="evenodd" clip-rule="evenodd" d="M96.2519 30.8248C95.1271 30.8248 94.071 31.2624 93.2771 32.0563L47.0899 78.2453C46.2952 79.04 45.8575 80.0961 45.8575 81.2192C45.8575 82.3431 46.2952 83.3992 47.0899 84.194L93.2771 130.382C94.0719 131.176 95.1289 131.614 96.2519 131.614C97.3758 131.614 98.4319 131.176 99.2267 130.381L145.416 84.194C146.21 83.4001 146.647 82.3431 146.647 81.2192C146.647 80.0961 146.21 79.04 145.416 78.2453L99.2267 32.0563C98.4328 31.2615 97.3758 30.8248 96.2519 30.8248ZM96.2519 133.699C94.5719 133.699 92.9923 133.044 91.8032 131.857L45.6152 85.6687C44.4271 84.4797 43.7725 82.9001 43.7725 81.2192C43.7725 79.5383 44.4271 77.9586 45.6152 76.7705L91.8032 30.5816C92.9923 29.3935 94.5719 28.7397 96.2519 28.7397C97.9328 28.7397 99.5124 29.3935 100.701 30.5816L146.889 76.7705C148.078 77.9586 148.732 79.5383 148.732 81.2192C148.732 82.9001 148.078 84.4806 146.89 85.6687L100.701 131.856C99.5124 133.044 97.9328 133.699 96.2519 133.699Z" fill="#0B577C"/>
<path fill-rule="evenodd" clip-rule="evenodd" d="M137.601 37.7527H54.9023V91.8325C54.9023 92.9121 55.3147 93.9918 56.1384 94.8173L93.2682 131.946C94.9156 133.594 97.5875 133.594 99.2359 131.946L136.366 94.8173C137.189 93.9918 137.601 92.9121 137.601 91.8325V37.7527Z" fill="white"/>
<path fill-rule="evenodd" clip-rule="evenodd" d="M55.9454 91.8326C55.9454 92.6798 56.2754 93.4782 56.8758 94.0795L94.0056 131.209C94.606 131.809 95.4044 132.14 96.2525 132.14C97.1025 132.14 97.8991 131.809 98.4994 131.208L135.629 94.0804C136.23 93.4782 136.559 92.6798 136.559 91.8326V38.7952H55.9454V91.8326ZM96.2526 134.224C94.8466 134.224 93.5255 133.677 92.5318 132.684L55.402 95.5543C54.4083 94.5596 53.8604 93.2377 53.8604 91.8326V36.7102H138.645V91.8326C138.645 93.2359 138.098 94.5578 137.105 95.5534L99.9733 132.683C98.9796 133.677 97.6577 134.224 96.2526 134.224Z" fill="#0B577C"/>
<path fill-rule="evenodd" clip-rule="evenodd" d="M48.7396 146.227H143.766C144.621 145.336 145.092 144.168 145.092 142.93C145.092 141.656 144.597 140.46 143.696 139.56L99.6214 95.4856C98.7217 94.5859 97.5254 94.0904 96.2523 94.0904C94.9792 94.0904 93.7821 94.5859 92.8824 95.4856L48.8093 139.56C47.9087 140.46 47.4132 141.656 47.4132 142.93C47.4132 144.168 47.8834 145.336 48.7396 146.227ZM143.968 146.714H48.5362L48.4648 146.642C47.4729 145.651 46.9268 144.332 46.9268 142.93C46.9268 141.526 47.4729 140.208 48.4648 139.216L92.5379 95.1411C93.5307 94.1501 94.849 93.603 96.2524 93.603C97.6557 93.603 98.9749 94.1501 99.9659 95.1411L144.04 139.216C145.032 140.208 145.579 141.526 145.579 142.93C145.579 144.332 145.032 145.651 144.04 146.642L143.968 146.714Z" fill="#F9C441"/>
<path fill-rule="evenodd" clip-rule="evenodd" d="M143.867 139.388L99.7933 95.3131C97.8376 93.3582 94.6657 93.3582 92.7099 95.3131L48.6368 139.388C46.681 141.344 46.681 144.515 48.6368 146.471H143.867C145.823 144.515 145.823 141.344 143.867 139.388Z" fill="white"/>
<path fill-rule="evenodd" clip-rule="evenodd" d="M96.2518 94.8896C95.1921 94.8896 94.1975 95.3019 93.447 96.0505L49.3739 140.125C48.6243 140.874 48.212 141.87 48.212 142.929C48.212 143.663 48.4136 144.378 48.7934 144.997L49.0583 145.429H143.448L143.712 144.996C144.092 144.377 144.293 143.662 144.293 142.929C144.293 141.87 143.88 140.873 143.132 140.125L99.0575 96.0505C98.3071 95.3019 97.3115 94.8896 96.2518 94.8896ZM48.2048 147.513L47.9001 147.208C46.7572 146.065 46.127 144.545 46.127 142.929C46.127 141.314 46.7572 139.795 47.9001 138.651L91.9741 94.5758C93.1152 93.4338 94.6352 92.8044 96.2519 92.8044C97.8686 92.8044 99.3885 93.4338 100.531 94.5758L144.605 138.651C145.747 139.794 146.378 141.313 146.378 142.929C146.378 144.546 145.747 146.065 144.605 147.208L144.301 147.513H48.2048Z" fill="#0B577C"/>
<path fill-rule="evenodd" clip-rule="evenodd" d="M92.681 119.095C92.0164 119.095 91.4757 119.636 91.4757 120.3C91.4757 120.965 92.0164 121.506 92.681 121.506H97.787C97.8467 121.506 97.9036 121.519 97.9579 121.543L99.3829 122.212C99.4661 122.251 99.5348 122.222 99.5682 122.2C99.6017 122.178 99.6587 122.128 99.6587 122.036V120.482C99.6587 120.415 99.6234 120.352 99.5655 120.317L97.9443 119.32C97.9326 119.312 97.9208 119.304 97.9091 119.296C97.7427 119.166 97.5338 119.095 97.3222 119.095H92.681ZM99.4652 123.034C99.3223 123.034 99.1776 123.002 99.042 122.939L97.6984 122.309H92.681C91.5734 122.309 90.6719 121.408 90.6719 120.3C90.6719 119.193 91.5734 118.292 92.681 118.292H97.3222C97.7029 118.292 98.079 118.418 98.3828 118.646L99.9869 119.633C100.279 119.813 100.461 120.138 100.461 120.482V122.036C100.461 122.379 100.288 122.694 99.9995 122.877C99.8359 122.981 99.6514 123.034 99.4652 123.034Z" fill="#FECB22"/>
<path fill-rule="evenodd" clip-rule="evenodd" d="M99.05 125.002C99.2896 125.044 99.5328 124.982 99.7227 124.827C99.918 124.668 100.03 124.433 100.03 124.181V123.929C100.03 123.671 99.909 123.426 99.7055 123.268L97.6964 122.309H91.5425C90.8788 122.309 90.3372 122.85 90.3372 123.514C90.3372 124.179 90.8788 124.72 91.5425 124.72H98.1548C98.1982 124.72 98.2416 124.728 98.2832 124.741L99.05 125.002ZM99.1983 125.818C99.088 125.818 98.9758 125.807 98.8655 125.784C98.8484 125.78 98.833 125.776 98.8167 125.771L98.0888 125.523H91.5425C90.4357 125.523 89.5352 124.622 89.5352 123.514C89.5352 122.407 90.4357 121.506 91.5425 121.506H97.7877C97.8474 121.506 97.9062 121.519 97.9604 121.545L100.086 122.56C100.107 122.571 100.127 122.583 100.146 122.596C100.575 122.902 100.833 123.4 100.833 123.929V124.181C100.833 124.675 100.613 125.138 100.23 125.45C99.9352 125.691 99.5708 125.818 99.1983 125.818Z" fill="#FECB22"/>
<path fill-rule="evenodd" clip-rule="evenodd" d="M97.087 131.671C96.9197 131.671 96.7651 131.566 96.7072 131.4C96.6358 131.19 96.747 130.961 96.9568 130.89L100.273 129.753C101.139 129.372 101.698 128.515 101.698 127.567V127.531C101.698 127.391 101.665 127.252 101.602 127.128L101.486 126.899C101.218 126.372 101.248 125.734 101.562 125.233C101.651 125.092 101.698 124.927 101.698 124.76V122.327C101.698 121.913 101.59 121.505 101.386 121.146L100.117 119.634C99.4759 118.87 99.1224 117.901 99.1224 116.904V113.267C99.1224 112.532 98.5238 111.932 97.7869 111.932C97.0508 111.932 96.4523 112.532 96.4523 113.267V118.693C96.4523 118.915 96.2723 119.094 96.0508 119.094C95.8284 119.094 95.6484 118.915 95.6484 118.693V113.267C95.6484 112.089 96.6087 111.129 97.7869 111.129C98.9659 111.129 99.9253 112.089 99.9253 113.267V116.904C99.9253 117.712 100.212 118.499 100.732 119.118L102.024 120.657C102.039 120.674 102.052 120.692 102.063 120.712C102.349 121.201 102.501 121.759 102.501 122.327V124.76C102.501 125.079 102.412 125.39 102.242 125.661C102.077 125.924 102.062 126.259 102.202 126.536L102.318 126.765C102.438 127.001 102.501 127.266 102.501 127.531V127.567C102.501 128.841 101.746 129.99 100.578 130.496C100.569 130.501 100.559 130.504 100.549 130.508L97.2181 131.649C97.1747 131.664 97.1304 131.671 97.087 131.671Z" fill="#FECB22"/>
<path fill-rule="evenodd" clip-rule="evenodd" d="M92.6816 127.896H97.3843V125.487H91.5432C90.8976 125.487 90.3714 126.041 90.3714 126.722V126.729C90.3714 127.395 90.8759 127.896 91.5432 127.896H92.6816ZM98.1881 127.896H98.8979C99.2288 127.896 99.5191 127.766 99.6963 127.54C99.6981 127.537 99.7008 127.533 99.7035 127.529C99.8762 127.276 99.8328 126.975 99.7885 126.812L99.7189 126.61C99.7162 126.603 99.7144 126.595 99.7116 126.587C99.6511 126.369 99.5037 126.171 99.3192 126.054L98.1881 125.619V127.896ZM91.4953 129.938C91.498 130.595 92.0188 131.108 92.6816 131.108H96.1464C96.3508 131.108 96.5343 131.067 96.698 130.985C97.123 130.776 97.3843 130.356 97.3843 129.889V128.699H92.6816C92.0287 128.699 91.498 129.255 91.4953 129.938ZM96.1464 131.91H92.6816C91.5712 131.91 90.6932 131.051 90.6932 129.95V129.943V129.935V129.927C90.6969 129.447 90.8614 129.006 91.1345 128.658C90.2294 128.475 89.5693 127.693 89.5693 126.729V126.722C89.5693 125.598 90.4545 124.684 91.5432 124.684H97.3897V118.929C97.3897 118.706 97.5687 118.527 97.7903 118.527C98.0127 118.527 98.1926 118.706 98.1926 118.929V124.758L99.6439 125.318C99.6647 125.326 99.6837 125.335 99.7026 125.347C100.077 125.566 100.36 125.935 100.482 126.359L100.553 126.564C100.555 126.571 100.557 126.578 100.56 126.586C100.698 127.084 100.637 127.569 100.384 127.954C100.376 127.97 100.367 127.983 100.357 127.996C100.029 128.443 99.4965 128.699 98.8979 128.699H98.1881V129.889C98.1881 130.664 97.7541 131.361 97.0543 131.706C96.7776 131.842 96.4747 131.91 96.1464 131.91Z" fill="#FECB22"/>
<path fill-rule="evenodd" clip-rule="evenodd" d="M97.5326 131.519C97.3653 131.519 97.2098 131.414 97.1528 131.247C97.0805 131.038 97.1926 130.809 97.4024 130.737L99.0489 130.173C99.3428 130.072 99.5408 129.796 99.5408 129.484C99.5408 129.091 99.2198 128.764 98.8265 128.757L97.6691 128.736C97.4467 128.732 97.2713 128.549 97.2749 128.328C97.2794 128.106 97.463 127.929 97.6836 127.933L98.8401 127.954C99.6692 127.97 100.344 128.656 100.344 129.484C100.344 130.139 99.9278 130.721 99.3093 130.933L97.6628 131.497C97.6194 131.511 97.576 131.519 97.5326 131.519Z" fill="#FECB22"/>
<path fill-rule="evenodd" clip-rule="evenodd" d="M93.9578 113.12H91.2813C91.0598 113.12 90.8799 112.94 90.8799 112.719C90.8799 112.497 91.0598 112.317 91.2813 112.317H93.9578C94.1793 112.317 94.3592 112.497 94.3592 112.719C94.3592 112.94 94.1793 113.12 93.9578 113.12Z" fill="#FECB22"/>
<path fill-rule="evenodd" clip-rule="evenodd" d="M97.6249 109.4C97.4034 109.4 97.2235 109.22 97.2235 108.998V106.375C97.2235 106.154 97.4034 105.974 97.6249 105.974C97.8465 105.974 98.0264 106.154 98.0264 106.375V108.998C98.0264 109.22 97.8465 109.4 97.6249 109.4Z" fill="#FECB22"/>
<path fill-rule="evenodd" clip-rule="evenodd" d="M95.171 110.702C95.0688 110.702 94.9648 110.664 94.8871 110.585L93.0145 108.712C92.8572 108.555 92.8572 108.301 93.0145 108.144C93.1709 107.988 93.425 107.988 93.5823 108.144L95.4549 110.017C95.6113 110.174 95.6113 110.428 95.4549 110.585C95.3771 110.664 95.2732 110.702 95.171 110.702Z" fill="#FECB22"/>
<path fill-rule="evenodd" clip-rule="evenodd" d="M83.621 54.2348C83.0902 54.9617 82.6218 55.6661 82.214 56.3479C81.8053 57.0296 81.4193 57.7566 81.0512 58.5279C81.6833 57.7322 82.2294 56.9663 82.6887 56.2348C83.1481 55.5033 83.4582 54.837 83.621 54.2348ZM74.2282 67.4812C74.1875 67.5264 74.0862 67.6078 73.9226 67.7253C73.7589 67.8428 73.5862 67.9568 73.4027 68.0671C73.2191 68.1765 73.05 68.2651 72.8981 68.3311C72.7444 68.3971 72.6694 68.4007 72.6685 68.3411C72.6676 68.2425 72.5464 68.2506 72.3014 68.3655C72.0572 68.4803 71.8276 68.5924 71.6133 68.7018C71.3999 68.8121 71.2615 68.8655 71.2 68.861C71.1395 68.8564 71.2814 68.691 71.6277 68.361C71.8113 68.1647 72.0916 67.8944 72.4695 67.549C72.8466 67.2027 73.2842 66.7994 73.7851 66.3356C74.2852 65.8726 74.8259 65.3572 75.4064 64.7885C75.9887 64.2197 76.5854 63.6148 77.1967 62.9747C77.2979 62.6844 77.4055 62.3969 77.5177 62.1148C77.6298 61.8318 77.7582 61.5325 77.9001 61.2151C78.2871 60.31 78.6705 59.4772 79.0466 58.7186C79.4246 57.96 79.8134 57.2421 80.2103 56.5657C80.6073 55.8903 81.0323 55.233 81.4798 54.5946C81.9274 53.9562 82.4184 53.3052 82.9482 52.6388C83.1119 52.4517 83.2801 52.3432 83.4528 52.3124C83.6255 52.2808 83.7738 52.3233 83.8967 52.439C84.121 52.6352 84.3353 52.9264 84.5396 53.3124C84.7422 53.7003 84.8154 54.1054 84.753 54.5313C84.6915 54.9563 84.508 55.4744 84.2033 56.082C83.8976 56.6905 83.498 57.3542 83.0088 58.0721C82.5197 58.791 81.9636 59.5387 81.3415 60.3136C80.7194 61.0903 80.0621 61.858 79.3685 62.6184C79.0629 63.387 78.7564 64.1537 78.4508 64.9196C79.1045 64.0715 79.7917 63.2532 80.516 62.4638C81.2393 61.6744 82.0205 60.9203 82.856 60.2006C82.9781 60.1002 83.1472 60.055 83.3615 60.0659C83.5739 60.0776 83.7738 60.1301 83.9573 60.225C84.1418 60.32 84.2883 60.4411 84.4013 60.5876C84.5134 60.735 84.5179 60.8869 84.4167 61.0433C84.0496 61.6835 83.7584 62.3426 83.545 63.0217C83.3307 63.7016 83.1634 64.3581 83.0396 64.991C82.9989 65.1963 82.9528 65.4802 82.9021 65.8437C82.8506 66.2081 82.8461 66.5245 82.8868 66.7931C83.0911 66.718 83.3253 66.5878 83.5911 66.4016C83.8552 66.2162 84.1273 65.9992 84.4013 65.7514C84.678 65.5037 84.9483 65.246 85.2123 64.9793C85.4773 64.7134 85.7214 64.4603 85.9466 64.2197C86.2332 63.9096 86.4457 63.7251 86.5885 63.6682C86.7314 63.6112 86.8526 63.5823 86.9556 63.5823C87.0569 63.5823 87.1754 63.5552 87.3074 63.5C87.4394 63.4448 87.6482 63.2504 87.9349 62.9186C88.1184 62.7043 88.3074 62.5298 88.5009 62.3924C88.6953 62.2558 89.0262 61.9927 89.4955 61.6012C89.7198 61.4185 89.8934 61.3345 90.0154 61.3489C90.1375 61.3643 90.1067 61.4882 89.9241 61.7233C89.557 62.1916 89.1691 62.679 88.7613 63.1835C88.3517 63.6899 87.9493 64.1781 87.5533 64.6501C87.1546 65.123 86.7576 65.5742 86.3589 66.0055C85.9628 66.4368 85.5885 66.813 85.2431 67.134C85.0179 67.3338 84.8244 67.5128 84.6608 67.6711C84.498 67.8302 84.3353 67.9586 84.1716 68.0571C84.0089 68.1557 83.8253 68.219 83.621 68.2461C83.4166 68.2723 83.1725 68.2515 82.8868 68.1837C82.3768 68.0571 81.9681 67.9297 81.6634 67.8049C81.3569 67.6801 81.1326 67.3917 80.9907 66.9414C80.9093 66.7189 80.8984 66.3554 80.9599 65.8518C81.0205 65.3491 81.1444 64.7668 81.327 64.104C80.6127 64.8753 79.9454 65.6692 79.3224 66.4875C78.7003 67.3058 78.1244 68.1367 77.5945 68.983C77.4914 69.1358 77.3332 69.1937 77.1207 69.1548C76.9055 69.1169 76.6921 69.0228 76.4778 68.8754C76.2635 68.7281 76.0845 68.54 75.9425 68.3121C75.7997 68.0852 75.7599 67.8582 75.8196 67.6331C75.9724 67.0019 76.1261 66.369 76.2789 65.737C75.6062 66.3817 74.9208 66.9631 74.2282 67.4812ZM78.4815 51.1271C78.4209 51.4517 78.4499 51.7428 78.5729 52.0005C79.5322 51.5195 80.506 51.1099 81.4943 50.7744C82.4835 50.4399 83.4573 50.2229 84.4167 50.1252C85.3751 50.0285 86.3128 50.0673 87.2314 50.2428C88.1483 50.42 89.0054 50.7726 89.8011 51.3025C90.0652 51.4661 90.1981 51.6162 90.199 51.7546C90.199 51.8929 90.1257 51.996 89.9847 52.0647C89.8418 52.1325 89.6637 52.1687 89.4494 52.1723C89.2351 52.1759 89.0362 52.1171 88.8526 51.9951C87.9955 51.4164 87.0578 51.137 86.0379 51.1533C85.017 51.1696 83.9772 51.3576 82.9175 51.7121C81.8569 52.0674 80.8071 52.5403 79.7664 53.1307C78.7266 53.7221 77.7482 54.2972 76.8296 54.8596C76.0547 55.8569 75.2527 56.9591 74.428 58.1653C73.6025 59.3724 72.7797 60.6292 71.965 61.9358C71.1494 63.2424 70.3582 64.5815 69.5933 65.9549C68.8284 67.3284 68.1195 68.6946 67.4675 70.0545C67.2433 70.5021 67.0652 70.9361 66.9323 71.3575C66.7993 71.7788 66.7234 72.1622 66.7026 72.5085C66.6836 72.8548 66.7234 73.1442 66.8256 73.3747C66.9268 73.6062 67.1104 73.7446 67.3753 73.788C67.8862 73.8965 68.1149 73.9887 68.0643 74.071C68.0137 74.1533 67.8238 74.1858 67.4983 74.1659C67.2939 74.1587 67.0968 74.184 66.9015 74.2437C66.7071 74.3034 66.519 74.3531 66.3355 74.3911C66.1519 74.429 65.9729 74.4318 65.8002 74.4001C65.6275 74.3676 65.4485 74.2563 65.2649 74.0665C64.8164 73.608 64.5723 73.0818 64.5307 72.4914C64.49 71.9009 64.5913 71.2381 64.8372 70.4994C65.0814 69.7625 65.453 68.9415 65.953 68.0319C66.4521 67.1222 67.0191 66.1177 67.6511 65.0137C68.3039 63.8888 69.0689 62.6863 69.9459 61.3987C70.8221 60.112 71.7607 58.8037 72.7598 57.4718C71.5364 58.2367 70.3483 59.0089 69.1964 59.7874C68.0426 60.5668 66.9169 61.3336 65.8156 62.0904C65.51 62.3201 65.1673 62.5109 64.7911 62.66C64.4132 62.8101 64.0416 62.8391 63.6735 62.7469C63.5117 62.7297 63.2956 62.7333 63.0316 62.755C62.9692 62.7559 62.8525 62.7767 62.6798 62.8174C62.5053 62.8581 62.3733 62.8734 62.282 62.8626C62.1907 62.8535 62.1644 62.8038 62.2051 62.7152C62.2458 62.6266 62.4511 62.4548 62.8173 62.1944C63.7766 61.5171 64.7911 60.8074 65.8608 60.0614C66.9323 59.3163 68.029 58.5704 69.1502 57.8226C70.2724 57.0767 71.3945 56.3361 72.5157 55.6046C73.636 54.8731 74.7391 54.1769 75.8196 53.5186C76.1867 53.0756 76.5547 52.6407 76.9209 52.2139C77.288 51.7871 77.6451 51.3703 77.9915 50.9634C78.2564 50.6478 78.4363 50.4634 78.5267 50.41C78.619 50.3567 78.6651 50.3739 78.6651 50.4634C78.6651 50.552 78.6361 50.6695 78.5729 50.8169C78.5123 50.9643 78.4806 51.0683 78.4815 51.1271Z" fill="#3ECCCD"/>
<path fill-rule="evenodd" clip-rule="evenodd" d="M90.597 64.5751C91.3936 63.5841 92.1522 62.5497 92.8765 61.4728C93.5998 60.395 94.2879 59.3145 94.9416 58.2313C94.6767 58.2475 94.3503 58.3994 93.9624 58.6879C93.5745 58.9754 93.192 59.3018 92.815 59.6653C92.437 60.0297 92.0907 60.3823 91.7751 60.7241C91.4587 61.065 91.2498 61.3046 91.1476 61.4448C90.9026 61.7703 90.6223 62.1781 90.3067 62.6663C89.9894 63.1546 89.6937 63.6528 89.4188 64.1619C89.1439 64.6709 88.9233 65.1393 88.7615 65.5661C88.5978 65.9929 88.5571 66.2976 88.6394 66.4775C88.7615 66.6312 88.9595 66.5471 89.2353 66.2252C89.511 65.9043 89.964 65.3545 90.597 64.5751ZM90.1684 59.8091C90.8013 59.0893 91.3556 58.517 91.8357 58.0929C92.314 57.6688 92.7553 57.3705 93.1513 57.1987C93.5501 57.0278 93.9217 56.9798 94.2689 57.0549C94.6143 57.1308 94.9724 57.318 95.3386 57.6155C95.4914 57.3569 95.6451 57.0974 95.7979 56.8388C95.8992 56.6796 96.0674 56.5947 96.3033 56.5847C96.5366 56.5757 96.7618 56.6173 96.9761 56.7095C97.1895 56.8026 97.354 56.9319 97.4652 57.0956C97.5774 57.2601 97.5737 57.4238 97.4499 57.5866C97.3477 57.7267 97.1641 58.0513 96.8992 58.5604C96.6343 59.0703 96.3531 59.6472 96.0583 60.2901C95.7626 60.9348 95.4923 61.5677 95.2472 62.1916C95.0013 62.8146 94.8503 63.3101 94.7888 63.6781C94.768 63.7224 94.7581 63.7731 94.7581 63.8327C94.759 63.8915 94.759 63.9512 94.7581 64.0099C95.1044 63.7604 95.5013 63.4304 95.9507 63.0199C96.3992 62.6112 96.8377 62.1979 97.2663 61.7829C97.694 61.3679 98.0973 60.9728 98.4752 60.5975C98.8523 60.2232 99.1425 59.9357 99.3469 59.7349C99.5105 59.583 99.6534 59.47 99.7745 59.3949C99.8984 59.3199 100.02 59.2503 100.143 59.1852C100.265 59.1201 100.398 59.0486 100.54 58.97C100.683 58.8913 100.846 58.7729 101.03 58.6173C101.151 58.5134 101.239 58.4709 101.289 58.4898C101.34 58.5088 101.315 58.5983 101.213 58.7566C100.417 59.9465 99.572 61.1183 98.6741 62.2721C98.43 62.5795 98.1542 62.934 97.8486 63.3327C97.5412 63.7324 97.2093 64.1076 96.8531 64.4584C96.4968 64.8102 96.1234 65.0995 95.7373 65.3283C95.3503 65.5579 94.9507 65.6565 94.5438 65.623C93.8096 65.5986 93.3295 65.4322 93.1052 65.123C92.881 64.8156 92.8294 64.4024 92.9524 63.8825C92.5455 64.5398 92.1368 65.1465 91.729 65.7044C91.3212 66.2614 90.9216 66.6882 90.5364 66.9838C89.1485 68.0752 88.1086 67.9938 87.4151 66.7478C87.2723 66.5001 87.1909 66.1556 87.171 65.7153C87.1502 65.2758 87.237 64.7613 87.4305 64.1709C87.6249 63.5814 87.9368 62.9231 88.3636 62.197C88.7922 61.4719 89.3935 60.6762 90.1684 59.8091Z" fill="#3ECCCD"/>
<path fill-rule="evenodd" clip-rule="evenodd" d="M101.855 60.7998C102.12 60.1831 102.364 59.5565 102.589 58.919C102.181 59.2581 101.713 59.6261 101.182 60.0203C100.651 60.4164 100.172 60.7573 99.7445 61.0439C99.3774 61.2781 99.1993 61.3251 99.2083 61.185C99.2192 61.0448 99.2852 60.892 99.4082 60.7283C99.7735 60.278 100.173 59.7608 100.601 59.1794C101.029 58.5971 101.446 58.013 101.855 57.4271C102.263 56.8403 102.634 56.2806 102.972 55.7498C103.308 55.2182 103.569 54.7661 103.753 54.3935C103.833 54.2398 103.976 54.1566 104.18 54.1458C104.385 54.1349 104.587 54.1684 104.793 54.2453C104.996 54.3239 105.17 54.4333 105.313 54.5726C105.455 54.7127 105.517 54.8538 105.495 54.9957C105.271 55.9271 105.047 56.8593 104.822 57.7906C105.068 57.4859 105.354 57.1387 105.679 56.7499C106.006 56.3611 106.336 55.9967 106.673 55.6558C107.011 55.3149 107.332 55.0075 107.638 54.7326C107.943 54.4587 108.2 54.2733 108.402 54.1756C108.525 54.1142 108.714 54.0897 108.968 54.1015C109.223 54.1142 109.474 54.1585 109.718 54.2326C109.962 54.3077 110.172 54.4089 110.345 54.5355C110.518 54.6639 110.595 54.7986 110.575 54.9397C110.532 55.2236 110.457 55.6359 110.345 56.1784C110.233 56.72 110.136 57.2553 110.054 57.7834C109.973 58.3105 109.932 58.7662 109.932 59.1505C109.933 59.5357 110.012 59.7238 110.177 59.7138C110.4 59.6939 110.688 59.5556 111.033 59.2979C111.381 59.042 111.732 58.75 112.089 58.4244C112.447 58.0989 112.777 57.7879 113.083 57.4913C113.389 57.1966 113.625 56.9967 113.787 56.8918C114.031 56.7345 114.292 56.6061 114.567 56.5048C114.842 56.4045 115.153 56.22 115.5 55.9524C115.623 55.8746 115.719 55.8366 115.79 55.8357C115.862 55.8357 115.847 55.9216 115.744 56.0943C115.419 56.5754 115.052 57.1125 114.644 57.7065C114.236 58.3006 113.817 58.8693 113.39 59.41C112.96 59.9525 112.542 60.4155 112.135 60.7989C111.727 61.1822 111.36 61.402 111.033 61.458C110.851 61.4707 110.641 61.4327 110.406 61.3459C110.172 61.2591 109.942 61.1461 109.718 61.0086C109.494 60.8721 109.289 60.7211 109.107 60.5565C108.922 60.3929 108.789 60.2401 108.708 60.0972C108.484 59.6849 108.356 59.1614 108.325 58.5248C108.295 57.8901 108.3 57.2526 108.342 56.6142C107.852 57.0989 107.336 57.6441 106.796 58.2508C106.257 58.8567 105.725 59.4733 105.205 60.0972C104.684 60.722 104.195 61.3278 103.737 61.9128C103.278 62.4978 102.885 63.0114 102.558 63.4527L102.1 64.0485C101.978 64.1923 101.799 64.2683 101.565 64.2773C101.33 64.2854 101.106 64.2429 100.892 64.1498C100.677 64.0558 100.514 63.931 100.403 63.7773C100.29 63.6227 100.286 63.4753 100.387 63.336C100.57 63.0711 100.754 62.8071 100.937 62.5421C101.283 61.9969 101.591 61.4164 101.855 60.7998Z" fill="#3ECCCD"/>
<path fill-rule="evenodd" clip-rule="evenodd" d="M128.777 55.6388C128.9 55.5764 129.012 55.5294 129.114 55.4977C129.216 55.4661 129.324 55.4344 129.436 55.4028C129.548 55.3711 129.68 55.325 129.834 55.2635C129.986 55.203 130.173 55.1116 130.4 54.9923C130.664 54.8331 130.816 54.7798 130.858 54.8286C130.898 54.8784 130.816 55.0113 130.613 55.2283C130.204 55.7229 129.716 56.26 129.145 56.8432C128.573 57.4282 127.982 57.9825 127.37 58.5105C126.758 59.0385 126.156 59.5033 125.565 59.903C124.974 60.3035 124.454 60.5522 124.005 60.6453C123.332 60.7945 122.689 60.7755 122.077 60.5865C121.464 60.3976 121.047 60.1209 120.823 59.7492C120.639 59.4726 120.528 59.0901 120.487 58.6009C120.445 58.1127 120.445 57.6497 120.487 57.2103C120.507 56.8531 120.74 56.552 121.19 56.3088C121.435 56.1659 121.725 55.9788 122.062 55.75C122.397 55.5212 122.725 55.2653 123.041 54.9814C123.358 54.6984 123.648 54.3946 123.913 54.0682C124.178 53.7427 124.361 53.409 124.463 53.0663C123.872 53.2662 123.281 53.6134 122.689 54.1098C122.097 54.6053 121.577 55.1053 121.129 55.6044C120.66 56.1261 120.186 56.7048 119.707 57.3414C119.226 57.9779 118.784 58.5892 118.376 59.1724C117.968 59.7556 117.62 60.2746 117.336 60.7267C117.049 61.1788 116.866 61.4699 116.784 61.6001C116.64 61.856 116.433 62.0278 116.158 62.1164C115.882 62.2041 115.619 62.2276 115.362 62.1861C115.106 62.1445 114.897 62.0676 114.735 61.9537C114.571 61.8406 114.531 61.6987 114.612 61.5287C115.572 59.7067 116.529 57.8929 117.489 56.0909C116.937 56.6759 116.356 57.2392 115.744 57.7808C115.132 58.3233 114.49 58.8333 113.817 59.3134C113.572 59.5096 113.327 59.6914 113.083 59.8587C112.838 60.0277 112.649 60.1516 112.517 60.233C112.384 60.3135 112.318 60.3288 112.318 60.28C112.318 60.2312 112.43 60.0793 112.655 59.8252C113.144 59.2718 113.517 58.8035 113.77 58.4183C114.027 58.0331 114.205 57.6949 114.307 57.4029C114.367 57.1379 114.617 56.7781 115.056 56.3287C115.496 55.8784 116.02 55.3341 116.631 54.6966C117.244 54.0601 117.902 53.3376 118.605 52.5302C119.31 51.7245 119.979 50.8248 120.609 49.8293C120.998 48.9993 121.368 48.1674 121.726 47.3338C122.083 46.5001 122.425 45.6547 122.751 44.7984C122.812 44.6555 122.934 44.595 123.117 44.6185C123.3 44.6429 123.489 44.7315 123.683 44.8834C123.878 45.0362 124.05 45.2252 124.203 45.4503C124.356 45.6755 124.423 45.9187 124.403 46.1764C124.383 46.4929 124.315 46.8138 124.203 47.1375C124.092 47.4612 123.96 47.7723 123.806 48.0698C123.653 48.3672 123.495 48.6268 123.332 48.8474C123.169 49.0671 123.035 49.2416 122.934 49.3691C122.751 49.7796 122.593 50.134 122.46 50.4315C122.327 50.729 122.189 51.0138 122.047 51.2833C121.904 51.5527 121.761 51.8339 121.619 52.1233C121.476 52.4135 121.302 52.7562 121.099 53.1522C121.649 52.7598 122.163 52.4452 122.643 52.2056C123.122 51.9659 123.709 51.8285 124.403 51.7978C124.565 51.786 124.775 51.8312 125.03 51.9325C125.285 52.0347 125.519 52.173 125.734 52.3475C125.946 52.5229 126.121 52.7309 126.254 52.9696C126.387 53.2101 126.423 53.4497 126.36 53.6893C126.258 54.07 126.075 54.4642 125.81 54.8738C125.545 55.2834 125.233 55.6722 124.878 56.0411C124.52 56.411 124.127 56.7491 123.699 57.0584C123.271 57.3685 122.851 57.6208 122.444 57.8152C122.404 58.1154 122.475 58.4047 122.659 58.6841C122.843 58.9635 122.985 59.1886 123.087 59.3568C123.535 59.2411 124.039 58.9988 124.602 58.6344C125.162 58.27 125.712 57.8857 126.254 57.4824C126.794 57.0801 127.289 56.703 127.738 56.3513C128.186 55.9996 128.532 55.7636 128.777 55.6388Z" fill="#3ECCCD"/>
<path fill-rule="evenodd" clip-rule="evenodd" d="M93.8247 72.6254C94.0698 72.6335 94.3537 72.5847 94.681 72.4762C94.823 72.4265 94.9722 72.3659 95.1241 72.2945C95.2778 72.223 95.3881 72.185 95.4622 72.1796C95.5328 72.1742 95.5472 72.2348 95.5065 72.3623C95.4659 72.4889 95.3239 72.7167 95.0789 73.0431C94.5273 73.8298 93.9577 74.6689 93.3654 75.5613C92.7732 76.4537 92.1936 77.3435 91.6212 78.2305C91.0507 79.1166 90.4991 79.9837 89.9693 80.831C89.4385 81.6773 88.9819 82.4549 88.5931 83.1629C87.8173 84.54 87.0478 86.0463 86.2829 87.682C85.5188 89.3168 84.9112 90.9145 84.4627 92.4761C84.3416 92.8739 84.2276 93.0819 84.1264 93.1C84.0233 93.1189 83.9121 92.9517 83.7891 92.599C83.7484 92.448 83.7177 92.2717 83.6978 92.0683C83.6761 91.8648 83.6164 91.693 83.5151 91.5538C83.4129 91.4145 83.2909 91.2834 83.1471 91.1614C83.0033 91.0384 83.0033 90.7861 83.1471 90.4064C83.78 88.7354 84.4274 87.2462 85.0902 85.9396C85.7512 84.6322 86.3697 83.5037 86.9411 82.5543C87.5126 81.6058 88.0017 80.8346 88.4095 80.2396C88.8164 79.6465 89.0831 79.2387 89.2052 79.0162C88.8372 79.4059 88.4095 79.8562 87.9204 80.3662C87.4303 80.8771 86.9257 81.3997 86.4058 81.9323C85.8859 82.4666 85.375 82.982 84.8759 83.4784C84.3759 83.9757 83.922 84.3989 83.5151 84.7479C83.1064 85.0978 82.6082 85.5364 82.0151 86.0626C81.4228 86.5889 80.8315 87.0283 80.241 87.38C79.751 87.6576 79.298 87.7589 78.8793 87.6847C78.4625 87.6115 78.099 87.4442 77.7934 87.1838C77.4878 86.9225 77.259 86.6006 77.1053 86.2181C76.9534 85.8357 76.9055 85.4622 76.9669 85.0978C77.0682 84.5119 77.4001 83.671 77.9616 82.5715C78.5231 81.4729 79.1849 80.2866 79.9499 79.0099C80.7148 77.7323 81.5105 76.4357 82.337 75.1183C83.1625 73.8008 83.8922 72.638 84.5242 71.6335C85.0749 70.723 85.3036 70.1678 85.2132 69.968C85.121 69.7672 84.7177 69.9625 84.0043 70.5457C83.4735 70.977 82.9319 71.4337 82.3831 71.9138C81.8315 72.3948 81.3116 72.8722 80.8224 73.3487C80.7401 73.4211 80.553 73.611 80.2564 73.9148C79.9598 74.2195 79.6135 74.5766 79.2166 74.9826C78.8187 75.3904 78.41 75.828 77.9923 76.2946C77.5746 76.7612 77.2011 77.1997 76.8756 77.6102C76.5492 78.0216 76.3087 78.3842 76.1568 78.7007C76.004 79.0171 75.9877 79.2269 76.1107 79.3291C76.3349 79.5352 76.4163 79.6862 76.3557 79.7839C76.2942 79.8806 76.1658 79.943 75.9732 79.9693C75.7788 79.9946 75.5609 79.9792 75.315 79.9222C75.0718 79.8653 74.8873 79.7848 74.7643 79.6817C74.4171 79.3698 74.2706 79.0081 74.3213 78.5976C74.371 78.1871 74.5301 77.773 74.7951 77.3552C75.06 76.9375 75.371 76.5378 75.7282 76.1545C76.0854 75.772 76.3855 75.4347 76.6306 75.1445C78.3024 73.195 80.1687 71.4554 82.2294 69.9137C82.5558 69.6605 82.9021 69.4263 83.2692 69.2139C83.6372 68.9996 84.0043 68.8495 84.3714 68.7627C84.7385 68.675 85.0839 68.675 85.4112 68.7618C85.7385 68.8486 86.0451 69.071 86.329 69.4309C86.5731 69.779 86.6599 70.1859 86.5894 70.6533C86.517 71.1208 86.3642 71.6046 86.13 72.1019C85.8941 72.601 85.63 73.0847 85.3344 73.554C85.0396 74.0242 84.7891 74.4256 84.5848 74.7593C84.3406 75.1788 83.998 75.7503 83.5603 76.47C83.1209 77.1898 82.6534 77.9683 82.1534 78.8037C81.6543 79.6401 81.1543 80.4892 80.6542 81.3509C80.1551 82.2126 79.7202 83.0019 79.354 83.7199C78.986 84.4387 78.7211 85.0373 78.5583 85.5147C78.3956 85.9939 78.4046 86.2588 78.5882 86.3095C78.8133 86.3945 79.222 86.2272 79.8124 85.8076C80.4038 85.3872 81.1091 84.8175 81.9237 84.096C82.7393 83.3744 83.6327 82.5299 84.6011 81.5615C85.5676 80.5941 86.5487 79.604 87.5379 78.5922C88.528 77.5804 89.4801 76.5948 90.3978 75.6391C91.3165 74.6833 92.142 73.8433 92.8762 73.1182C93.0381 72.9464 93.1864 72.8216 93.3193 72.7447C93.4522 72.6679 93.6213 72.6281 93.8247 72.6254Z" fill="#3ECCCD"/>
<path fill-rule="evenodd" clip-rule="evenodd" d="M99.5143 79.0393C98.8814 78.7183 98.5658 78.2608 98.5658 77.6685C97.9735 78.1288 97.4446 78.6686 96.9744 79.2898C96.5051 79.9109 96.1272 80.5375 95.8424 81.1687C95.6597 81.543 95.4852 81.9544 95.3224 82.402C95.1606 82.8505 95.0684 83.2745 95.0476 83.6733C95.0476 83.969 95.0738 84.2059 95.1244 84.3822C95.1733 84.5594 95.2763 84.6462 95.4291 84.6435C95.5829 84.6408 95.7782 84.5413 96.0114 84.3442C96.2456 84.1471 96.5467 83.8225 96.9138 83.3713C96.9943 83.2754 97.1435 83.081 97.3569 82.789C97.5721 82.4978 97.8108 82.147 98.0757 81.7365C98.3397 81.326 98.6065 80.8857 98.8714 80.4155C99.1363 79.9462 99.3506 79.4878 99.5143 79.0393ZM98.5956 75.8285C98.7593 75.7552 98.9492 75.7498 99.1616 75.8131C99.3768 75.8773 99.5649 75.9713 99.7277 76.0952C99.9519 76.1477 100.168 76.2462 100.371 76.3909C100.574 76.5365 100.698 76.6639 100.739 76.7734C100.881 77.1386 100.972 77.5048 101.013 77.871C101.217 77.928 101.456 77.9524 101.732 77.9452C102.007 77.938 102.257 77.9416 102.482 77.9542C102.727 77.9642 102.925 78.0121 103.078 78.0998C103.231 78.1875 103.471 78.1975 103.797 78.1333C104.001 78.0917 104.108 78.1107 104.118 78.1866C104.129 78.2644 104.071 78.334 103.95 78.3982C103.461 78.6541 102.96 78.8729 102.451 79.0555C101.941 79.2382 101.431 79.3331 100.921 79.3404C100.778 80.0194 100.534 80.6921 100.187 81.3558C99.8398 82.0186 99.4627 82.6307 99.0549 83.1886C98.8108 83.5159 98.535 83.8649 98.2285 84.2348C97.9238 84.6037 97.5956 84.9292 97.2502 85.2086C96.903 85.4889 96.5359 85.7086 96.148 85.8686C95.761 86.0287 95.3631 86.063 94.9553 85.9708C94.4861 85.8723 94.1352 85.6842 93.9001 85.4066C93.666 85.1299 93.5122 84.7981 93.4408 84.4084C93.3703 84.0187 93.3649 83.6054 93.4263 83.1687C93.4878 82.7311 93.5791 82.3034 93.7012 81.883C93.9056 81.269 94.1605 80.6632 94.4662 80.0664C94.7718 79.4706 95.1335 78.9063 95.5521 78.3747C95.9698 77.843 96.4337 77.3611 96.9437 76.9289C97.4536 76.4967 98.0043 76.1296 98.5956 75.8285Z" fill="#3ECCCD"/>
<path fill-rule="evenodd" clip-rule="evenodd" d="M103.92 80.8008C103.654 81.0712 103.487 81.233 103.415 81.2864C103.343 81.3406 103.313 81.3325 103.323 81.261C103.334 81.1905 103.374 81.0829 103.446 80.9401C103.518 80.7981 103.574 80.6733 103.614 80.5666C103.778 80.1389 103.889 79.7465 103.951 79.3894C104.013 79.0313 104.125 78.7582 104.287 78.5675C104.409 78.4056 104.604 78.1452 104.869 77.7871C105.134 77.4291 105.449 77.0357 105.817 76.609C106.184 76.1831 106.598 75.7482 107.056 75.306C107.514 74.8639 107.989 74.4787 108.478 74.1523C108.662 74.0194 108.876 73.9651 109.121 73.9904C109.365 74.0157 109.58 74.0799 109.764 74.1848C109.948 74.2906 110.089 74.4226 110.193 74.5827C110.294 74.7418 110.304 74.8883 110.222 75.0212C109.998 75.4552 109.687 75.9787 109.289 76.5927C108.891 77.2075 108.494 77.8577 108.096 78.543C107.7 79.2284 107.336 79.9183 107.01 80.6118C106.684 81.3054 106.46 81.9301 106.337 82.4862C106.826 82.1354 107.345 81.6715 107.897 81.0956C108.448 80.5187 108.987 79.902 109.518 79.2447C110.05 78.5873 110.574 77.9219 111.095 77.2509C111.615 76.58 112.089 75.9625 112.517 75.3992C112.658 75.1984 112.837 75.1098 113.053 75.1342C113.267 75.1586 113.459 75.2418 113.634 75.382C113.808 75.523 113.935 75.7048 114.016 75.929C114.098 76.1523 114.088 76.3612 113.986 76.5547C113.475 77.6009 113.099 78.5892 112.854 79.516C113.546 79.0096 114.211 78.4716 114.842 77.9029C115.474 77.335 115.974 76.8992 116.341 76.5918C116.464 76.4959 116.587 76.42 116.709 76.363C116.831 76.307 116.964 76.25 117.106 76.1903C117.248 76.1316 117.413 76.0511 117.595 75.948C117.779 75.8458 118.002 75.7075 118.269 75.5357C118.616 75.3151 118.801 75.2337 118.819 75.2907C118.84 75.3476 118.727 75.5086 118.482 75.7753C118.034 76.2654 117.555 76.7907 117.045 77.3531C116.535 77.9146 116.015 78.4662 115.485 79.0069C114.954 79.5476 114.429 80.0612 113.909 80.5467C113.389 81.0323 112.894 81.4328 112.425 81.7466C112.282 81.8488 112.119 81.8904 111.936 81.8723C111.753 81.8542 111.573 81.8045 111.4 81.7258C111.227 81.6471 111.084 81.5432 110.972 81.4148C110.86 81.2864 110.803 81.1525 110.804 81.0142C110.783 80.7429 110.804 80.4229 110.865 80.0567C110.335 80.6824 109.778 81.2882 109.198 81.8768C108.616 82.4654 107.969 83.0333 107.255 83.583C107.092 83.7132 106.851 83.7973 106.536 83.8389C106.22 83.8796 105.903 83.8823 105.588 83.8443C105.27 83.8073 104.996 83.7196 104.762 83.5776C104.527 83.4374 104.399 83.2403 104.38 82.9881C104.358 82.6761 104.404 82.3316 104.517 81.9546C104.628 81.5766 104.771 81.1788 104.946 80.7601C105.117 80.3406 105.312 79.9237 105.526 79.5069C105.74 79.0901 105.939 78.6968 106.124 78.326C105.736 78.7555 105.358 79.1841 104.992 79.6118C104.624 80.0395 104.266 80.4355 103.92 80.8008Z" fill="#3ECCCD"/>
</svg>
