<svg width="194" height="156" viewBox="0 0 194 156" fill="none" xmlns="http://www.w3.org/2000/svg">
<path opacity="0.29" d="M107.26 74.7909C103.382 72.6825 100.279 74.5689 100.39 78.8966C100.39 79.2295 100.39 79.5624 100.501 79.8953L96.9548 82.1146C96.29 81.5598 95.6252 81.1159 94.8495 80.783C89.7525 78.0089 85.6527 80.4501 85.8743 86.2203C85.8743 86.3313 85.8743 86.4423 85.8743 86.5532L61.2755 102.31L38.228 117.069C37.1199 117.735 36.5659 119.177 36.5659 121.175C36.5659 121.729 36.6767 122.173 36.7875 122.728L35.7903 123.394C35.2363 123.838 35.0146 124.614 35.0146 125.613C35.0146 125.613 35.0146 125.613 35.0146 125.724L34.3498 126.168C34.0174 126.39 33.7958 126.945 33.7958 127.5C33.7958 128.054 34.0174 128.609 34.239 129.164L5.20801 149.804L34.793 130.163C35.1255 130.607 35.5687 130.94 36.0119 131.161C36.5659 131.494 37.12 131.494 37.4524 131.272L37.674 131.161C37.8956 131.272 38.1172 131.494 38.3388 131.605C39.2253 132.049 40.1117 132.049 40.6657 131.716H40.7765C40.7765 131.716 40.7765 131.716 40.8873 131.716L41.663 131.161C41.9954 131.383 42.3278 131.605 42.6602 131.827C44.4331 132.715 45.9844 132.715 47.0924 131.827C47.0924 131.827 57.9514 125.058 58.173 124.725C58.173 124.725 59.835 123.838 59.9459 123.616C59.9459 123.616 61.6079 122.728 61.7187 122.506L62.9376 122.284C63.0484 122.284 63.824 121.396 64.0457 120.953L69.6967 117.402C69.9183 117.291 70.0291 117.18 70.2508 117.069L72.9101 115.293L73.0209 115.182L74.2397 114.406C74.3505 114.295 74.5722 114.184 74.683 114.073L94.2955 101.534C94.6279 101.756 94.9604 101.977 95.2928 102.088C100.39 104.863 104.49 102.421 104.268 96.6511C104.268 95.4305 104.046 94.0989 103.603 92.7673L106.817 90.7699C107.038 90.8809 107.26 91.1028 107.592 91.2138C111.47 93.3221 114.573 91.4357 114.462 87.1081C114.351 82.2256 111.138 76.8992 107.26 74.7909Z" fill="#4769B2"/>
<ellipse rx="5.65341" ry="9.87214" transform="matrix(0.850148 -0.526544 0.525443 0.850829 102.247 79.3261)" fill="#D2DBE8"/>
<path d="M101.055 74.791C100.057 74.3472 99.2818 74.2362 98.5062 74.3472L85.0987 82.8915C84.3231 83.4463 83.8799 84.445 83.8799 85.8876C83.9907 88.7727 85.9852 92.1017 88.4229 93.3223C89.3093 93.7662 90.1958 93.8771 90.9714 93.7662L104.046 85.3328C105.044 84.8889 105.598 83.7792 105.598 82.2257C105.598 79.4516 103.492 76.0116 101.055 74.791Z" fill="#E1E7F1"/>
<ellipse rx="7.42703" ry="12.8671" transform="matrix(0.850148 -0.526544 0.525443 0.850829 89.9871 87.8602)" fill="#395BA9"/>
<path d="M94.185 91.6578C94.0742 87.774 91.3041 83.2244 87.8691 81.4489C86.207 80.5612 84.6558 80.5612 83.5477 81.3379L56.068 98.8705L33.0205 113.629C31.9124 114.295 31.3584 115.737 31.3584 117.735C31.4692 121.619 34.2393 126.168 37.6743 127.944C39.4472 128.831 40.9985 128.831 42.1065 127.944L64.7108 113.518C64.9324 113.407 65.0432 113.296 65.2648 113.185L69.3646 110.522C69.4754 110.411 69.697 110.3 69.8079 110.189L92.3013 95.7635C93.4094 95.3196 94.2958 93.7661 94.185 91.6578Z" fill="#E1E7F1"/>
<path d="M62.2726 94.876L55.9567 98.8707L32.9092 113.629C31.8011 114.295 31.2471 115.738 31.2471 117.735C31.3579 121.619 34.128 126.168 37.563 127.944C39.3359 128.832 40.8871 128.832 41.9952 127.944L64.5995 113.518C64.8211 113.407 64.9319 113.296 65.1535 113.185L69.2533 110.522C69.3641 110.411 69.5857 110.3 69.6965 110.189L62.2726 94.876Z" fill="#99B5DF"/>
<ellipse rx="4.43405" ry="7.65368" transform="matrix(0.850148 -0.526544 0.525443 0.850829 38.0216 120.707)" fill="white"/>
<path d="M37.2311 117.18C36.2338 116.736 35.4582 116.736 34.7933 117.069L32.9096 118.289L30.4719 119.843C29.9179 120.287 29.6963 121.064 29.6963 122.062C29.6963 124.282 31.3584 126.834 33.2421 127.833C34.1285 128.276 35.0149 128.276 35.569 127.943H35.6798C35.6798 127.943 35.6798 127.943 35.7906 127.943L37.4527 126.945H37.5635C37.5635 126.945 37.5635 126.945 37.6743 126.945L40.112 125.391C40.5552 124.947 40.8876 124.282 40.8876 123.283C40.666 120.731 39.1147 118.178 37.2311 117.18Z" fill="#395BA9"/>
<path d="M34.3492 125.28C34.3492 123.838 33.352 122.284 32.1331 121.619C31.5791 121.286 31.0251 121.286 30.5819 121.619L29.0306 122.617C28.6982 122.839 28.4766 123.394 28.4766 123.949C28.4766 125.391 29.4738 126.945 30.6927 127.611C31.2467 127.944 31.8007 127.944 32.1331 127.722L33.6844 126.723C34.2384 126.279 34.3492 125.835 34.3492 125.28Z" fill="#4265AF"/>
<path d="M32.6878 126.057C32.6878 127.278 31.9121 127.833 30.8041 127.167C29.696 126.612 28.8096 125.058 28.8096 123.838C28.8096 122.617 29.5852 122.062 30.6933 122.728C31.8013 123.394 32.577 124.837 32.6878 126.057Z" fill="#567CBE"/>
<path d="M30.2499 124.837L0 146.364L30.9147 125.835C30.9147 125.724 31.0255 124.948 30.2499 124.837Z" fill="#395BA9"/>
<ellipse rx="4.43405" ry="7.65368" transform="matrix(0.850148 -0.526544 0.525443 0.850829 87.9767 88.2258)" fill="#9ABEE5"/>
<path d="M87.3147 87.885C87.0931 87.6631 86.7607 87.5521 86.4283 87.774L68.367 99.2035C68.0346 99.4255 68.0346 99.7584 68.1454 100.091C68.2562 100.313 68.4778 100.424 68.6994 100.424C68.8102 100.424 68.921 100.424 69.0318 100.313L87.0931 88.8837C87.4255 88.6618 87.5363 88.2179 87.3147 87.885Z" fill="#77A1D5"/>
<ellipse rx="4.43405" ry="7.65368" transform="matrix(0.850148 -0.526544 0.525443 0.850829 72.1378 97.8477)" fill="#9ABEE5"/>
<path d="M73.6853 104.752C73.5745 100.868 70.8044 96.3184 67.3694 94.5429C65.7073 93.6552 64.1561 93.6552 63.048 94.4319L58.7266 97.2061C57.8402 97.9828 57.2861 99.3144 57.2861 101.09C57.3969 104.974 60.1671 109.523 63.602 111.299C65.2641 112.186 66.7046 112.186 67.8126 111.521L67.9234 111.41L68.0343 111.299L72.3557 108.525C73.2421 107.748 73.7961 106.416 73.6853 104.752Z" fill="#4066B0"/>
<ellipse rx="4.43405" ry="7.65368" transform="matrix(0.850148 -0.526544 0.525443 0.850829 63.4972 104.166)" fill="#567CBE"/>
<path d="M45.3192 126.501C45.2084 126.501 45.2084 126.501 45.0976 126.39C44.876 126.279 44.876 125.946 44.9868 125.835C48.5326 120.953 44.6544 115.737 42.7707 114.184C42.5491 114.073 42.5491 113.74 42.7707 113.629C42.8815 113.407 43.2139 113.407 43.3247 113.629C45.3192 115.405 49.5298 121.064 45.6516 126.501C45.5408 126.501 45.43 126.612 45.3192 126.501Z" fill="#4066B0"/>
<path d="M47.7574 124.615H47.6466C47.5358 124.504 47.5358 124.393 47.6466 124.282C48.8654 122.617 49.3087 120.731 49.0871 118.733C49.0871 118.622 49.1979 118.511 49.3087 118.511C49.4195 118.511 49.5303 118.622 49.5303 118.733C49.8627 120.842 49.3087 122.839 47.979 124.615C47.8682 124.504 47.7574 124.615 47.7574 124.615Z" fill="#4066B0"/>
<path d="M49.5298 123.283H49.419C49.3082 123.172 49.3082 123.061 49.419 122.95C50.6379 121.286 51.0811 119.399 50.8595 117.402C50.8595 117.291 50.9703 117.18 51.0811 117.18C51.1919 117.18 51.3027 117.291 51.3027 117.402C51.6351 119.51 51.0811 121.508 49.7515 123.283C49.6407 123.283 49.6407 123.283 49.5298 123.283Z" fill="#4066B0"/>
<path d="M54.1841 120.62H54.0733C53.9625 120.509 53.9625 120.398 54.0733 120.287C55.2922 118.623 55.7354 116.736 55.5138 114.739C55.5138 114.628 55.6246 114.517 55.7354 114.517C55.8462 114.517 55.957 114.628 55.957 114.739C56.2894 116.847 55.7354 118.845 54.4058 120.62C54.2949 120.62 54.1841 120.62 54.1841 120.62Z" fill="#4066B0"/>
<path d="M55.9566 119.399H55.8458C55.735 119.288 55.735 119.177 55.8458 119.066C57.0647 117.402 57.5079 115.515 57.2863 113.518C57.2863 113.407 57.3971 113.296 57.5079 113.296C57.6187 113.296 57.7295 113.407 57.7295 113.518C58.0619 115.626 57.5079 117.624 56.1782 119.399C56.1782 119.399 56.0674 119.399 55.9566 119.399Z" fill="#4066B0"/>
<path d="M57.8407 118.512C57.7299 118.512 57.7299 118.512 57.6191 118.401C57.3975 118.29 57.3975 117.957 57.5083 117.846C61.0541 112.963 57.1759 107.748 55.2922 106.194C55.0706 106.083 55.0706 105.751 55.2922 105.64C55.403 105.418 55.7354 105.418 55.8462 105.64C57.8407 107.415 62.0513 113.074 58.1731 118.512C58.1731 118.401 58.0623 118.512 57.8407 118.512Z" fill="#4066B0"/>
<path d="M51.9677 122.284C51.8569 122.284 51.8569 122.284 51.7461 122.173C51.5244 122.062 51.5244 121.73 51.6352 121.619C55.181 116.736 51.3028 111.521 49.4191 109.967C49.1975 109.856 49.1975 109.523 49.4191 109.412C49.5299 109.19 49.8624 109.19 49.9732 109.412C51.9677 111.188 56.1783 116.847 52.3001 122.284C52.3001 122.173 52.0785 122.284 51.9677 122.284Z" fill="#4066B0"/>
<rect width="58.3968" height="54.9303" transform="matrix(0.999959 -0.00911105 0.00908472 0.999959 50.3916 5.48535)" fill="#F1F2F2"/>
<rect x="48.6953" y="5.5" width="62.0536" height="13.7603" transform="rotate(-0.521325 48.6953 5.5)" fill="#4769B2"/>
<rect width="5.87293" height="5.88143" transform="matrix(0.999959 -0.00910946 0.00908314 0.999959 55.0459 22.8884)" fill="#4769B2"/>
<rect width="5.87293" height="5.88143" transform="matrix(0.999958 -0.0091126 0.00908627 0.999959 69.7842 22.7778)" fill="#4769B2"/>
<rect width="5.87293" height="5.88143" transform="matrix(0.999958 -0.0091126 0.00908627 0.999959 84.5225 22.6672)" fill="#4769B2"/>
<rect width="5.87293" height="5.88143" transform="matrix(0.999958 -0.0091126 0.00908627 0.999959 99.3701 22.4448)" fill="#4769B2"/>
<rect width="5.87293" height="5.88143" transform="matrix(0.999958 -0.0091126 0.00908627 0.999959 55.1582 34.3184)" fill="#4769B2"/>
<rect width="5.87293" height="5.88143" transform="matrix(0.999958 -0.0091126 0.00908627 0.999959 69.8945 34.0967)" fill="#4769B2"/>
<rect width="5.87293" height="5.88143" transform="matrix(0.999958 -0.0091126 0.00908627 0.999959 84.6328 34.4302)" fill="#C877B1"/>
<rect width="5.87293" height="5.88143" transform="matrix(0.999959 -0.00910943 0.00908311 0.999959 99.4814 34.3186)" fill="#4769B2"/>
<rect width="5.87293" height="5.88143" transform="matrix(0.999958 -0.0091126 0.00908627 0.999959 55.2676 46.0811)" fill="#4769B2"/>
<rect width="5.87293" height="5.88143" transform="matrix(0.999958 -0.0091126 0.00908627 0.999959 70.0059 45.9705)" fill="#4769B2"/>
<rect width="5.87293" height="5.88143" transform="matrix(0.999959 -0.00910946 0.00908314 0.999959 84.7441 45.8599)" fill="#4769B2"/>
<rect width="5.87293" height="5.88143" transform="matrix(0.999959 -0.00910946 0.00908314 0.999959 99.5928 45.7483)" fill="#4769B2"/>
<path d="M58.394 11.5406C57.6184 11.5406 56.9536 10.8748 56.9536 10.098L56.8428 1.77556C56.8428 0.998803 57.5076 0.333008 58.2832 0.333008C59.0589 0.333008 59.7237 0.998803 59.7237 1.77556L59.8345 10.098C59.8345 10.8748 59.1697 11.5406 58.394 11.5406Z" fill="#395BA9"/>
<path d="M68.6987 11.4295C67.9231 11.4295 67.2583 10.7637 67.2583 9.98692L67.1475 1.66448C67.1475 0.887719 67.8123 0.221924 68.5879 0.221924C69.3636 0.221924 70.0284 0.887719 70.0284 1.66448L70.1392 9.98692C70.1392 10.7637 69.5852 11.4295 68.6987 11.4295Z" fill="#395BA9"/>
<path d="M79.0044 11.3186C78.2288 11.3186 77.5639 10.6528 77.5639 9.87608L77.4531 1.55364C77.4531 0.776879 78.118 0.111084 78.8936 0.111084C79.6692 0.111084 80.3341 0.776879 80.3341 1.55364L80.4449 9.87608C80.5557 10.6528 79.8908 11.3186 79.0044 11.3186Z" fill="#395BA9"/>
<path d="M89.4194 11.3186C88.6438 11.3186 87.979 10.6528 87.979 9.87608L87.8682 1.55364C87.8682 0.776879 88.533 0.111084 89.3086 0.111084C90.0843 0.111084 90.7491 0.776879 90.7491 1.55364L90.8599 9.87608C90.8599 10.6528 90.1951 11.3186 89.4194 11.3186Z" fill="#395BA9"/>
<path d="M99.7241 11.2075C98.9485 11.2075 98.2837 10.5418 98.2837 9.76499L98.1729 1.44256C98.1729 0.665795 98.8377 0 99.6133 0C100.389 0 101.054 0.665795 101.054 1.44256L101.165 9.76499C101.165 10.5418 100.5 11.2075 99.7241 11.2075Z" fill="#395BA9"/>
<ellipse opacity="0.28" cx="169.643" cy="23.3029" rx="1.44047" ry="1.44256" fill="white"/>
<path opacity="0.29" d="M169.089 76.4553C169.089 76.6773 169.089 76.8992 169.089 77.1211L169.199 81.3378C169.199 81.5597 169.199 81.8926 169.199 82.1146C169.199 91.1028 159.559 98.5375 147.26 99.2033C146.817 99.2033 146.484 99.2033 146.041 99.2033C149.476 100.202 153.354 100.757 157.565 100.757C170.861 100.757 181.61 94.9866 181.61 87.7738C181.72 82.8913 176.623 78.6746 169.089 76.4553Z" fill="#4769B2"/>
<path d="M169.532 77.1211C169.532 67.8 169.754 38.9489 169.754 38.394C169.754 34.1773 167.649 30.1826 163.992 27.2974C162.773 26.1878 159.006 25.7439 158.673 20.7505C158.673 20.7505 136.512 15.2022 136.845 19.7518C137.177 23.5246 130.307 25.3001 128.313 27.2974C124.767 30.2935 122.551 34.1773 122.551 38.394V80.672H122.662C122.551 81.1159 122.551 81.6707 122.551 82.1146C122.551 91.5466 133.077 99.2033 146.152 99.2033C146.706 99.2033 147.26 99.2033 147.814 99.2033C160.003 98.5375 169.754 91.2138 169.754 82.1146C169.754 81.8926 169.754 81.5597 169.754 81.3378L169.532 77.1211Z" fill="#F3F3F3" stroke="#ECF4FB" stroke-width="4.616"/>
<path d="M165.654 50.3784C165.654 54.928 159.56 58.7009 151.25 59.9215H140.834C132.524 58.8118 126.54 54.928 126.54 50.3784V75.1238H126.651C126.651 75.5677 126.54 76.1225 126.54 76.6773C126.54 86.3313 135.294 94.2099 146.153 94.2099C157.012 94.2099 165.765 86.3313 165.765 76.6773C165.765 75.9006 165.765 75.2348 165.654 74.458C165.544 74.458 165.654 51.0442 165.654 50.3784Z" fill="#93C0E7"/>
<ellipse cx="146.153" cy="51.1553" rx="19.6125" ry="10.5418" fill="#B0D3F0"/>
<path d="M161.997 15.3132C161.775 16.2009 161.997 17.0886 161.554 17.8654C161.443 18.0873 161.221 18.3093 161 18.6422C161 18.6422 161 18.7531 160.889 18.7531C160.889 18.7531 160.889 18.6422 161 18.6422C158.34 21.8602 152.468 24.0795 145.598 24.0795C136.29 24.0795 128.755 21.5273 128.755 16.4228L128.645 23.7466V26.6317C128.645 31.7361 136.179 35.8419 145.598 35.8419C146.817 35.8419 148.035 35.7309 149.144 35.6199C156.789 34.7322 162.44 31.0703 162.44 26.6317V23.7466V16.7557C162.551 16.8667 161.997 15.2022 161.997 15.3132Z" fill="#4066B0"/>
<ellipse cx="145.709" cy="16.5339" rx="16.8424" ry="8.7663" fill="#567CBE"/>
<ellipse cx="145.598" cy="16.5338" rx="10.5265" ry="5.43733" fill="#7899CF"/>
<path opacity="0.33" d="M128.756 81.7818C126.873 81.7818 125.321 80.2283 125.321 78.3419V41.9451C125.321 40.0586 126.873 38.5051 128.756 38.5051C130.64 38.5051 132.191 40.0586 132.191 41.9451V78.3419C132.191 80.2283 130.64 81.7818 128.756 81.7818Z" fill="white"/>
<path d="M165.654 52.043C165.654 57.3693 156.9 61.697 146.041 61.697C135.182 61.697 126.429 57.3693 126.429 52.043" stroke="white" stroke-width="2.1598" stroke-linecap="round" stroke-linejoin="round"/>
<path d="M132.191 25.0784V29.8499" stroke="#2F2F81" stroke-width="2.308" stroke-linecap="round" stroke-linejoin="round"/>
<path d="M136.955 27.4084V32.18" stroke="#2F2F81" stroke-width="2.308" stroke-linecap="round" stroke-linejoin="round"/>
<path d="M142.607 28.2961V32.9567" stroke="#2F2F81" stroke-width="2.308" stroke-linecap="round" stroke-linejoin="round"/>
<path d="M148.812 28.2961V32.9567" stroke="#2F2F81" stroke-width="2.308" stroke-linecap="round" stroke-linejoin="round"/>
<path d="M153.909 27.1865V31.8471" stroke="#2F2F81" stroke-width="2.308" stroke-linecap="round" stroke-linejoin="round"/>
<path d="M158.23 25.522V30.1825" stroke="#2F2F81" stroke-width="2.308" stroke-linecap="round" stroke-linejoin="round"/>
<path opacity="0.4" d="M100.833 113.74C97.841 112.075 93.4087 111.964 90.7494 113.518C90.6386 113.518 90.5278 113.629 90.5278 113.629L68.2559 127.611C67.3695 128.165 66.8155 128.942 66.5938 129.608C65.929 131.162 67.2587 132.937 69.2532 134.047C70.0288 134.49 71.0261 134.823 72.0233 135.045C74.7934 135.6 78.1176 135.156 80.3337 133.714L101.276 120.62C102.606 119.732 103.381 118.733 103.492 117.624C103.714 116.292 102.827 114.85 100.833 113.74Z" fill="#B1CCEB"/>
<path fill-rule="evenodd" clip-rule="evenodd" d="M101.941 116.625V116.514C101.609 117.402 100.944 118.179 99.9465 118.844L77.5638 132.826C74.3504 134.823 68.921 135.156 65.5968 133.381C63.8239 132.382 62.4943 130.829 62.6051 129.497C62.8267 128.609 63.3807 127.944 64.378 127.278L88.3119 112.297C88.3119 112.297 88.4227 112.186 88.5335 112.186C91.4145 110.522 96.0683 110.633 99.2817 112.408C101.387 113.629 102.273 115.183 101.941 116.625ZM90.6384 117.513C91.1925 117.735 92.0789 117.735 92.6329 117.402C93.187 117.069 93.187 116.514 92.6329 116.181C92.0789 115.959 91.1925 115.959 90.6384 116.292C90.0844 116.625 90.0844 117.18 90.6384 117.513ZM90.7492 120.731C90.1952 120.398 90.1952 119.843 90.7492 119.51C91.3033 119.177 92.1897 119.177 92.7437 119.399C93.2978 119.732 93.2978 120.287 92.7437 120.62C92.1897 120.953 91.3033 121.064 90.7492 120.731ZM76.0121 128.72C75.4581 129.053 75.4581 129.608 76.0121 129.941C76.5661 130.274 77.4526 130.163 78.0066 129.83C78.5606 129.497 78.5606 128.942 78.0066 128.609C77.4526 128.387 76.5661 128.387 76.0121 128.72ZM70.6935 133.27C70.1395 132.937 70.1395 132.382 70.6935 132.049C71.2475 131.716 72.134 131.716 72.688 131.938C73.242 132.271 73.242 132.826 72.688 133.159C72.134 133.603 71.2475 133.603 70.6935 133.27ZM65.1533 130.274C65.7073 130.496 66.5937 130.496 67.1478 130.163C67.7018 129.83 67.7018 129.275 67.1478 128.942C66.5937 128.72 65.7073 128.72 65.1533 129.053C64.5992 129.386 64.5992 129.941 65.1533 130.274ZM70.4718 128.831C71.0259 128.498 71.9123 128.498 72.4663 128.72C73.0204 129.053 73.0204 129.608 72.4663 129.941C71.9123 130.274 71.0259 130.274 70.4718 130.052C69.9178 129.719 69.9178 129.164 70.4718 128.831ZM70.4718 126.945C71.0259 127.167 71.9123 127.167 72.4663 126.834C73.0204 126.501 73.0204 125.946 72.4663 125.613C71.9123 125.391 71.0259 125.391 70.4718 125.724C69.9178 126.057 69.9178 126.612 70.4718 126.945ZM87.3143 117.624C86.7603 117.957 85.8738 117.957 85.3198 117.735C84.7658 117.402 84.7658 116.847 85.3198 116.514C85.8738 116.181 86.7603 116.181 87.3143 116.403C87.8683 116.736 87.8683 117.18 87.3143 117.624ZM90.0844 123.172C90.5276 122.839 90.5276 122.284 90.0844 122.062L82.328 117.735C82.2172 117.624 81.9956 117.624 81.774 117.735L73.6852 122.728C73.242 123.061 73.242 123.616 73.6852 123.838L81.4416 128.166C81.5524 128.277 81.774 128.277 81.9956 128.166L90.0844 123.172ZM92.6329 114.184C92.0789 114.517 91.1925 114.517 90.6384 114.295C90.0844 113.962 90.0844 113.407 90.6384 113.074C91.1925 112.741 92.0789 112.741 92.6329 112.963C93.187 113.296 93.187 113.851 92.6329 114.184ZM96.0679 117.291C96.6219 117.513 97.5084 117.513 98.0624 117.18C98.6164 116.847 98.6164 116.181 98.0624 115.959C97.5084 115.737 96.6219 115.737 96.0679 116.07C95.5139 116.403 95.5139 116.958 96.0679 117.291Z" fill="#E1E7F1"/>
<path d="M65.3749 134.269C63.1588 133.048 61.8292 131.162 62.494 129.497C62.3832 130.829 63.7129 132.382 65.4857 133.381C68.8099 135.156 74.2394 134.823 77.4527 132.826L99.8354 118.844C100.943 118.179 101.608 117.402 101.941 116.625V116.736C101.83 117.846 101.054 119.066 99.6138 119.954L77.2311 133.936C74.9042 135.378 71.3584 135.933 68.3667 135.378C67.2586 135.045 66.2614 134.712 65.3749 134.269Z" fill="#5378BC"/>
<path fill-rule="evenodd" clip-rule="evenodd" d="M81.7747 117.735C81.8855 117.624 82.1071 117.624 82.3287 117.735L90.0851 122.063C90.4175 122.284 90.5283 122.95 90.0851 123.172L81.9963 128.166C81.8855 128.277 81.6639 128.277 81.4423 128.166L73.6859 123.838C73.3535 123.616 73.2427 122.95 73.6859 122.728L81.7747 117.735ZM82.9935 125.502C82.4394 125.28 81.553 125.28 80.999 125.613C80.4449 125.946 80.4449 126.501 80.999 126.834C81.553 127.056 82.4394 127.056 82.9935 126.723C83.5475 126.39 83.5475 125.835 82.9935 125.502ZM77.4532 123.727C76.8992 124.06 76.0127 124.06 75.4587 123.838C74.9047 123.505 74.9047 122.95 75.4587 122.617C76.0127 122.284 76.8992 122.284 77.4532 122.506C78.0072 122.839 78.0072 123.394 77.4532 123.727ZM82.7719 122.284C82.2178 122.062 81.3314 122.062 80.7774 122.395C80.2233 122.728 80.2233 123.283 80.7774 123.616C81.3314 123.838 82.2178 123.838 82.7719 123.505C83.3259 123.172 83.3259 122.617 82.7719 122.284ZM82.8827 120.398C82.3287 120.731 81.4422 120.731 80.8882 120.509C80.3342 120.176 80.3342 119.621 80.8882 119.288C81.4422 118.955 82.3287 118.955 82.8827 119.177C83.4367 119.51 83.4367 119.954 82.8827 120.398ZM86.4285 123.505C86.9826 123.727 87.869 123.727 88.423 123.394C88.9771 123.061 88.9771 122.506 88.423 122.173C87.869 121.952 86.9826 121.952 86.4285 122.284C85.8745 122.617 85.8745 123.172 86.4285 123.505Z" fill="#07B7AC"/>
<path d="M92.6327 114.184C92.0786 114.517 91.1922 114.517 90.6382 114.295C90.0841 113.962 90.0841 113.407 90.6382 113.074C91.1922 112.741 92.0786 112.741 92.6327 112.963C93.1867 113.296 93.1867 113.851 92.6327 114.184Z" fill="white"/>
<path d="M87.3143 117.624C86.7603 117.957 85.8738 117.957 85.3198 117.735C84.7658 117.402 84.7658 116.847 85.3198 116.514C85.8738 116.181 86.7603 116.181 87.3143 116.403C87.8683 116.736 87.8683 117.18 87.3143 117.624Z" fill="white"/>
<path d="M92.6327 117.402C92.0786 117.735 91.1922 117.735 90.6382 117.513C90.0841 117.18 90.0841 116.625 90.6382 116.292C91.1922 115.959 92.0786 115.959 92.6327 116.181C93.1867 116.514 93.1867 117.069 92.6327 117.402Z" fill="white"/>
<path d="M90.7495 120.731C90.1955 120.398 90.1955 119.843 90.7495 119.51C91.3035 119.177 92.19 119.177 92.744 119.399C93.298 119.732 93.298 120.287 92.744 120.62C92.19 120.953 91.3035 121.064 90.7495 120.731Z" fill="white"/>
<path d="M98.0624 117.18C97.5083 117.513 96.6219 117.513 96.0679 117.291C95.5138 116.958 95.5138 116.403 96.0679 116.07C96.6219 115.737 97.5083 115.737 98.0624 115.959C98.6164 116.181 98.6164 116.847 98.0624 117.18Z" fill="white"/>
<path d="M72.4667 126.834C71.9126 127.167 71.0262 127.167 70.4722 126.945C69.9181 126.612 69.9181 126.057 70.4722 125.724C71.0262 125.391 71.9126 125.391 72.4667 125.613C73.0207 125.946 73.0207 126.501 72.4667 126.834Z" fill="white"/>
<path d="M76.0122 129.941C75.4582 129.608 75.4582 129.053 76.0122 128.72C76.5662 128.387 77.4527 128.387 78.0067 128.609C78.5607 128.942 78.5607 129.497 78.0067 129.83C77.4527 130.163 76.5662 130.274 76.0122 129.941Z" fill="white"/>
<ellipse rx="1.44053" ry="0.887761" transform="matrix(0.999257 -0.0385351 0.0384239 0.999262 66.1542 129.614)" fill="white"/>
<path d="M70.4722 128.831C71.0262 128.498 71.9126 128.498 72.4667 128.72C73.0207 129.053 73.0207 129.608 72.4667 129.941C71.9126 130.274 71.0262 130.274 70.4722 130.052C69.9181 129.719 69.9181 129.164 70.4722 128.831Z" fill="white"/>
<path d="M70.5825 132.049C71.1365 131.716 72.023 131.716 72.577 131.938C73.131 132.271 73.131 132.826 72.577 133.159C72.023 133.492 71.1365 133.492 70.5825 133.27C70.0285 132.937 70.0285 132.382 70.5825 132.049Z" fill="white"/>
<path d="M82.8827 120.398C82.3286 120.731 81.4422 120.731 80.8882 120.509C80.3341 120.176 80.3341 119.621 80.8882 119.288C81.4422 118.955 82.3286 118.955 82.8827 119.177C83.4367 119.51 83.4367 119.954 82.8827 120.398Z" fill="white"/>
<path d="M88.4227 123.394C87.8687 123.727 86.9822 123.727 86.4282 123.505C85.8742 123.172 85.8742 122.617 86.4282 122.284C86.9822 121.952 87.8687 121.952 88.4227 122.173C88.9767 122.506 88.9767 123.061 88.4227 123.394Z" fill="white"/>
<path d="M77.453 123.727C76.899 124.06 76.0125 124.06 75.4585 123.838C74.9045 123.505 74.9045 122.95 75.4585 122.617C76.0125 122.284 76.899 122.284 77.453 122.506C78.007 122.839 78.007 123.394 77.453 123.727Z" fill="white"/>
<path d="M80.7768 122.395C81.3309 122.062 82.2173 122.062 82.7713 122.284C83.3254 122.617 83.3254 123.172 82.7713 123.505C82.2173 123.838 81.3309 123.838 80.7768 123.616C80.2228 123.283 80.2228 122.728 80.7768 122.395Z" fill="white"/>
<path d="M80.9985 125.613C81.5526 125.28 82.439 125.28 82.993 125.502C83.5471 125.835 83.5471 126.39 82.993 126.723C82.439 127.056 81.5526 127.056 80.9985 126.834C80.4445 126.501 80.4445 125.946 80.9985 125.613Z" fill="white"/>
<g opacity="0.4">
<path opacity="0.29" d="M180.834 107.97L137.842 103.531L114.13 124.615C103.714 134.158 101.609 145.143 113.465 153.133H113.576C113.576 153.133 113.576 153.133 113.686 153.133C129.199 158.681 147.814 155.685 162.552 148.361L192.358 133.048C193.909 132.271 194.463 130.274 193.577 128.831L180.834 107.97Z" fill="#4769B2"/>
<path d="M112.799 144.034H112.689H112.799L113.021 144.145C113.021 144.145 113.021 144.145 112.91 144.034C113.021 144.145 112.91 144.145 112.799 144.034C112.91 144.145 112.91 144.145 112.799 144.034Z" fill="#A8C4E4"/>
</g>
<path d="M177.622 103.309L134.851 98.8706L111.139 119.51C110.141 120.398 109.144 121.397 108.369 122.284L101.831 125.28L102.385 134.934C102.385 135.489 102.385 136.044 102.496 136.488V136.599C103.05 140.483 106.596 145.809 110.363 147.474C110.363 147.474 110.474 147.585 110.585 147.585C125.987 153.022 144.491 150.248 159.228 143.035L187.04 129.164C188.038 128.609 188.924 127.944 188.924 126.612L188.813 117.957L177.622 103.309Z" fill="#395BA9"/>
<path d="M173.965 94.2101L135.848 90.2154C134.297 90.1044 132.746 90.5483 131.638 91.547L110.252 110.633C100.058 119.954 97.9527 130.718 109.587 138.486H109.698C109.698 138.486 109.698 138.486 109.809 138.486C124.989 143.923 143.161 141.038 157.566 133.825L187.705 118.401C188.702 117.957 189.035 116.736 188.481 115.848L176.292 95.6527C175.849 94.765 174.962 94.2101 173.965 94.2101Z" fill="#4569B2"/>
<path d="M173.854 92.5456L135.737 88.5508C134.186 88.4399 132.634 88.8837 131.526 89.8824L110.141 108.858C99.9467 118.179 97.8414 128.942 109.476 136.71H109.587C109.587 136.71 109.587 136.71 109.698 136.71C124.878 142.147 143.05 139.262 157.455 132.049L187.594 116.625C188.591 116.181 188.923 114.961 188.369 114.073L176.181 93.8772C175.738 93.2114 174.851 92.6566 173.854 92.5456Z" fill="#567CBE"/>
<path d="M168.646 98.8706L135.293 95.8745L116.678 112.297C108.478 119.732 106.706 128.166 115.681 134.269C115.681 134.269 115.681 134.269 115.792 134.269C127.648 138.485 141.942 136.044 153.465 130.274L178.84 117.18L168.646 98.8706Z" fill="#E1E7F1"/>
<path d="M115.57 134.38L115.792 134.491C115.792 134.491 115.792 134.491 115.681 134.491C115.681 134.38 115.681 134.38 115.57 134.38C115.57 134.38 115.681 134.38 115.57 134.38Z" fill="#D63B5B"/>
<path d="M164.768 100.646L117.121 132.604C109.143 127.167 110.805 119.51 118.119 112.852L134.961 97.9829L164.768 100.646Z" fill="white"/>
<ellipse rx="15.8445" ry="9.09875" transform="matrix(0.998541 -0.0540048 0.0538492 0.998549 144.152 112.624)" fill="#C877B1"/>
<path d="M137.066 107.748C137.731 107.304 138.728 107.193 139.504 107.637L151.028 113.407C152.69 114.184 152.801 116.514 151.249 117.513C150.585 117.957 149.587 118.068 148.812 117.624L137.288 111.854C135.737 111.077 135.515 108.747 137.066 107.748Z" fill="#FDFEFF"/>
<path d="M150.363 106.86L150.807 107.082C152.358 107.859 152.469 109.967 151.028 110.855L140.059 118.179C139.394 118.623 138.618 118.623 137.842 118.29L137.399 118.068C135.848 117.291 135.737 115.183 137.178 114.295L148.147 106.971C148.812 106.527 149.699 106.527 150.363 106.86Z" fill="#FDFEFF"/>
<path d="M50.5273 19.3081L50.9706 60.4764H71.4696" stroke="#2F2F81" stroke-width="2.308" stroke-linecap="round" stroke-linejoin="round"/>
</svg>
