<svg width="194" height="156" viewBox="0 0 194 156" fill="none" xmlns="http://www.w3.org/2000/svg">
<path d="M59.2461 34.6764C72.2012 42.988 88.4006 52.5974 107.805 41.9866C127.21 31.3758 134.524 20.7349 152.296 17.5977C170.067 14.4604 184.819 23.8077 191.011 42.4851C197.202 61.1625 193.073 92.6984 185.046 106.734C177.02 120.766 166.664 132.206 144.733 132.206C124.121 132.206 113.666 121.944 99.0096 121.372C75.3509 120.448 66.4348 128.764 52.9468 134.725C39.0292 140.875 16.4747 137.6 11.8899 122.846C7.46842 108.625 14.9536 103.821 15.5466 95.2984C16.1868 86.0672 12.7665 71.5799 5.38442 55.9324C-3.13633 37.8695 -0.841788 26.5023 7.3567 21.4312C23.7923 11.2587 46.2909 26.3648 59.2461 34.6764Z" fill="#C1D2ED"/>
<path d="M13.3396 103.422C11.2551 108.434 8.82242 113.698 11.8052 123.207C16.3911 137.839 38.9553 141.087 52.8721 134.988C66.3677 129.076 75.2816 120.833 98.9461 121.745C113.606 122.312 124.063 132.49 144.681 132.49C166.617 132.49 176.975 121.148 185.004 107.228C185.67 106.073 186.311 104.794 186.917 103.418H13.3396V103.422Z" fill="#D2E3F0"/>
<path d="M37.9582 138.291C32.4697 138.291 27.252 137.246 22.8681 135.273C17.01 132.635 13.0558 128.501 11.4355 123.326C8.50862 113.996 10.7779 108.566 12.7765 103.776L12.9828 103.277C13.0644 103.081 13.2922 102.987 13.4899 103.068C13.6876 103.149 13.7822 103.375 13.7005 103.571L13.4942 104.07C11.4484 108.967 9.33812 114.03 12.1791 123.096C13.7349 128.057 17.5429 132.025 23.1947 134.574C31.8078 138.457 43.9495 138.482 52.7216 134.638C55.6614 133.351 58.425 131.932 61.0983 130.555C65.8561 128.108 70.7773 125.577 76.7085 123.816C83.3402 121.843 90.6252 121.042 98.9718 121.366C105.548 121.621 111.303 123.795 117.397 126.101C124.85 128.918 133.3 132.111 144.689 132.111C167.124 132.111 177.169 120.061 184.677 107.045C185.322 105.924 185.962 104.654 186.573 103.273C186.659 103.077 186.886 102.991 187.084 103.077C187.282 103.162 187.368 103.388 187.282 103.584C186.659 104.995 186.01 106.286 185.348 107.428C180.495 115.842 175.854 121.383 170.292 125.398C163.316 130.436 154.944 132.882 144.685 132.882C133.153 132.882 124.635 129.66 117.118 126.821C111.083 124.541 105.384 122.384 98.9375 122.137C80.5465 121.425 71.2716 126.195 61.4507 131.245C58.7688 132.626 55.9923 134.05 53.0311 135.35C48.7116 137.242 43.3865 138.291 38.0398 138.299C38.0097 138.291 37.9839 138.291 37.9582 138.291Z" fill="white"/>
<path d="M46 116.298C46 116.298 47.511 113.898 48.7745 112.199C50.0423 110.501 51.9614 108.333 51.9614 108.333C51.9614 108.333 54.9486 109.799 57.6232 111.063C60.6626 112.495 63.5022 114.113 63.5022 114.113C63.5022 114.113 64.4921 114.231 66.0943 114.375C67.5141 114.502 68.3998 114.329 68.5257 114.688C68.656 115.051 67.6356 115.474 67.2232 115.575C66.5545 115.74 65.6948 115.698 65.6948 115.698C65.6948 115.698 67.3751 116.783 68.8427 117.983C70.3103 119.183 72.2511 121.047 71.9732 121.397C71.6953 121.748 70.4014 120.616 68.7732 119.534C67.145 118.452 65.5038 117.658 65.3996 117.785C65.2954 117.916 66.4981 118.849 67.2666 119.597C68.0351 120.345 69.342 121.989 68.9339 122.268C68.5648 122.517 67.7225 121.651 67.1233 121.156C65.8815 120.134 65.0435 119.733 64.11 119.171C63.2677 118.664 62.5122 118.406 62.408 118.545C62.2387 118.786 63.5065 119.644 64.4313 120.548C65.3605 121.452 66.0291 122.614 65.6731 122.948C65.4169 123.189 64.9176 122.555 64.0492 121.87C63.1809 121.19 60.6495 119.678 60.2414 119.475C59.8333 119.272 59.5467 119.116 59.4382 119.23C59.3296 119.344 59.7247 119.694 60.3109 120.172C61.1966 120.894 61.722 121.668 61.4875 121.951C61.2531 122.234 60.1329 121.279 57.8056 120.404C55.8648 119.673 46 116.298 46 116.298Z" fill="#D37537"/>
<path d="M65.6582 102.974L65.3335 76.9407C65.3335 76.9407 67.6194 75.443 71.6015 72.5337C75.5837 69.6201 77.5149 68.3333 77.5149 68.3333C79.1214 95.7309 78.6728 95.7352 78.3694 103C74.7163 103 65.6582 102.974 65.6582 102.974Z" fill="#D37537"/>
<path d="M12.453 72.4736C14.7275 62.2059 18.322 57.2186 26.1602 54.0848C32.9579 51.3692 39.4332 50.464 48.0067 51.3002C57.1821 52.1925 62.0751 54.5288 65.3299 55.9254C68.5847 57.322 70.1584 58.9256 70.8463 59.1497C71.5386 59.3739 73.0606 58.7187 73.9721 59.4558C74.8837 60.1929 73.5336 61.3524 74.3462 62.0076C75.1545 62.6628 76.367 61.7145 77.0464 62.3956C77.7257 63.0766 76.4186 64.2189 77.0464 64.9431C77.6741 65.6673 78.4352 64.9646 79.007 65.581C79.5789 66.1974 79.523 67.2363 77.8289 68.3872C76.1349 69.5381 65.4804 77.0902 65.4804 77.0902L65.7985 103.134L43.4405 103.673C43.4405 103.673 49.748 107.083 52.3923 108.182C50.681 110.268 46.4975 116.333 46.4975 116.333C46.4975 116.333 43.5221 115.82 37.1071 114.032C30.692 112.243 19.0959 108.561 16.0131 107.04C12.9346 105.523 8.69942 103.634 9.41316 95.3539C10.1269 87.0734 10.1785 82.7413 12.453 72.4736Z" fill="#10B984"/>
<path d="M42.3794 42.9975C42.4798 43.1898 59.9114 32.0405 59.9114 32.0405C59.9114 32.0405 61.1419 32.0234 61.3164 31.1598C61.491 30.3005 60.3085 28.9239 57.3894 27.9792C54.4703 27.0344 51.0756 26.3333 49.1863 26.3333C47.2969 26.3333 43.3917 27.3507 41.9824 32.0105C40.1192 38.1795 40.2196 42.7623 42.3794 42.9975Z" fill="#181719"/>
<path d="M46.7431 36.4426C46.7431 36.4426 47.7921 35.8841 48.1673 33.6457C48.5425 31.4073 49.5488 30.3333 51.5913 30.3333C53.6337 30.3333 59.9998 32.0432 59.9998 32.0432C59.9998 32.0432 59.9615 35.0549 59.0404 40.2878C58.1194 45.5207 56.1026 49.3057 52.0475 48.962C50.5253 55.0757 50.3206 58.4827 44.9949 57.4988C40.0444 56.2357 41.0336 51.4023 41.6988 48.266C42.364 45.1297 42.9993 42.7066 43.4044 40.8034C41.7415 40.4596 40.2661 39.5273 40.765 37.173C41.2895 34.694 43.4598 34.7112 44.4704 34.8959C45.9116 35.1623 46.7431 36.4426 46.7431 36.4426Z" fill="#D37537"/>
<path d="M55.0096 41.13C50.8725 40.1359 47.415 38.3333 47.415 38.3333C47.415 38.3333 47.5042 39.9857 46.54 41.2317C45.0491 43.1581 44 43.2994 44 43.2994C44.3695 44.0417 45.4611 48.6014 51.9004 49.6441C51.9004 49.6353 51.9004 49.653 51.9004 49.6441C55.6679 49.9755 57.6685 46.6043 58.6667 41.7795C57.6515 41.6691 56.4155 41.4703 55.0096 41.13Z" fill="#E3F1FA"/>
<path d="M56.1523 43C56.0766 43 56.0092 42.9394 56.0008 42.8614C55.9924 42.7748 56.0513 42.6968 56.1355 42.6882C56.6953 42.6275 57.3982 42.2118 57.655 41.5362C57.8359 41.0641 57.4066 40.3928 57.032 39.7995C56.9057 39.6003 56.7837 39.4097 56.6869 39.2322C56.6448 39.1585 56.6742 39.0633 56.7458 39.02C56.8174 38.9766 56.91 39.007 56.952 39.0806C57.0446 39.2495 57.1625 39.4357 57.2846 39.6306C57.7013 40.2846 58.1727 41.0251 57.937 41.6531C57.6255 42.476 56.8005 42.9307 56.1692 43C56.165 43 56.1565 43 56.1523 43Z" fill="#202020"/>
<path d="M51.9998 49.4605C50.6633 49.2305 49.5657 48.8247 48.6665 48.3333L51.2141 52.9999L51.9998 49.4605C51.9958 49.4605 51.9958 49.465 51.9998 49.4605Z" fill="#181719"/>
<path d="M44.2983 39C44.2767 39 44.2551 38.9952 44.2335 38.9855C44.1557 38.9469 44.1211 38.8408 44.1557 38.7539C44.4495 38.0397 44.4236 37.6634 44.0606 37.4462C43.542 37.1326 43.1229 37.6151 42.9587 37.9481C42.9155 38.0301 42.8204 38.0639 42.7469 38.0156C42.6735 37.9674 42.6432 37.8612 42.6864 37.7792C42.9716 37.2049 43.5723 36.761 44.2075 37.1422C44.9724 37.6055 44.5835 38.5464 44.4366 38.9035C44.415 38.9614 44.3588 39 44.2983 39Z" fill="#202020"/>
<path d="M43.3335 103.667L34.8413 99.4907C29.1193 96.6764 27.4555 96.6161 27.4555 96.6161C27.4555 96.6161 28.4495 95.2241 27.8617 94.2242C27.1875 93.0779 25.9558 93.5174 25.3335 93.72C25.528 91.7677 27.5462 75.6667 27.5462 75.6667L29.7244 93.539L43.3335 103.667Z" fill="#202020"/>
<path d="M45.7982 59.4652C45.3245 59.4652 45.03 59.4221 45.0215 59.4221C44.9361 59.4091 44.8806 59.3313 44.8934 59.2449C44.9062 59.1585 44.9831 59.1024 45.0684 59.1153C45.1111 59.1197 49.1913 59.6856 51.5173 56.3982C51.5685 56.3291 51.6624 56.3118 51.7307 56.3636C51.799 56.4155 51.8161 56.5105 51.7649 56.5796C49.9595 59.1326 47.1512 59.4652 45.7982 59.4652Z" fill="#202020"/>
<path d="M63.5618 74.9864C63.5319 74.9864 63.502 74.9777 63.4721 74.9605C63.4038 74.9129 63.3868 74.8136 63.4337 74.7445C63.4593 74.7099 65.9646 71.064 68.376 68.6276C68.4358 68.5672 68.5339 68.5672 68.5937 68.6276C68.6534 68.6881 68.6534 68.7875 68.5937 68.8479C66.2036 71.267 63.7111 74.887 63.6898 74.9216C63.6557 74.9605 63.6087 74.9864 63.5618 74.9864Z" fill="#202020"/>
<path d="M63.9629 76.2044C63.9245 76.2044 63.8818 76.1872 63.8519 76.1569C63.7922 76.0964 63.7922 75.9971 63.8519 75.9366C63.8989 75.8891 68.6235 71.146 71.0691 69.1891C71.1374 69.1372 71.2313 69.1459 71.2867 69.215C71.3379 69.2841 71.3294 69.3792 71.2611 69.4353C68.8284 71.3835 64.1166 76.1137 64.0696 76.1612C64.0397 76.1872 64.0013 76.2044 63.9629 76.2044Z" fill="#202020"/>
<path d="M18.829 96.5549C18.765 96.5549 18.7052 96.516 18.6839 96.4512C18.654 96.3692 18.6967 96.2828 18.7778 96.2525L24.7358 94.0624C24.8169 94.0322 24.9023 94.0754 24.9322 94.1574C24.962 94.2395 24.9194 94.3259 24.8383 94.3561L18.8802 96.5463C18.8631 96.5506 18.846 96.5549 18.829 96.5549Z" fill="#202020"/>
<path d="M20.0238 100.966C19.9726 100.966 19.9213 100.94 19.8915 100.888C19.8488 100.814 19.8701 100.719 19.9427 100.676L26.4129 96.7538C26.4855 96.7106 26.5794 96.7322 26.622 96.8056C26.6647 96.8791 26.6434 96.9741 26.5708 97.0173L20.1006 100.94C20.0793 100.961 20.0537 100.966 20.0238 100.966Z" fill="#202020"/>
<path d="M47.8173 38.3333C47.7356 38.3333 47.6591 38.2817 47.6387 38.202C47.409 37.2594 46.7252 36.6263 46.7201 36.6216C46.6486 36.556 46.6486 36.4481 46.7201 36.3825C46.7915 36.3168 46.9089 36.3168 46.9804 36.3825C47.011 36.4106 47.7407 37.0906 47.9959 38.1316C48.0163 38.2207 47.9551 38.3145 47.8581 38.3333C47.8428 38.3286 47.8326 38.3333 47.8173 38.3333Z" fill="#202020"/>
<path d="M145.543 102.98L144.47 92.7057C144.47 92.7057 140.263 98.5777 139 100.306C137.738 102.034 135.725 105.008 131.509 105C127.593 104.991 93.3335 103.938 93.3335 103.938L93.956 91.6741L99.8592 91.4247L98.9147 83.5797L108.291 80.4975L113.069 90.277L114.851 90.1738C114.851 90.1738 117.732 65.7746 118.303 61.966C118.874 58.1574 120.278 52.5734 123.399 48.9024C127.009 44.6553 131.599 39.4754 139.009 38.5426C149.218 37.253 157.547 42.0976 163.322 48.2146C171.964 57.3707 177.961 72.0077 182.984 86.8853C186.363 96.9012 187.333 102.984 187.333 102.984H145.543V102.98Z" fill="white"/>
<path d="M106.667 77.6065C106.667 77.6065 104.588 73.2079 103.138 70.5322C101.689 67.8565 100.122 65.219 97.0488 62.7985C93.9758 60.378 92.8777 59.3826 92.3743 58.9445C91.8708 58.5106 91.2718 58.2043 91.0722 58.3872C90.8682 58.5659 91.1026 59.4252 92.1225 60.6928C93.1425 61.9605 94.2189 63.4366 93.5375 64.3044C92.856 65.1765 90.56 64.9298 88.9628 64.5937C87.5913 64.3044 85.7076 63.7514 85.3777 64.4746C85.0479 65.1935 86.6017 66.0698 88.7501 66.8015C88.047 67.0269 87.4133 67.4736 87.4307 68.0649C87.448 68.5584 87.9819 68.8604 87.9819 68.8604C87.9819 68.8604 87.6043 69.2815 87.6217 69.6984C87.6434 70.4003 88.4116 70.6938 88.4116 70.6938C88.4116 70.6938 87.6173 72.3444 89.5184 72.4422C91.4194 72.54 94.2102 72.3997 94.9177 72.3571C95.6251 72.3103 96.2718 72.2976 96.7319 73.544C97.192 74.7904 99.0409 80.3333 99.0409 80.3333L106.667 77.6065Z" fill="#0F4AFF"/>
<path d="M73.5614 88.5701C74.448 88.8288 79.2989 90.6099 81.7265 91.1824C84.1542 91.7549 85.7424 92.4546 90.6665 91.8864C90.5072 94.4393 90.1543 100.957 90.1543 100.957C90.1543 100.957 89.3279 100.529 86.1815 100.529C81.9202 100.529 78.4639 101.369 76.1611 101.593C73.712 101.835 71.7105 101.428 70.8238 101.093C69.9372 100.758 69.6359 100.521 69.6918 100.287C69.7435 100.058 70.6172 100.118 71.5556 100.296C72.5628 100.487 73.6819 100.508 73.7034 100.296C73.7249 100.084 71.3361 99.842 70.0878 99.3883C68.8353 98.9345 68.0519 98.5783 68.1466 98.2984C68.2413 98.0185 69.0031 98.239 70.4924 98.3535C71.7363 98.4511 75.0635 98.7818 74.9 98.2221C74.844 98.027 70.6775 97.8489 68.9988 97.2891C67.3202 96.7293 66.5583 96.2883 66.6788 95.9448C66.7994 95.597 68.8869 95.9872 70.7292 95.9872C72.6575 95.9872 76.3204 95.3044 76.5571 92.7557C76.669 91.5429 74.4265 90.6396 73.2902 90.0756C72.1496 89.5158 71.392 89.1299 71.59 88.6507C71.7837 88.1715 72.6747 88.3114 73.5614 88.5701Z" fill="#0F4AFF"/>
<g opacity="0.5">
<path d="M78 73.2282L79.6761 75L89.2986 66.6556L87.6833 65.0332L78 73.2282Z" fill="white"/>
</g>
<path d="M87.0947 64.4009L87.8428 63.7158L90.1249 66.2135L89.3768 66.8987L87.0947 64.4009Z" fill="#202020"/>
<path d="M91.3974 60.7114L92.006 60.154L94.288 62.6517L93.6794 63.2091L91.3974 60.7114Z" fill="#202020"/>
<path d="M86.2856 65.6666C86.2364 65.6666 86.1995 65.6623 86.1933 65.6623C86.0702 65.6537 85.984 65.5766 86.0025 65.4908C86.0148 65.4051 86.1256 65.3451 86.2487 65.358C86.261 65.358 86.5688 65.3794 86.7411 65.2122C87.0919 64.8693 86.698 64.6164 86.6857 64.6035C86.5934 64.5478 86.5872 64.4492 86.6672 64.3849C86.7472 64.3206 86.8888 64.3163 86.9811 64.3721C87.2273 64.5264 87.5659 64.9336 87.1042 65.388C86.8519 65.6366 86.4641 65.6666 86.2856 65.6666Z" fill="#202020"/>
<path d="M92.1642 72.3246C92.0975 72.3246 92.0353 72.2861 92.013 72.222C91.9864 72.1408 92.0308 72.0553 92.1108 72.0254C93.7375 71.4869 93.9419 71.1194 93.9197 70.9485C93.8886 70.6878 93.4353 70.5083 93.2753 70.4656L92.6664 70.2989L93.2842 70.1707C94.0308 70.0126 94.5108 69.8801 94.4886 69.4699C94.4619 69.0083 93.3597 68.8887 92.9775 68.8801V68.5724C93.4486 68.5724 93.7997 68.4784 93.9642 68.3117C94.0486 68.222 94.0886 68.1109 94.0797 67.9741C94.0619 67.6835 93.7508 67.5553 92.8042 67.4442C91.9553 67.3459 89.8664 67.1579 89.8442 67.1536C89.7553 67.1451 89.693 67.0724 89.6975 66.9869C89.7064 66.9015 89.7819 66.8416 89.8708 66.8459C89.893 66.8459 91.9864 67.0382 92.8397 67.1365C93.6664 67.2348 94.3553 67.363 94.3953 67.9528C94.4086 68.1793 94.3419 68.3673 94.1953 68.5211C94.1286 68.5938 94.0442 68.6536 93.9419 68.7006C94.3686 68.816 94.7819 69.034 94.8086 69.4485C94.8442 69.9998 94.3597 70.222 93.813 70.363C94.0086 70.4827 94.2042 70.6622 94.2353 70.9143C94.2975 71.4015 93.6708 71.8331 92.213 72.316C92.1997 72.3246 92.1819 72.3246 92.1642 72.3246Z" fill="white"/>
<path d="M89.3644 69.0043L89.3511 68.6966L92.9777 68.5769C93.0666 68.5769 93.1422 68.641 93.1422 68.7265C93.1466 68.8119 93.0755 68.8846 92.9866 68.8846L89.3644 69.0043Z" fill="white"/>
<path d="M89.7244 70.953C89.6488 70.953 89.5821 70.9017 89.5688 70.8248C89.5555 70.7393 89.6133 70.6624 89.6977 70.6453C89.7199 70.641 91.8044 70.2991 93.4221 70.1795C93.511 70.1709 93.5866 70.235 93.5955 70.3205C93.6044 70.406 93.5377 70.4786 93.4488 70.4872C91.8488 70.6068 89.7777 70.9444 89.7555 70.9487C89.7421 70.953 89.7333 70.953 89.7244 70.953Z" fill="white"/>
<path d="M99.1377 68.5725C99.1199 68.5725 99.1022 68.5683 99.0844 68.564C95.9866 67.5213 95.8977 65.9272 95.8933 65.8631C95.8888 65.7777 95.9599 65.705 96.0488 65.705C96.1377 65.7008 96.2088 65.7691 96.2133 65.8546C96.2133 65.876 96.3244 67.3119 99.1866 68.2777C99.271 68.3076 99.3155 68.3931 99.2844 68.4743C99.2666 68.5298 99.2044 68.5725 99.1377 68.5725Z" fill="white"/>
<path d="M100.201 83.0001L108 80.5112C108 80.5112 107.432 79.2856 106.664 77.6667L99.333 80.3564L100.201 83.0001Z" fill="#FFC19E"/>
<path d="M90 100.924C91.9239 101.259 93.4233 101.667 93.4233 101.667C93.4233 101.667 93.8247 94.2219 94 91.6667C92.8143 91.7941 91.7255 91.8111 90.549 91.8493L90 100.924Z" fill="#FFC19E"/>
<path d="M133.18 77.0001C133.135 77.0001 133.089 76.9782 133.06 76.9344C128.778 70.6731 125.379 61.9729 125.346 61.8853C125.312 61.8065 125.35 61.7146 125.429 61.6795C125.503 61.6445 125.59 61.6839 125.623 61.7671C125.657 61.8547 129.043 70.5198 133.305 76.7505C133.354 76.8206 133.338 76.9213 133.271 76.9694C133.242 76.9913 133.209 77.0001 133.18 77.0001Z" fill="#202020"/>
<path d="M100.154 91.6667C100.073 91.6667 100.009 91.6061 100.001 91.5239C99.9922 91.4374 100.056 91.3639 100.142 91.3553C100.38 91.3336 123.854 89.396 125.893 89.0933C127.842 88.8035 128.541 87.6011 129.194 86.1782C129.812 84.8288 140.927 57.3736 141.037 57.0968C141.072 57.0189 141.161 56.98 141.238 57.0103C141.315 57.0449 141.353 57.1357 141.323 57.2136C141.212 57.4904 130.098 84.9499 129.475 86.308C128.81 87.7568 128.038 89.089 125.94 89.4004C123.893 89.7074 100.159 91.6667 100.154 91.6667Z" fill="#202020"/>
<path d="M128.867 36.9486C128.867 36.9486 130.76 36.3378 130.894 35.3762C131.032 34.4147 129.982 33.7909 130.185 33.1845C130.384 32.5781 131.615 31.5342 130.898 30.3128C130.181 29.0913 128.975 29.4378 128.512 28.277C128.262 27.6446 128.292 26.3625 126.944 26.0506C125.876 25.8037 124.497 25.7431 124.026 24.6646C123.555 23.586 123.084 22.0743 121.464 22.2909C119.847 22.5032 119.441 22.1913 118.996 21.6152C118.291 20.7056 116.619 20.9525 116.165 21.7625C115.733 22.5378 114.994 22.7327 114.082 22.5075C112.707 22.1696 111.726 22.3732 111.346 23.599C111.074 24.474 110.754 25.5698 109.544 25.9293C108.381 26.2759 107.236 26.9299 107.625 28.4936C107.975 29.9143 107.707 30.7849 106.942 31.4303C105.805 32.3875 105.667 33.9772 106.925 34.6529C107.858 35.1553 108.135 35.4585 108.144 36.3941C108.157 37.3297 109.129 38.7331 112.098 38.3216L128.867 36.9486Z" fill="#0F4AFF"/>
<path d="M112.431 39.7552C116.519 44.7277 120.941 47.1577 124.619 44.8966C126.347 46.9801 126.481 47.2789 127.614 48.3575C128.746 49.436 131.387 51.2119 133.53 49.0852C135.674 46.9584 135.907 44.5631 133.751 41.674C130.807 37.7281 128.085 34.1373 128.085 34.1373C128.085 34.1373 128.867 33.5439 129.126 32.1708C129.342 31.036 129.247 29.5503 127.704 28.4588C126.875 27.874 125.591 27.8004 124.856 28.1599C123.59 28.788 122.713 30.0008 122.713 30.0008C122.713 30.0008 122.004 29.7062 121.377 29.9575C119.873 30.5595 119.242 29.6673 118.927 29.0392C118.611 28.4111 117.613 28.1123 116.77 28.8053C115.923 29.4983 115.171 29.3078 114.523 29.1562C113.641 28.9482 112.829 28.9699 112.561 30.1307C112.314 31.1789 112.02 31.885 111.087 32.0582C109.44 32.3614 107.867 34.2066 112.431 39.7552Z" fill="#FFC19E"/>
<path d="M131.455 51.6364C130.414 51.6364 129.696 51.3852 129.679 51.3765C129.597 51.3462 129.558 51.2552 129.588 51.1773C129.619 51.095 129.709 51.056 129.787 51.0863C129.969 51.1513 134.252 52.65 137.013 47.6905C137.056 47.6168 137.152 47.5865 137.225 47.6298C137.299 47.6731 137.329 47.7684 137.286 47.8421C135.514 51.0127 133.085 51.6364 131.455 51.6364Z" fill="#202020"/>
<path d="M127.916 34.9085C127.916 34.9085 126.204 35.3113 125.003 34.8695C123.745 34.4061 123.08 32.8121 122.95 31.2917C122.557 33.1023 121.701 34.9172 118.507 37.8842C116.614 39.6428 114.665 40.4744 113.395 40.8599C117.505 45.6029 121.934 46.807 124.623 44.9012C125.53 44.2558 126.049 43.6407 126.68 42.7571C128.409 40.3445 127.916 34.9085 127.916 34.9085Z" fill="#E3F1FA"/>
<path d="M125.223 31.9932C125.146 31.9932 125.076 31.9326 125.068 31.8503C125.063 31.8243 125.02 31.2396 125.34 30.8541C125.496 30.6678 125.712 30.5639 125.975 30.5379C126.252 30.5162 126.485 30.5899 126.675 30.7545C127.077 31.1096 127.116 31.7637 127.116 31.7897C127.121 31.8763 127.056 31.9499 126.969 31.9543C126.887 31.9543 126.809 31.8936 126.805 31.807C126.805 31.8027 126.771 31.2569 126.468 30.9883C126.343 30.8801 126.187 30.8324 125.997 30.8497C125.707 30.8757 125.522 31.0317 125.431 31.3305C125.353 31.5731 125.375 31.82 125.375 31.8243C125.383 31.9109 125.318 31.9846 125.232 31.9932C125.232 31.9932 125.228 31.9932 125.223 31.9932Z" fill="#202020"/>
<path d="M127.696 40.7471L127.605 40.7817C127.367 41.5311 127.065 42.2198 126.68 42.7569C126.049 43.6405 125.358 44.3465 124.636 44.9096C124.632 44.9053 124.666 44.9486 124.662 44.9399L124.623 44.8923C125.933 46.4732 126.33 47.0277 126.94 47.6731H127.009L127.696 40.7471Z" fill="#202020"/>
<path fill-rule="evenodd" clip-rule="evenodd" d="M122.397 48.73C122.552 48.7387 122.708 48.743 122.864 48.743C125.068 48.743 127.112 47.9937 128.408 46.7072C130.868 44.2556 132.519 40.1797 129.77 36.0822C127.414 32.5651 122.539 27.6662 122.492 27.6185L122.384 27.5103L122.276 27.6185C122.274 27.6205 122.259 27.6341 122.234 27.6584C121.814 28.0601 118.326 31.3944 115.119 33.8082C111.869 36.2511 108.165 38.066 108.126 38.0833L107.958 38.1656L108.07 38.3172C108.091 38.3475 110.516 41.5615 113.913 44.6974C117.232 47.8551 120.361 48.6304 122.397 48.73ZM114.125 44.4679C111.164 41.7348 108.951 38.9453 108.433 38.2783C109.202 37.8884 112.43 36.2208 115.304 34.0508C118.39 31.7248 121.735 28.5585 122.379 27.9391C123.11 28.6798 127.371 33.0459 129.515 36.2468C132.838 41.2063 129.342 45.3299 128.192 46.4777C125.768 48.8947 119.799 49.8649 114.125 44.4679Z" fill="white"/>
<path d="M109.436 39.7985C109.375 39.7985 109.319 39.7638 109.293 39.7032C109.259 39.6252 109.293 39.5343 109.375 39.4996C109.444 39.4693 116.221 36.4416 123.547 28.9525C123.607 28.8919 123.706 28.8919 123.767 28.9482C123.827 29.0088 123.827 29.1085 123.771 29.1691C116.403 36.7058 109.574 39.7508 109.505 39.7812C109.479 39.7941 109.457 39.7985 109.436 39.7985Z" fill="white"/>
<path d="M122.384 27.8829C122.345 27.8829 122.302 27.8655 122.272 27.8352C122.211 27.7746 122.211 27.675 122.276 27.6143C122.285 27.6057 123.361 26.5531 124.346 25.2667C124.398 25.1974 124.498 25.1844 124.567 25.2364C124.636 25.2883 124.649 25.388 124.597 25.4573C123.599 26.7654 122.51 27.8266 122.497 27.8396C122.462 27.8655 122.423 27.8829 122.384 27.8829Z" fill="white"/>
<path d="M117.367 42.0422C117.155 42.0422 116.965 41.9902 116.796 41.8819C116.459 41.661 116.303 41.2452 116.381 40.7687C116.515 39.9111 115.979 39.1228 115.971 39.1185C115.923 39.0492 115.94 38.9495 116.01 38.9019C116.079 38.8542 116.178 38.8716 116.226 38.9409C116.252 38.9755 116.844 39.8375 116.688 40.8207C116.632 41.1802 116.731 41.4704 116.965 41.622C117.267 41.8169 117.738 41.7476 118.227 41.4271C118.3 41.3795 118.395 41.4011 118.443 41.4748C118.49 41.5484 118.469 41.6437 118.395 41.6913C118.032 41.9209 117.678 42.0422 117.367 42.0422Z" fill="#202020"/>
<path d="M65.18 115.667C65.1457 115.667 65.1113 115.651 65.0812 115.625L63.3924 114.001C63.3237 113.939 63.3151 113.82 63.3666 113.737C63.4182 113.655 63.517 113.645 63.5858 113.707L65.2746 115.331C65.3433 115.393 65.3519 115.512 65.3003 115.595C65.2703 115.641 65.223 115.667 65.18 115.667Z" fill="#202020"/>
<path d="M81.2656 70.035L86.6667 68.3333L79.6652 74.9999L78 73.0674L81.2656 70.035Z" fill="white"/>
<path d="M72.8227 79.0001C72.7794 79.0001 72.7361 78.9829 72.7058 78.9485C72.6495 78.884 72.6538 78.7851 72.7231 78.7292L92.4074 61.7053C92.4723 61.6494 92.5719 61.6537 92.6282 61.7225C92.6845 61.787 92.6802 61.8859 92.6109 61.9418L72.9266 78.9657C72.8963 78.9872 72.8573 79.0001 72.8227 79.0001Z" fill="#202020"/>
<path d="M77.7191 75.6667L77.333 75.2052L78.5956 73.6667L79.333 74.5574L77.7191 75.6667Z" fill="#202020"/>
<path d="M114.667 90.2053L113.333 90.4613L114.659 90.2906L114.667 90.2053Z" fill="#202020"/>
<path d="M154.667 75L144.667 92.7114L145.713 103L154.667 75Z" fill="#202020"/>
<path fill-rule="evenodd" clip-rule="evenodd" d="M73.3333 54.3334C75.1754 54.3334 76.6667 52.8422 76.6667 51.0001C76.6667 49.158 75.1754 47.6667 73.3333 47.6667C71.4912 47.6667 70 49.158 70 51.0001C70 52.8422 71.4912 54.3334 73.3333 54.3334ZM73.3333 48.9518C74.4605 48.9518 75.3816 49.8685 75.3816 51.0001C75.3816 52.1273 74.4605 53.0483 73.3333 53.0483C72.2061 53.0483 71.2851 52.1273 71.2851 51.0001C71.2851 49.8729 72.2061 48.9518 73.3333 48.9518Z" fill="#E3F1FA"/>
<circle cx="149.421" cy="31.8066" r="1.00583" transform="rotate(-45 149.421 31.8066)" fill="#859FD2"/>
<ellipse cx="126.686" cy="117.642" rx="2.26214" ry="2.25967" transform="rotate(-76.7142 126.686 117.642)" fill="#859FD2"/>
<circle cx="32.5657" cy="123.731" r="2.59624" transform="rotate(-45 32.5657 123.731)" fill="white"/>
<circle cx="79" cy="112" r="1" fill="white"/>
<circle cx="35.1607" cy="29.4478" r="1.00583" transform="rotate(-45 35.1607 29.4478)" fill="#E3F1FA"/>
<circle cx="186.378" cy="66.9001" r="1.00583" transform="rotate(-45 186.378 66.9001)" fill="#E3F1FA"/>
<circle cx="176.733" cy="44.6582" r="3.93484" transform="rotate(-45 176.733 44.6582)" fill="#E3F1FA"/>
<path d="M175.176 37.998L175.802 37.876L176.845 43.4925L176.219 43.6145L175.176 37.998Z" fill="#E3F1FA"/>
<path d="M176.63 45.8269L177.256 45.7049L178.299 51.3214L177.673 51.4434L176.63 45.8269Z" fill="#E3F1FA"/>
<path d="M177.76 44.1316L183.242 43.0631L183.361 43.7043L177.879 44.7729L177.76 44.1316Z" fill="#E3F1FA"/>
<path d="M170.119 45.6211L175.601 44.5526L175.72 45.1938L170.238 46.2624L170.119 45.6211Z" fill="#E3F1FA"/>
<path d="M172.72 50.1353L175.859 45.4084L176.385 45.7755L173.247 50.5025L172.72 50.1353Z" fill="#E3F1FA"/>
<path d="M177.094 43.5474L180.233 38.8205L180.759 39.1876L177.621 43.9146L177.094 43.5474Z" fill="#E3F1FA"/>
<path d="M171.036 41.0789L171.395 40.5392L176.009 43.7551L175.65 44.2948L171.036 41.0789Z" fill="#E3F1FA"/>
<path d="M177.465 45.5632L177.824 45.0235L182.437 48.2394L182.079 48.7791L177.465 45.5632Z" fill="#E3F1FA"/>
<ellipse cx="183.291" cy="43.3876" rx="0.674583" ry="0.658534" transform="rotate(-86.6003 183.291 43.3876)" fill="#E3F1FA"/>
<ellipse cx="170.177" cy="45.9371" rx="0.659972" ry="0.673235" transform="rotate(-17.4275 170.177 45.9371)" fill="#E3F1FA"/>
<ellipse cx="177.985" cy="51.3797" rx="0.669597" ry="0.663663" transform="rotate(-55.7712 177.985 51.3797)" fill="#E3F1FA"/>
<ellipse cx="175.489" cy="37.9391" rx="0.669597" ry="0.663663" transform="rotate(-55.7712 175.489 37.9391)" fill="#E3F1FA"/>
<path d="M172.433 49.9369C172.639 49.6303 173.049 49.547 173.349 49.7573C173.648 49.9676 173.729 50.3882 173.524 50.6948C173.319 51.0015 172.908 51.0847 172.609 50.8744C172.309 50.6642 172.228 50.2436 172.433 49.9369Z" fill="#E3F1FA"/>
<ellipse cx="180.487" cy="39.0015" rx="0.658642" ry="0.674515" transform="rotate(-5.43007 180.487 39.0015)" fill="#E3F1FA"/>
<ellipse cx="171.213" cy="40.8075" rx="0.673734" ry="0.659457" transform="rotate(-76.0249 171.213 40.8075)" fill="#E3F1FA"/>
<ellipse cx="182.261" cy="48.5019" rx="0.663755" ry="0.669544" transform="rotate(-34.5053 182.261 48.5019)" fill="#E3F1FA"/>
<ellipse cx="108.406" cy="55.3192" rx="2.33918" ry="2.30561" transform="rotate(-89.7239 108.406 55.3192)" fill="#9CB4D5"/>
<path d="M108.588 54.6558L110.352 51.8152L110.671 52.0193L108.907 54.8599L108.588 54.6558Z" fill="#9CB4D5"/>
<path d="M106.142 58.6207L107.906 55.7801L108.225 55.9842L106.461 58.8248L106.142 58.6207Z" fill="#9CB4D5"/>
<path d="M108.853 55.8311L109.055 55.5072L111.854 57.2966L111.653 57.6205L108.853 55.8311Z" fill="#9CB4D5"/>
<path d="M104.963 53.3416L105.165 53.0177L107.964 54.8075L107.763 55.1314L104.963 53.3416Z" fill="#9CB4D5"/>
<path d="M104.499 56.0322L107.726 55.2893L107.809 55.6626L104.582 56.4056L104.499 56.0322Z" fill="#9CB4D5"/>
<path d="M108.998 54.9973L112.225 54.2544L112.309 54.6277L109.082 55.3707L108.998 54.9973Z" fill="#9CB4D5"/>
<path d="M107.344 51.4526L107.712 51.3679L108.444 54.6419L108.076 54.7267L107.344 51.4526Z" fill="#9CB4D5"/>
<path d="M108.364 56.0176L108.732 55.9329L109.464 59.2069L109.096 59.2916L108.364 56.0176Z" fill="#9CB4D5"/>
<path d="M111.551 57.7989C111.369 57.6811 111.315 57.4371 111.431 57.252C111.547 57.0669 111.787 57.0122 111.97 57.13C112.152 57.2478 112.206 57.4918 112.09 57.6769C111.974 57.862 111.734 57.9167 111.551 57.7989Z" fill="#9CB4D5"/>
<ellipse cx="105.055" cy="53.1858" rx="0.39007" ry="0.395191" transform="rotate(-12.7855 105.055 53.1858)" fill="#9CB4D5"/>
<ellipse cx="106.293" cy="58.7228" rx="0.394452" ry="0.390805" transform="rotate(-64.988 106.293 58.7228)" fill="#9CB4D5"/>
<ellipse cx="110.519" cy="51.9163" rx="0.395468" ry="0.389824" transform="rotate(-86.9271 110.519 51.9163)" fill="#9CB4D5"/>
<ellipse cx="104.552" cy="56.2143" rx="0.393881" ry="0.39143" transform="rotate(-57.7863 104.552 56.2143)" fill="#9CB4D5"/>
<path d="M112.181 54.046C112.393 53.9955 112.6 54.1302 112.65 54.3447C112.7 54.5593 112.567 54.7696 112.355 54.8201C112.144 54.8706 111.937 54.736 111.887 54.5214C111.841 54.3069 111.974 54.0965 112.181 54.046Z" fill="#9CB4D5"/>
<path d="M107.91 51.3157C107.96 51.5302 107.827 51.7406 107.616 51.7911C107.404 51.8416 107.197 51.7069 107.147 51.4924C107.097 51.2778 107.23 51.0674 107.442 51.017C107.653 50.9665 107.865 51.1011 107.91 51.3157Z" fill="#9CB4D5"/>
<path d="M109.664 59.1536C109.714 59.3681 109.581 59.5785 109.37 59.629C109.158 59.6794 108.951 59.5448 108.901 59.3303C108.851 59.1157 108.984 58.9053 109.196 58.8548C109.407 58.8044 109.614 58.939 109.664 59.1536Z" fill="#9CB4D5"/>
<circle cx="18.1737" cy="37.739" r="4.32266" transform="rotate(-45 18.1737 37.739)" fill="#E3F1FA"/>
<path d="M16.4106 30.6338L17.1148 30.5042L18.2934 36.4989L17.5892 36.6285L16.4106 30.6338Z" fill="#E3F1FA"/>
<path d="M18.0547 38.9868L18.7589 38.8572L19.9375 44.8519L19.2333 44.9815L18.0547 38.9868Z" fill="#E3F1FA"/>
<path d="M19.3301 37.1758L25.5252 36.0353L25.6591 36.7167L19.464 37.8572L19.3301 37.1758Z" fill="#E3F1FA"/>
<path d="M10.6924 38.7637L16.8875 37.6232L17.0214 38.3046L10.8264 39.4451L10.6924 38.7637Z" fill="#E3F1FA"/>
<path d="M13.6343 43.5837L17.1814 38.5385L17.7741 38.9287L14.2269 43.9739L13.6343 43.5837Z" fill="#E3F1FA"/>
<path d="M18.5757 36.5513L22.1228 31.506L22.7155 31.8962L19.1683 36.9414L18.5757 36.5513Z" fill="#E3F1FA"/>
<path d="M11.7329 33.9197L12.1361 33.3462L17.35 36.7786L16.9468 37.3521L11.7329 33.9197Z" fill="#E3F1FA"/>
<path d="M18.9976 38.7046L19.4008 38.1311L24.6146 41.5636L24.2114 42.137L18.9976 38.7046Z" fill="#E3F1FA"/>
<ellipse cx="25.5901" cy="36.3712" rx="0.729876" ry="0.732705" transform="rotate(-48.3807 25.5901 36.3712)" fill="#E3F1FA"/>
<path d="M10.9014 39.8113C10.4969 39.8836 10.1099 39.6283 10.0307 39.2368C9.95597 38.8453 10.2198 38.4709 10.6244 38.3943C11.029 38.3177 11.4159 38.5772 11.4951 38.9687C11.5699 39.3602 11.306 39.7389 10.9014 39.8113Z" fill="#E3F1FA"/>
<path d="M18.852 45.0496C18.7773 44.6581 19.0411 44.2837 19.4457 44.2071C19.8503 44.1347 20.2372 44.3901 20.3164 44.7815C20.3955 45.173 20.1273 45.5475 19.7227 45.6241C19.3182 45.7007 18.9312 45.4411 18.852 45.0496Z" fill="#E3F1FA"/>
<ellipse cx="16.7658" cy="30.5668" rx="0.720704" ry="0.7417" transform="rotate(-75.4399 16.7658 30.5668)" fill="#E3F1FA"/>
<ellipse cx="13.9289" cy="43.7761" rx="0.722332" ry="0.74007" transform="rotate(-68.7827 13.9289 43.7761)" fill="#E3F1FA"/>
<ellipse cx="22.4195" cy="31.7019" rx="0.742373" ry="0.720017" transform="rotate(-10.7717 22.4195 31.7019)" fill="#E3F1FA"/>
<ellipse cx="11.934" cy="33.6317" rx="0.743" ry="0.719309" transform="rotate(-4.84957 11.934 33.6317)" fill="#E3F1FA"/>
<path d="M24.8329 41.2495C25.1716 41.475 25.2595 41.9219 25.0308 42.2495C24.7978 42.5772 24.336 42.6623 23.9974 42.441C23.6588 42.2197 23.5709 41.7687 23.7995 41.441C24.0282 41.1133 24.4943 41.0282 24.8329 41.2495Z" fill="#E3F1FA"/>
<circle cx="154.096" cy="117.544" r="4.24539" transform="rotate(-45 154.096 117.544)" fill="#9CB4D5"/>
<path d="M152.396 110.455L153.078 110.325L154.218 116.304L153.537 116.433L152.396 110.455Z" fill="#9CB4D5"/>
<path d="M153.984 118.791L154.666 118.661L155.806 124.64L155.125 124.769L153.984 118.791Z" fill="#9CB4D5"/>
<path d="M155.218 116.979L161.213 115.842L161.343 116.521L155.348 117.659L155.218 116.979Z" fill="#9CB4D5"/>
<path d="M146.86 118.568L152.855 117.431L152.985 118.11L146.99 119.248L146.86 118.568Z" fill="#9CB4D5"/>
<path d="M149.703 123.373L153.136 118.341L153.709 118.73L150.277 123.762L149.703 123.373Z" fill="#9CB4D5"/>
<path d="M154.488 116.362L157.921 111.33L158.494 111.719L155.062 116.751L154.488 116.362Z" fill="#9CB4D5"/>
<path d="M147.866 113.736L148.256 113.164L153.302 116.588L152.911 117.16L147.866 113.736Z" fill="#9CB4D5"/>
<path d="M154.899 118.506L155.289 117.934L160.334 121.357L159.944 121.929L154.899 118.506Z" fill="#9CB4D5"/>
<ellipse cx="161.273" cy="116.181" rx="0.719149" ry="0.717241" fill="#9CB4D5"/>
<ellipse cx="146.917" cy="118.905" rx="0.718978" ry="0.717368" transform="rotate(-16.213 146.917 118.905)" fill="#9CB4D5"/>
<ellipse cx="155.468" cy="124.7" rx="0.718829" ry="0.71759" transform="rotate(-24.7583 155.468 124.7)" fill="#9CB4D5"/>
<path d="M152.026 110.524C151.954 110.133 152.209 109.76 152.6 109.684C152.992 109.611 153.366 109.866 153.443 110.257C153.515 110.647 153.26 111.02 152.868 111.097C152.477 111.169 152.098 110.914 152.026 110.524Z" fill="#9CB4D5"/>
<ellipse cx="149.985" cy="123.561" rx="0.719115" ry="0.717223" transform="rotate(-3.68174 149.985 123.561)" fill="#9CB4D5"/>
<ellipse cx="158.208" cy="111.525" rx="0.719097" ry="0.717323" transform="rotate(-10.7717 158.208 111.525)" fill="#9CB4D5"/>
<ellipse cx="148.063" cy="113.451" rx="0.719097" ry="0.717323" transform="rotate(-10.7717 148.063 113.451)" fill="#9CB4D5"/>
<ellipse cx="160.14" cy="121.643" rx="0.719097" ry="0.717323" transform="rotate(-10.7717 160.14 121.643)" fill="#9CB4D5"/>
</svg>
