<svg width="194" height="156" viewBox="0 0 194 156" fill="none" xmlns="http://www.w3.org/2000/svg">
<path d="M118.409 105.518L101.055 123.736C101.055 123.736 94.9355 129.198 101.296 133.278C107.692 137.392 113.949 127.504 113.949 127.504L127.155 114.61C127.155 114.61 131.476 111.602 137.284 114.852C143.092 118.101 141.744 120.798 147.932 116.027C154.085 111.256 160.412 103.616 160.412 103.616L129.54 72.7451L116.196 86.5041C116.196 86.5041 114.122 89.6846 118.754 96.7023C123.352 103.72 118.409 105.518 118.409 105.518Z" fill="#F28A14"/>
<path opacity="0.5" d="M129.783 80.8L156.54 107.488L160.412 103.616L129.541 72.7451L116.68 85.7781C116.68 85.7781 113.742 88.3709 116.024 92.1391C118.305 95.8727 120.933 99.8482 119.965 102.51C119.031 105.172 116.922 107.903 116.922 107.903L98.8076 126.986L99.499 130.72C105.411 126.848 122.212 110.323 124.666 105.172C124.666 105.172 128.158 99.6062 121.659 90.86L120.76 89.5117L129.783 80.8Z" fill="#F28A14"/>
<path d="M27.0393 17.3288V110.357C27.0393 110.357 26.9702 114.61 40.8675 114.61C54.7993 114.61 108.21 114.61 108.21 114.61C108.21 114.61 113.915 112.95 116.888 107.903C119.861 102.821 122.35 101.369 117.337 94.7317C112.324 88.0942 120.172 82.1135 120.172 82.1135L130.128 70.8782L129.575 17.3633C129.575 17.3633 130.958 12.1086 125.288 12.1086C119.619 12.1086 30.0124 12.6272 30.0124 12.6272C30.0124 12.6272 26.4862 15.4965 27.0393 17.3288Z" fill="#55C1F0"/>
<path d="M113.396 63.342C113.396 82.7014 97.7011 98.4309 78.3071 98.4309C58.9478 98.4309 43.2183 82.736 43.2183 63.342C43.2183 43.9827 58.9132 28.2532 78.3071 28.2532C97.7011 28.2532 113.396 43.9827 113.396 63.342Z" fill="#85D1F5"/>
<path d="M69.2152 63.342C69.2152 66.9373 66.3113 69.8412 62.716 69.8412C59.1207 69.8412 56.2168 66.9373 56.2168 63.342C56.2168 59.7467 59.1207 56.8428 62.716 56.8428C66.3113 56.8428 69.2152 59.7467 69.2152 63.342Z" fill="#40B2E6"/>
<path d="M100.398 63.342C100.398 66.9373 97.4939 69.8412 93.8986 69.8412C90.3033 69.8412 87.3994 66.9373 87.3994 63.342C87.3994 59.7467 90.3033 56.8428 93.8986 56.8428C97.4939 56.8428 100.398 59.7467 100.398 63.342Z" fill="#40B2E6"/>
<path opacity="0.5" d="M34.0227 25.1764V114.61C34.0227 114.61 27.0049 116.58 27.0049 106.762C27.0049 96.9443 27.0049 17.9512 27.0049 17.9512C27.0049 17.9512 24.4467 12.0742 36.7883 12.0742C49.1299 12.0742 125.323 12.0742 125.323 12.0742C125.323 12.0742 130.163 14.7707 130.163 18.6771H37.1686H34.0227V25.1764Z" fill="#85D1F5"/>
<path d="M110.181 116.684H32.3289C28.2842 116.684 25 113.4 25 109.355V17.3289C25 13.2842 28.2842 10 32.3289 10H124.355C128.4 10 131.684 13.2842 131.684 17.3289V72.7451C131.684 73.8859 130.751 74.7848 129.644 74.7848C128.504 74.7848 127.605 73.8514 127.605 72.7451V17.3289C127.605 15.5658 126.153 14.1139 124.39 14.1139H32.3289C30.5658 14.1139 29.1139 15.5658 29.1139 17.3289V109.355C29.1139 111.118 30.5658 112.57 32.3289 112.57H110.216C111.357 112.57 112.255 113.504 112.255 114.61C112.255 115.751 111.322 116.684 110.181 116.684Z" fill="#263339"/>
<path d="M78.3419 98.7766C58.8097 98.7766 42.9419 82.8742 42.9419 63.3766C42.9419 43.8443 58.8442 27.9766 78.3419 27.9766C97.8741 27.9766 113.776 43.8789 113.776 63.3766C113.742 82.8742 97.8396 98.7766 78.3419 98.7766ZM78.3419 32.0559C61.0913 32.0559 47.0212 46.0914 47.0212 63.3766C47.0212 80.6617 61.0567 94.6973 78.3419 94.6973C95.5925 94.6973 109.663 80.6617 109.663 63.3766C109.663 46.0914 95.5925 32.0559 78.3419 32.0559Z" fill="#263339"/>
<path d="M62.7508 71.8807C58.0492 71.8807 54.2119 68.0434 54.2119 63.3418C54.2119 58.6403 58.0492 54.803 62.7508 54.803C67.4523 54.803 71.2896 58.6403 71.2896 63.3418C71.2896 68.078 67.4523 71.8807 62.7508 71.8807ZM62.7508 58.9168C60.2963 58.9168 58.3258 60.9219 58.3258 63.3418C58.3258 65.7618 60.3309 67.7668 62.7508 67.7668C65.1707 67.7668 67.1758 65.7618 67.1758 63.3418C67.1758 60.9219 65.1707 58.9168 62.7508 58.9168Z" fill="#263339"/>
<path d="M93.9334 71.8807C89.2318 71.8807 85.3945 68.0434 85.3945 63.3418C85.3945 58.6403 89.2318 54.803 93.9334 54.803C98.635 54.803 102.472 58.6403 102.472 63.3418C102.472 68.078 98.635 71.8807 93.9334 71.8807ZM93.9334 58.9168C91.4789 58.9168 89.5084 60.9219 89.5084 63.3418C89.5084 65.7618 91.5135 67.7668 93.9334 67.7668C96.3879 67.7668 98.3584 65.7618 98.3584 63.3418C98.3584 60.9219 96.3533 58.9168 93.9334 58.9168Z" fill="#263339"/>
<path d="M104.684 136.424C102.575 136.424 100.57 135.594 99.0493 134.108C95.938 130.996 95.938 125.949 99.0493 122.872L115.954 105.967C115.989 105.933 118.028 103.859 118.028 101.093C118.028 99.2263 117.13 97.394 115.332 95.5964C113.673 93.937 112.843 91.9665 112.947 89.8577C113.119 85.7093 116.715 82.5979 117.13 82.2522L128.054 71.328C128.849 70.5329 130.163 70.5329 130.958 71.328L161.829 102.199C162.209 102.58 162.417 103.098 162.417 103.651C162.417 104.204 162.209 104.723 161.829 105.103L150.836 116.097C150.283 116.753 147.24 120.038 143.299 120.21C141.191 120.349 139.22 119.484 137.561 117.825C135.763 116.027 133.931 115.129 132.064 115.129C129.298 115.129 127.224 117.168 127.224 117.203L110.319 134.108C108.833 135.594 106.828 136.424 104.684 136.424ZM129.506 75.6493L119.895 85.2599C119.031 85.9858 117.13 88.0601 117.026 90.0306C116.991 90.964 117.372 91.8282 118.201 92.6579C120.829 95.2853 122.142 98.12 122.108 101.128C122.073 105.622 118.927 108.733 118.789 108.837L101.919 125.707C100.432 127.194 100.432 129.648 101.919 131.135C103.405 132.621 105.86 132.621 107.346 131.135L124.251 114.23C124.355 114.126 127.432 110.98 131.96 110.946C131.995 110.946 132.029 110.946 132.029 110.946C135.002 110.946 137.837 112.259 140.43 114.852C141.26 115.682 142.124 116.062 143.092 116.027C145.097 115.924 147.171 113.988 147.724 113.296C147.759 113.262 147.793 113.193 147.863 113.158L157.473 103.548L129.506 75.6493Z" fill="#263339"/>
<path d="M137.284 82.5632C136.766 82.5632 136.247 82.3558 135.832 81.9755C135.037 81.1804 135.037 79.8667 135.832 79.0716L150.974 63.9298C151.769 63.1347 153.083 63.1347 153.878 63.9298C154.673 64.725 154.673 66.0386 153.878 66.8337L138.736 81.9755C138.356 82.3904 137.837 82.5632 137.284 82.5632Z" fill="#263339"/>
<path d="M152.633 97.9126C152.115 97.9126 151.596 97.7052 151.181 97.3249C150.386 96.5298 150.386 95.2161 151.181 94.421L166.323 79.2792C167.118 78.4841 168.432 78.4841 169.227 79.2792C170.022 80.0743 170.022 81.388 169.227 82.1831L154.085 97.3249C153.67 97.7052 153.152 97.9126 152.633 97.9126Z" fill="#263339"/>
<path d="M34.0226 50.2744C32.8817 50.2744 31.9829 49.341 31.9829 48.2347V38.7279C31.9829 37.5871 32.9163 36.6882 34.0226 36.6882C35.1634 36.6882 36.0622 37.6216 36.0622 38.7279V48.2347C36.0622 49.3755 35.1634 50.2744 34.0226 50.2744Z" fill="#263339"/>
<path d="M34.0226 75.4761C32.8817 75.4761 31.9829 74.5427 31.9829 73.4365V57.3959C31.9829 56.255 32.9163 55.3562 34.0226 55.3562C35.1634 55.3562 36.0622 56.2896 36.0622 57.3959V73.4365C36.0622 74.5427 35.1634 75.4761 34.0226 75.4761Z" fill="#263339"/>
<path d="M34.0226 33.7498C32.8817 33.7498 31.9829 32.8164 31.9829 31.7101V18.6771C31.9829 17.5363 32.9163 16.6375 34.0226 16.6375H48.9224C50.0632 16.6375 50.962 17.5709 50.962 18.6771C50.962 19.8179 50.0286 20.7167 48.9224 20.7167H36.0968V31.6755C36.0622 32.8164 35.1634 33.7498 34.0226 33.7498Z" fill="#263339"/>
<path d="M60.6073 20.7167H55.1798C54.039 20.7167 53.1401 19.7834 53.1401 18.6771C53.1401 17.5363 54.0735 16.6375 55.1798 16.6375H60.6073C61.7481 16.6375 62.647 17.5709 62.647 18.6771C62.647 19.8179 61.7481 20.7167 60.6073 20.7167Z" fill="#263339"/>
<path d="M84.9796 20.7167H68.0401C66.8993 20.7167 66.0005 19.7834 66.0005 18.6771C66.0005 17.5363 66.9339 16.6375 68.0401 16.6375H84.9796C86.1204 16.6375 87.0192 17.5709 87.0192 18.6771C87.0192 19.8179 86.1204 20.7167 84.9796 20.7167Z" fill="#263339"/>
<path d="M124.632 106.417C124.424 106.417 124.217 106.382 123.975 106.313C122.903 105.967 122.315 104.792 122.661 103.72C125.012 96.5986 119.55 91.2402 119.308 91.0328C118.893 90.6525 118.686 90.0994 118.686 89.5463C118.686 88.9932 118.893 88.44 119.308 88.0597L122.454 85.0176C123.283 84.2224 124.562 84.257 125.358 85.0521C126.153 85.8818 126.118 87.1609 125.323 87.956L123.595 89.6154C125.634 92.2428 128.918 97.9123 126.602 104.965C126.291 105.863 125.496 106.417 124.632 106.417Z" fill="#263339"/>
<path d="M132.202 85.4324C131.649 85.4324 131.131 85.225 130.716 84.7756L129.679 83.6693L129.437 83.8768C128.607 84.6373 127.293 84.5682 126.533 83.7385C125.772 82.9088 125.841 81.5951 126.671 80.8346L128.399 79.2789C129.229 78.5184 130.508 78.5875 131.269 79.3826L133.689 81.9408C134.484 82.7705 134.449 84.0496 133.62 84.8447C133.239 85.2596 132.721 85.4324 132.202 85.4324Z" fill="#263339"/>
<path d="M78.7568 146.864C78.2728 146.864 77.7888 146.864 77.3394 146.829C66.8992 146.311 57.2195 139.95 52.1031 130.201C51.5845 129.198 51.9648 127.954 52.9673 127.435C53.9699 126.917 55.2144 127.297 55.733 128.3C60.158 136.735 68.524 142.266 77.5468 142.715C86.0511 143.165 93.8295 139.051 98.8421 131.48C99.4644 130.547 100.744 130.27 101.677 130.892C102.61 131.515 102.887 132.794 102.265 133.727C96.6642 142.162 88.1599 146.864 78.7568 146.864Z" fill="#263339"/>
<path d="M29.494 131.653C29.4249 131.653 29.3558 131.653 29.2866 131.653C28.1458 131.549 27.3507 130.547 27.4544 129.406C27.9384 124.635 31.0843 120.936 35.8896 119.519C41.3171 117.894 47.4015 119.623 50.7202 123.736C51.4462 124.635 51.3079 125.914 50.4091 126.64C49.5103 127.332 48.2312 127.228 47.5052 126.329C45.2235 123.494 40.9022 122.319 37.0304 123.494C35.5093 123.944 31.9485 125.465 31.4991 129.855C31.43 130.858 30.5312 131.653 29.494 131.653Z" fill="#263339"/>
</svg>
