<svg width="194" height="156" viewBox="0 0 194 156" fill="none" xmlns="http://www.w3.org/2000/svg">
<path d="M34.1162 110.333C34.7469 110.514 34.7469 111.783 36.7289 111.693C38.7109 111.602 47.9004 107.07 53.1257 107.07C58.3511 107.07 67.7207 105.076 68.8018 104.714C69.8829 104.351 69.0721 102.086 69.0721 102.086C69.0721 102.086 63.9368 82.1462 60.9638 76.7081C57.9907 71.2701 47.6301 75.6205 45.4679 80.7867C43.3056 85.9528 34.1162 110.333 34.1162 110.333Z" fill="#E6E7E7"/>
<path d="M73.8492 148.659C73.9379 146.709 73.583 141.695 73.583 141.695L68.6138 141.788L69.2349 149.216L72.6069 151.445L73.8492 148.659Z" fill="#E6E7E7"/>
<path d="M74.3336 147.705C74.8779 147.626 74.6057 148.023 74.8779 148.737C75.3314 150.325 82.044 150.404 83.0418 150.484C83.586 150.563 84.4024 152.945 81.8626 152.945C79.5948 152.945 72.4287 152.945 69.9795 152.945C69.4353 152.945 68.9817 152.627 68.891 152.23C68.4374 150.642 68.5282 148.261 69.2538 148.181C70.2516 147.943 72.1566 148.181 74.3336 147.705Z" fill="#201F39"/>
<path d="M26.4935 141.9C28.0416 140.703 31.5021 137.206 31.5021 137.206L28.1326 133.34L22.9419 138.586L23.5794 142.728L26.4935 141.9Z" fill="#E6E7E7"/>
<path d="M27.4041 141.624C27.8594 141.992 27.313 142.084 26.8577 142.82C25.7649 144.385 30.136 149.631 30.5914 150.46C30.8646 150.92 29.3165 153.405 27.6773 151.38C26.2202 149.631 21.4848 144.109 19.9367 142.176C19.5724 141.808 19.5724 141.164 19.8456 140.795C20.9384 139.231 23.124 137.574 23.5793 138.034C24.49 138.586 25.5828 140.243 27.4041 141.624Z" fill="#201F39"/>
<path d="M61.9355 76.8195C64.8038 84.83 69.4647 110.122 70.0921 114.262C70.63 118.492 74.036 142.344 73.8568 143.784C68.9269 144.864 66.955 144.684 66.955 144.684C66.4172 141.174 64.7141 122.812 62.294 116.872C59.8739 110.932 52.7032 93.5606 52.7032 93.5606C51.0898 101.211 50.2831 110.302 47.3252 118.402C42.6643 128.933 29.757 139.464 29.757 139.464C26.1717 137.213 23.8412 135.143 24.4686 134.963C27.3369 131.093 39.6167 119.932 40.1545 115.432C40.6923 110.932 39.4375 88.5202 41.1405 77.4495C41.3198 76.2794 57.9916 76.4594 57.9916 76.4594L61.9355 76.8195Z" fill="#01517C"/>
<path d="M53.3225 47.2014L49.1152 44.9802C49.6161 43.1144 49.6161 38.4056 50.4175 36.8063C51.3191 35.0294 51.4192 35.2071 51.4192 35.2071L54.1239 37.6059L55.4262 38.761C55.4262 38.761 55.0255 39.4717 55.0255 40.8044C55.0255 41.6929 55.2258 42.9368 55.8269 44.4471C56.2276 45.691 53.3225 47.2014 53.3225 47.2014Z" fill="#EFAEA7"/>
<path opacity="0.14" d="M55.1145 39.2046C55.1145 39.2046 54.7489 39.9759 54.7489 41.1329C51.8241 41.5957 50.8187 39.5903 51.6413 39.1275C52.1897 38.819 53.9263 38.2019 53.9263 38.2019L55.1145 39.2046Z" fill="#201F39"/>
<path d="M56.7003 31.7224C56.7914 33.3423 58.3395 36.5821 57.2467 36.4921C56.1539 36.4021 57.3378 39.9119 56.1539 39.9119C53.2398 39.8219 50.0525 37.842 49.7793 36.4921C49.5061 35.1422 49.8704 31.2725 49.8704 31.2725L56.7003 31.7224Z" fill="#EFAEA7"/>
<path d="M53.6951 33.0722C54.6058 33.2522 54.6058 33.4322 55.2432 33.1622C55.8807 32.8922 54.8789 31.9923 56.0628 31.8123C57.2467 31.7223 58.5216 31.7223 58.7948 30.3724C59.068 28.4825 57.3377 28.6625 56.2449 28.8425C55.5164 28.9325 55.4253 27.4926 54.0594 27.4026C52.9666 27.4026 53.0576 28.0325 52.0559 28.0325C51.5095 28.0325 50.4167 27.0426 49.415 27.6726C47.6848 28.8425 48.9597 30.5524 47.5026 31.8123C45.7724 33.3422 49.415 36.942 49.8703 36.582C50.4167 36.132 49.7793 34.4221 50.3257 34.0622C51.1453 33.5222 51.2363 34.1522 51.7827 34.8721C52.4202 35.5921 53.6951 35.6821 52.9666 34.3322C52.147 33.0722 52.8755 32.9822 53.6951 33.0722Z" fill="#201F39"/>
<path d="M49.0926 40.5383C50.8462 39.9983 51.7692 42.1583 53.1537 42.1583C54.0767 42.1583 53.9844 41.4383 54.3536 40.9883C54.6305 40.7183 55.092 40.8983 55.7381 40.8983C57.584 40.9883 59.6146 75.0968 59.6146 75.0968C59.6146 75.0968 58.3224 78.6966 54.6305 78.6966C50.9385 78.7866 41.5241 76.5367 41.6164 75.2768C41.7087 74.0168 45.5852 42.4282 45.5852 42.4282C45.5852 42.4282 47.3389 41.0783 49.0926 40.5383Z" fill="#84BFD1"/>
<path d="M93.3623 37.7464C94.3485 37.4736 94.1512 37.2917 95.3346 36.6552C96.4194 36.0187 96.6166 35.8369 97.307 36.0187C97.8987 36.2006 97.8987 36.5643 98.2931 36.4734C99.0821 36.3824 99.9696 35.8369 100.265 36.5643C100.66 37.6554 101.054 38.3828 100.759 39.2921C100.364 40.2014 99.2793 40.4742 97.8987 40.7469C96.518 41.0197 94.5457 41.2016 93.954 41.2016C93.3623 41.2016 93.3623 37.7464 93.3623 37.7464Z" fill="#EFAEA7"/>
<path d="M57.0816 35.2021C56.2633 36.6668 53.8994 35.8531 53.0811 36.0158C52.5355 36.0972 53.172 37.3177 53.3538 37.8059C53.5357 38.3755 52.0809 40.0028 54.6267 40.1656C55.8087 40.2469 56.8998 41.0606 56.8088 39.5146C56.7179 38.05 57.3544 36.9109 57.3544 36.504C57.3544 36.1786 57.4453 35.4463 57.0816 35.2021Z" fill="#E6E7E7"/>
<path opacity="0.57" d="M55.8646 99.698C54.5457 96.2295 53.6147 93.6984 53.6147 93.6984C54.0027 91.2611 54.2354 88.4487 54.2354 88.4487C54.2354 88.4487 55.6319 95.5733 55.8646 99.698Z" fill="#201F39"/>
<path d="M56.7654 47.9533C57.4859 54.6525 56.4952 55.1051 56.5853 61.1706C56.6753 67.236 58.1163 97.4728 60.1878 101.456C62.4394 105.892 70.9054 105.439 70.1849 103.719C66.8525 95.6622 61.3586 68.3224 60.9984 65.9686C60.5481 63.6149 60.5481 51.7555 61.1785 49.7639C61.6288 48.4059 71.9861 47.8628 76.2191 47.3196C80.9024 46.7764 93.2411 43.1552 94.8623 42.0689C94.8623 41.3447 94.2318 38.9004 93.6014 37.4519C90.7194 38.3572 78.3807 41.3447 75.9489 41.3447C72.6166 41.3447 62.4394 41.2541 55.8647 41.1636" fill="#E6E7E7"/>
<path d="M49.0438 58.6596C49.7736 66.1287 49.8648 74.3177 49.8648 77.1073C49.8648 79.807 49.6824 94.7452 44.8472 103.204C43.0226 106.354 37.7312 110.943 36.6365 111.483C35.3592 112.113 32.6223 111.393 33.4434 108.784C41.3804 82.4167 39.0997 70.2682 39.3734 66.3086C39.4646 65.4087 39.4646 64.5988 39.3734 64.0589C39.2821 63.609 39.1909 63.159 39.0997 62.7091C38.7348 60.7293 38.0961 58.7495 38.0961 57.8496C38.0961 57.7597 38.0961 57.6697 38.0961 57.5797C37.2751 58.0296 34.9031 61.0893 33.9908 67.7485C33.5346 74.7676 35.1768 83.5865 35.1768 83.7665C33.3522 84.0365 30.3416 84.2165 29.6117 84.0365C29.2468 81.2468 27.5134 71.168 28.3345 66.3986C29.1556 62.0791 32.3486 51.9104 37.4575 47.3209C40.8331 44.2613 48.5876 41.2017 48.5876 41.2017C48.8613 43.1814 48.4052 51.6404 49.0438 58.6596Z" fill="#E6E7E7"/>
<path opacity="0.2" d="M38.6157 57.9519V58.3011C38.7024 59.1739 39.2226 61.0942 39.5693 62.9272C39.656 63.3636 39.7427 63.8 39.8294 64.2365C39.9161 64.7602 39.9161 65.4585 39.8294 66.4186C39.7427 67.2042 39.9161 67.9897 39.8294 68.9499C39.9161 68.7753 39.8294 68.6007 39.9161 68.4262C40.4363 67.466 41.9101 58.1265 41.5633 56.2062C41.65 56.1189 39.5693 57.0791 38.6157 57.9519Z" fill="#201F39"/>
<path d="M30.5103 89.1987L35.1684 89.4442C35.8991 89.4442 36.4471 90.2623 36.3558 91.1622L36.1731 93.6984L35.2597 93.6166L35.3511 91.8167C35.3511 91.1622 34.9857 90.5896 34.4377 90.5077L30.9669 90.3441C30.4189 90.3441 29.9622 90.835 29.8709 91.5713L29.7796 93.3712L28.8662 93.2894L29.0489 90.7532C29.2316 89.935 29.8709 89.1987 30.5103 89.1987Z" fill="#201B2C"/>
<path d="M34.6376 83.949C34.736 85.0892 34.8345 84.9942 35.2283 86.5145C35.6222 87.9397 36.9021 89.9351 36.1145 90.2202C35.3268 90.4102 34.736 89.5551 34.3422 89.365C33.9484 89.175 34.8345 90.0302 34.3422 90.6953C33.8499 91.3604 31.9792 91.7405 31.0931 91.1704C30.207 90.6003 29.6162 89.46 29.6162 88.0348C29.6162 86.6095 30.1085 84.7091 30.3054 84.139C30.6008 83.949 34.6376 83.949 34.6376 83.949Z" fill="#EEADA6"/>
<path d="M35.1915 89.2836C35.9083 89.2836 36.4459 90.1326 36.3563 91.0665L36.1771 93.6984L35.2811 93.6135L35.3707 91.7457C35.3707 91.0665 35.0122 90.4722 34.4746 90.3873L34.1162 89.1987L35.1915 89.2836Z" fill="#201B2C"/>
<path d="M47.1581 95.4733L46.7011 105.71C46.7011 106.323 45.9699 106.76 45.2387 106.76L21.5659 105.973C18.9153 105.885 19.0067 104.398 19.0067 103.785L19.0981 94.1609C19.0981 93.5484 20.1949 91.9735 22.2971 92.1485L43.3193 93.1109H44.1419C45.7871 93.1109 47.2495 94.1609 47.1581 95.4733Z" fill="#D2D3D4"/>
<path d="M47.1582 95.4733L46.7012 105.71C46.7012 106.323 45.97 106.76 45.2387 106.76C44.9645 106.148 44.8731 105.185 45.0559 103.698C45.5129 100.11 44.4161 95.9108 43.3193 93.0234H44.1419C45.7871 93.1109 47.2496 94.1609 47.1582 95.4733Z" fill="#D2D3D4"/>
<path d="M55.081 44.0852C54.9916 44.2738 54.8128 44.4624 54.7233 44.5567C54.0975 45.4053 53.2033 46.1597 52.3092 46.7255C51.0574 47.4798 49.7162 47.9513 48.4644 47.9513C48.375 47.9513 48.2856 47.9513 48.1962 47.9513C47.302 47.9513 46.7656 47.5741 46.4079 47.0083C45.5138 45.4053 46.855 42.3879 47.9279 39.9362C48.1962 39.3704 48.375 38.899 48.5538 38.4275C48.6432 38.2389 48.8221 38.1446 49.0009 38.2389C49.5374 38.4275 49.7162 38.6161 49.7162 38.6161C49.7162 38.6161 49.8056 38.6161 49.8056 38.7104C49.8056 38.899 49.8056 39.0876 49.7162 39.2761C49.6268 39.3704 49.448 39.3704 49.2691 39.2761C49.2691 39.2761 49.2691 39.2761 49.1797 39.2761C49.1797 39.2761 49.0903 39.1818 49.0009 39.1818C48.8221 39.559 48.6432 39.9362 48.4644 40.4077C47.5703 42.4822 46.1397 45.4996 46.855 46.8197C47.0338 47.1969 47.4809 47.3855 48.1068 47.3855C49.1797 47.4798 50.3421 47.1026 51.5045 46.4426C52.488 45.8768 53.3821 45.1224 54.0975 44.1795C54.3657 43.8023 54.5445 43.5194 54.7233 43.1422C55.081 42.3879 55.2598 41.7278 55.081 41.0677C54.9916 40.9735 54.9022 40.9735 54.9022 40.9735C54.9022 40.9735 54.9022 40.9735 54.8128 40.8792L54.5445 40.7849C54.3657 40.6906 54.2763 40.502 54.3657 40.3134C54.4551 40.1248 54.6339 40.0305 54.8128 40.1248L55.081 40.2191C55.1704 40.2191 55.1704 40.2191 55.1704 40.3134C55.1704 40.3134 55.2598 40.4077 55.5281 40.502C55.6175 40.5963 55.7069 40.5963 55.7069 40.6906C56.0645 41.7278 55.7963 42.9537 55.081 44.0852Z" fill="#595969"/>
<path d="M47.344 48.5213C46.0787 49.6012 44.8134 50.5912 43.277 51.3111C42.554 51.6711 41.7406 52.0311 40.8368 52.1211C40.656 52.1211 40.3849 52.2111 40.2041 52.1211C40.1137 52.1211 40.0234 52.1211 39.8426 52.1211H39.4811C39.3907 52.1211 39.3003 52.1211 39.1196 52.0311C39.0292 52.0311 38.9388 52.0311 38.758 51.9411L38.5773 51.8511C38.4869 51.8511 38.3965 51.7611 38.3062 51.7611C38.1254 51.6711 37.9446 51.5811 37.7639 51.4911C37.5831 51.4011 37.4024 51.3111 37.2216 51.1311C36.8601 50.9512 36.4986 50.6812 36.2274 50.4112C35.8659 50.1412 35.5948 49.9612 35.2333 49.7812C34.9621 49.6012 34.6006 49.4212 34.2391 49.2413C34.0583 49.1513 33.8776 49.1513 33.7872 49.0613C33.6968 49.0613 33.6064 49.0613 33.5161 48.9713C33.4257 48.9713 33.3353 48.9713 33.2449 48.9713H33.1546H33.0642H32.793H32.7027H32.6123H32.5219H32.4315H32.3411C31.9796 49.0613 31.6181 49.1513 31.2566 49.2413C30.8951 49.3313 30.5336 49.5112 30.2624 49.6912C29.6298 50.0512 29.0875 50.5912 28.5452 51.1311C28.003 51.6711 27.5511 52.3011 26.9184 52.931C26.3761 53.561 25.6531 54.101 24.9301 54.4609C24.5686 54.6409 24.207 54.8209 23.7551 55.0009C23.5744 55.0909 23.3936 55.0909 23.1225 55.1809C23.0321 55.1809 22.9417 55.2709 22.8514 55.2709C22.761 55.2709 22.6706 55.3609 22.5802 55.3609L22.1283 55.4509C22.0379 55.4509 21.9476 55.4509 21.7668 55.4509H21.5861H21.4053C21.3149 55.4509 21.2245 55.4509 21.0438 55.4509C20.5919 55.4509 20.14 55.3609 19.6881 55.1809C19.2362 55.0009 18.8747 54.8209 18.5132 54.5509C18.1517 54.2809 17.8805 54.011 17.519 53.741C16.9767 53.111 16.4345 52.4811 15.9826 51.9411C15.7114 51.6711 15.4403 51.4911 15.1691 51.3111C14.898 51.1311 14.6269 51.0411 14.2654 50.9511C13.9038 50.8612 13.6327 50.5912 13.7231 50.2312C13.8135 49.8712 14.0846 49.6012 14.4461 49.6912C14.898 49.7812 15.3499 49.9612 15.8018 50.2312C16.1633 50.5012 16.5248 50.7712 16.796 51.1311C17.3382 51.7611 17.7901 52.3911 18.3324 52.931C18.8747 53.471 19.417 53.921 20.0496 54.1909C20.6823 54.4609 21.4053 54.4609 22.1283 54.3709C22.2187 54.3709 22.3091 54.3709 22.3995 54.2809C22.4898 54.2809 22.5802 54.2809 22.6706 54.1909C22.8514 54.101 23.0321 54.101 23.2129 54.011C23.5744 53.921 23.9359 53.741 24.207 53.561C24.8397 53.201 25.4723 52.751 26.0146 52.2111C26.5569 51.6711 27.0088 51.0411 27.5511 50.4112C28.0933 49.7812 28.726 49.2413 29.449 48.7913C29.8105 48.6113 30.172 48.4313 30.6239 48.2513C30.9855 48.0713 31.4374 47.9813 31.8892 47.8913C32.7027 47.7114 33.6968 47.8013 34.5102 48.1613C34.8718 48.3413 35.3236 48.5213 35.5948 48.7913C35.9563 48.9713 36.2274 49.2413 36.589 49.5112C36.9505 49.7812 37.2216 49.9612 37.5831 50.1412C37.7639 50.2312 37.9446 50.3212 38.035 50.4112C38.2158 50.5012 38.3965 50.5912 38.4869 50.5912C39.1196 50.8612 39.8426 50.9512 40.5656 50.7712C41.2887 50.6812 41.9213 50.4112 42.6443 50.0512C42.6443 50.0512 42.7347 50.0512 42.7347 49.9612L42.8251 49.8712L43.0962 49.6912L43.3674 49.5112L43.6385 49.3313C43.8193 49.2413 43.9096 49.1513 44.0904 48.9713L44.5423 48.6113C44.6327 48.5213 44.7231 48.5213 44.8134 48.4313L44.9942 48.2513L45.4461 47.8913C45.7172 47.6214 45.9884 47.3514 46.2595 47.0814C46.5306 46.8114 46.9825 46.8114 47.2537 47.0814C47.6152 47.8013 47.6152 48.2513 47.344 48.5213Z" fill="#595969"/>
<ellipse cx="14.7172" cy="50.5912" rx="1.7172" ry="1.70989" fill="#595969"/>
<ellipse cx="14.7173" cy="50.5913" rx="0.994168" ry="0.989938" fill="white"/>
<path d="M99.6712 37.4756C97.9191 38.278 97.6005 37.5558 97.2023 38.1977C96.8041 38.9199 97.8394 40.2038 97.9987 40.284C98.2377 40.4445 99.5915 40.5247 99.8305 40.3642C100.069 40.2038 100.388 37.1546 99.6712 37.4756Z" fill="#EFAEA7"/>
<path d="M109.698 92.5669C109.427 92.7486 109.066 92.9303 108.794 93.1119C104.547 95.0193 99.2162 96.2001 92.9813 87.1171C89.7283 82.394 87.1079 63.7738 85.4814 47.8785C84.1259 35.3439 83.3127 24.5351 83.2223 23.2635C82.8609 20.357 81.7766 16.8146 86.656 16.4513C91.0837 16.0879 90.6319 19.267 94.2463 18.8128C97.2283 18.4495 96.0536 15.9971 98.674 15.7246C100.572 15.543 99.7584 17.3596 102.017 17.1779C104.186 16.9962 102.831 15.1796 104.186 14.998C105.722 14.7255 105.632 15.7246 106.084 17.3596C106.174 17.7229 106.445 19.6303 106.806 22.7185C107.439 28.0775 108.433 36.888 109.337 46.0619C109.427 47.3335 109.608 48.6051 109.698 49.8768C111.234 64.1371 112.59 78.6699 112.861 83.1206C112.861 83.4839 112.861 83.8472 112.861 84.0289C112.861 87.4804 112.951 90.5687 109.698 92.5669Z" fill="#84BFD1"/>
<path d="M112.803 83.3845C112.092 87.6464 110.848 87.7371 106.939 89.2787C99.2977 92.1804 96.3656 85.0167 94.944 80.0293C94.2332 77.5809 87.3028 28.1603 88.1913 25.4399C88.8133 23.5356 106.139 21.5407 107.028 22.9009C107.383 23.445 108.716 33.8732 109.96 46.0243C110.138 47.2938 110.226 48.5633 110.404 49.9235C111.826 64.7951 113.159 80.8454 112.803 83.3845Z" fill="#F4F3F2"/>
<path d="M126.97 21.1735C126.97 20.5405 126.512 20.3596 126.146 20.3596C125.872 20.3596 125.323 20.5405 125.414 21.264C125.414 21.7162 125.78 21.9875 125.872 22.5301C125.963 22.8014 125.78 23.0727 125.506 23.1631C124.865 23.2536 124.224 23.4344 123.675 23.7962C123.492 23.8866 123.218 23.7962 123.126 23.6153C122.669 22.8014 122.943 22.6205 122.76 22.3492C122.486 21.897 122.12 21.9875 121.845 22.1683C121.571 22.3492 121.388 22.6205 121.571 22.9822C121.845 23.4344 121.937 23.1631 122.577 24.1579C122.669 24.2483 122.669 24.4292 122.486 24.6101C122.028 25.0623 121.662 25.5144 121.296 26.1475C121.204 26.2379 121.113 26.3284 121.021 26.2379C120.564 26.0571 120.381 25.7857 120.198 25.7857C119.923 25.6953 119.74 25.8762 119.649 26.0571C119.557 26.2379 119.649 26.5092 119.832 26.5997C120.106 26.6901 120.198 26.5997 120.747 26.6901C120.838 26.6901 120.93 26.871 120.93 26.9614C120.747 27.4136 120.655 27.9562 120.655 28.4084C120.655 28.7701 120.381 29.0414 120.015 29.0414C119.191 29.0414 118.734 28.6797 118.276 28.7701C117.636 28.8606 117.544 29.4032 117.636 29.7649C117.727 29.9458 118.002 30.4884 118.642 30.398C119.191 30.3075 119.374 29.7649 120.198 29.584C120.472 29.4936 120.747 29.6745 120.838 29.9458C120.93 30.3075 121.113 30.6693 121.296 31.031C121.388 31.2119 121.388 31.3927 121.204 31.4832C120.655 31.9354 120.472 31.8449 120.289 32.0258C119.923 32.3875 120.106 32.6588 120.381 32.9302C120.564 33.111 120.93 33.2015 121.204 32.9302C121.479 32.6588 121.388 32.5684 121.662 32.0258C121.754 31.9354 121.937 31.9354 122.028 32.0258C122.394 32.3875 122.76 32.7493 123.218 33.0206C123.309 33.111 123.309 33.2015 123.309 33.2919C123.035 33.8345 122.76 34.0154 122.669 34.1962C122.577 34.4676 122.76 34.6484 122.943 34.7389C123.126 34.8293 123.401 34.8293 123.492 34.558C123.675 34.1962 123.492 34.1962 123.767 33.5632C123.767 33.4728 123.95 33.3823 124.041 33.4728C124.407 33.6536 124.773 33.7441 125.14 33.8345C125.323 33.8345 125.414 34.0154 125.414 34.1962C125.323 35.0102 124.865 35.3719 124.865 35.8241C124.865 36.4571 125.323 36.638 125.689 36.638C125.963 36.638 126.512 36.3667 126.421 35.7337C126.421 35.191 125.963 34.9197 125.872 34.1058C125.872 34.0154 125.963 33.8345 126.055 33.8345C126.695 33.8345 127.336 33.7441 127.885 33.4728C127.976 33.4728 128.159 33.4728 128.159 33.6536C128.251 34.1058 128.159 34.2867 128.251 34.4676C128.434 34.9197 128.8 34.8293 129.075 34.7389C129.349 34.6484 129.532 34.2867 129.441 34.0154C129.349 33.7441 129.166 33.7441 128.983 33.4728C128.8 33.2919 128.892 33.0206 129.075 32.8397C129.624 32.478 130.081 32.0258 130.447 31.4832C130.63 31.2119 130.996 31.2119 131.179 31.3927C131.82 31.8449 132.003 32.3875 132.369 32.5684C132.918 32.8397 133.376 32.5684 133.467 32.2067C133.559 32.0258 133.65 31.3927 133.01 31.1214C132.552 30.9406 132.094 31.1214 131.362 30.8501C131.088 30.7597 130.905 30.4884 130.996 30.2171C131.179 29.6745 131.271 29.0414 131.271 28.4988C131.271 28.4084 131.362 28.2275 131.545 28.3179C131.911 28.4084 132.094 28.4988 132.277 28.4988C132.644 28.4988 132.644 28.2275 132.735 28.0466C132.735 27.8658 132.644 27.5945 132.369 27.5945C132.003 27.5945 132.003 27.6849 131.454 27.6849C131.362 27.6849 131.271 27.5945 131.179 27.504C131.088 26.7805 130.813 26.1475 130.447 25.5144C130.356 25.3336 130.356 25.0623 130.539 24.8814C131.179 24.4292 131.362 24.6101 131.545 24.4292C131.911 24.1579 131.728 23.7962 131.545 23.5249C131.362 23.2536 130.996 23.1631 130.722 23.4344C130.356 23.7057 130.539 23.8866 129.99 24.4292C129.807 24.6101 129.624 24.6101 129.441 24.4292C129.166 24.1579 128.892 23.977 128.617 23.7962C128.525 23.7057 128.525 23.6153 128.525 23.5249C128.708 23.2536 128.8 23.1631 128.892 22.9822C128.983 22.7109 128.8 22.5301 128.617 22.4396C128.434 22.3492 128.159 22.4396 128.068 22.6205C127.976 22.8014 127.976 22.9822 127.976 23.1631C127.976 23.2536 127.793 23.344 127.702 23.344C127.244 23.1631 126.878 23.0727 126.421 22.9822C126.238 22.9822 126.055 22.7109 126.146 22.5301C126.604 21.897 126.97 21.6257 126.97 21.1735Z" fill="url(#paint0_radial)"/>
<g opacity="0.7">
<path d="M125.597 32.659H125.506C124.499 32.3877 123.584 31.7546 122.943 30.9407C122.303 30.0363 122.028 29.0415 122.12 27.9563C122.12 27.5946 122.211 27.3233 122.303 26.9615C122.303 26.8711 122.394 26.8711 122.486 26.8711C122.577 26.8711 122.577 26.9615 122.577 27.052C122.486 27.3233 122.394 27.685 122.394 27.9563C122.303 28.9511 122.577 29.9459 123.218 30.7598C123.767 31.5737 124.682 32.1164 125.597 32.3877C125.689 32.3877 125.689 32.4781 125.597 32.659C125.689 32.659 125.689 32.659 125.597 32.659Z" fill="white"/>
<path d="M122.76 26.238C122.76 26.238 122.669 26.238 122.577 26.238C122.486 26.238 122.486 26.1475 122.486 26.0571C122.669 25.6954 122.943 25.3336 123.218 24.9719C123.309 24.8814 123.401 24.8814 123.401 24.9719C123.492 25.0623 123.492 25.1528 123.401 25.1528C123.218 25.5145 123.035 25.8762 122.76 26.238C122.852 26.238 122.852 26.238 122.76 26.238Z" fill="white"/>
</g>
<path d="M125.231 24.0675C125.323 24.3388 125.048 24.7005 124.591 24.8814C124.133 25.0622 123.675 24.9718 123.584 24.7005C123.492 24.4292 123.767 24.0675 124.225 23.8866C124.682 23.7057 125.14 23.7961 125.231 24.0675Z" fill="#733028"/>
<path d="M121.571 29.3126C121.845 29.2222 122.211 29.4031 122.394 29.8553C122.577 30.3074 122.577 30.7596 122.303 30.8501C122.028 30.9405 121.662 30.7596 121.479 30.3074C121.296 29.8553 121.388 29.4031 121.571 29.3126Z" fill="#733028"/>
<path d="M128.434 32.2066C128.526 32.4779 128.251 32.8397 127.794 33.0205C127.336 33.2014 126.879 33.111 126.787 32.8397C126.696 32.5684 126.97 32.2066 127.428 32.0257C127.885 31.8449 128.343 31.9353 128.434 32.2066Z" fill="#733028"/>
<path d="M130.264 29.9458C130.539 30.1266 130.447 30.5788 130.264 30.9406C129.99 31.3023 129.624 31.5736 129.349 31.3927C129.075 31.2119 129.166 30.7597 129.349 30.398C129.532 29.9458 129.99 29.7649 130.264 29.9458Z" fill="#733028"/>
<ellipse cx="130.175" cy="27.413" rx="0.549077" ry="0.904399" transform="rotate(-2.33359 130.175 27.413)" fill="#733028"/>
<path d="M127.153 24.1578C127.336 23.8865 127.793 23.8865 128.159 24.1578C128.617 24.4291 128.8 24.7909 128.617 25.0622C128.434 25.3335 127.976 25.3335 127.61 25.0622C127.244 24.7909 127.061 24.4291 127.153 24.1578Z" fill="#733028"/>
<ellipse cx="124.697" cy="27.5763" rx="1.36222" ry="1.18467" transform="rotate(-53.4498 124.697 27.5763)" fill="#733028"/>
<ellipse cx="125.98" cy="30.2968" rx="1.09431" ry="0.998382" transform="rotate(-33.2086 125.98 30.2968)" fill="#733028"/>
<path d="M127.61 26.6902C128.16 26.6902 128.617 27.1424 128.617 27.7754C128.617 28.4085 128.251 28.9511 127.702 28.9511C127.153 28.9511 126.695 28.4989 126.695 27.8658C126.695 27.2328 127.061 26.7806 127.61 26.6902Z" fill="#733028"/>
<path d="M150.031 9.59888L134.657 21.8981L150.031 9.59888Z" fill="#EED6C1"/>
<path d="M134.565 21.9876C134.657 22.0781 134.748 22.0781 134.84 21.9876L150.214 9.68839C150.305 9.59796 150.305 9.50752 150.214 9.50752C150.122 9.41709 150.031 9.41709 149.939 9.50752L134.565 21.8068C134.565 21.8972 134.474 21.8972 134.565 21.9876Z" fill="#703D18"/>
<path d="M147.56 7.6084L132.186 19.8172L147.56 7.6084Z" fill="#EED6C1"/>
<path d="M132.003 19.9075C132.094 19.998 132.186 19.998 132.277 19.9075L147.651 7.60832C147.743 7.51788 147.743 7.42745 147.651 7.42745C147.56 7.33701 147.468 7.33701 147.377 7.42745L132.003 19.7267C132.003 19.8171 132.003 19.9075 132.003 19.9075Z" fill="#703D18"/>
<path d="M149.39 13.3962L135.114 25.0624L149.39 13.3962Z" fill="#EED6C1"/>
<path d="M134.931 25.1529C134.931 25.1529 135.023 25.2433 134.931 25.1529C135.023 25.2433 135.114 25.2433 135.206 25.1529L149.482 13.4867C149.573 13.3963 149.573 13.3059 149.482 13.3059C149.39 13.2154 149.299 13.2154 149.207 13.3059L134.931 24.972C134.931 25.0625 134.931 25.1529 134.931 25.1529Z" fill="#703D18"/>
<path d="M143.533 16.1997L137.768 20.8119L143.533 16.1997Z" fill="#EED6C1"/>
<path d="M137.585 20.9024C137.585 20.9024 137.676 20.9024 137.585 20.9024C137.676 20.9928 137.768 20.9928 137.859 20.9024L143.625 16.2902C143.716 16.1998 143.716 16.1093 143.625 16.1093C143.533 16.0189 143.442 16.0189 143.35 16.1093L137.585 20.7215C137.585 20.812 137.585 20.9024 137.585 20.9024Z" fill="#703D18"/>
<path d="M137.402 17.3755L131.637 21.8973L137.402 17.3755Z" fill="#EED6C1"/>
<path d="M131.454 21.9876C131.454 22.0781 131.454 22.0781 131.454 21.9876C131.545 22.0781 131.637 22.0781 131.728 21.9876L137.494 17.3754C137.585 17.285 137.585 17.1945 137.494 17.1945C137.402 17.1041 137.311 17.1041 137.219 17.1945L131.454 21.8067C131.454 21.8972 131.362 21.9876 131.454 21.9876Z" fill="#703D18"/>
<path d="M154.846 19.7323C154.846 19.0037 154.308 18.7305 153.86 18.8216C153.591 18.8216 152.963 19.0948 152.963 19.8233C152.963 20.2787 153.322 20.643 153.501 21.2805C153.591 21.5537 153.411 21.9179 153.053 21.9179C152.336 22.009 151.619 22.2822 150.991 22.5554C150.812 22.6465 150.454 22.5554 150.364 22.3733C149.826 21.4626 150.095 21.2805 149.916 21.0072C149.647 20.5519 149.199 20.643 148.93 20.8251C148.661 21.0072 148.482 21.3715 148.661 21.7358C148.93 22.2822 149.109 21.9179 149.826 23.0108C149.916 23.1929 149.916 23.375 149.737 23.4661C149.199 23.9215 148.751 24.5589 148.482 25.1964C148.392 25.2875 148.303 25.3786 148.213 25.2875C147.765 25.1054 147.586 24.8321 147.317 24.7411C146.958 24.65 146.779 24.8321 146.689 25.1054C146.6 25.2875 146.689 25.5607 146.958 25.6518C147.317 25.7428 147.406 25.6518 147.944 25.8339C148.123 25.8339 148.123 26.016 148.123 26.1071C147.944 26.6535 147.854 27.1999 147.854 27.7464C147.854 28.1106 147.496 28.4749 147.137 28.4749C146.152 28.4749 145.793 28.1106 145.255 28.2017C144.628 28.3838 144.449 28.9303 144.538 29.2945C144.628 29.5677 144.897 30.1142 145.614 30.0231C146.152 29.932 146.42 29.3856 147.317 29.1124C147.675 29.0213 147.944 29.2035 148.034 29.5677C148.123 30.0231 148.303 30.3874 148.482 30.8427C148.572 31.0248 148.572 31.207 148.392 31.2981C147.765 31.8445 147.586 31.6623 147.317 31.9355C146.958 32.2998 147.137 32.6641 147.406 32.9373C147.675 33.2105 148.034 33.2105 148.303 32.9373C148.661 32.573 148.482 32.4819 148.84 31.9355C148.93 31.8445 149.109 31.7534 149.199 31.9355C149.557 32.3909 150.006 32.7552 150.543 33.0284C150.633 33.1194 150.723 33.2105 150.633 33.3016C150.364 33.9391 150.006 34.1212 149.916 34.3944C149.737 34.7587 150.006 34.9408 150.185 35.0319C150.364 35.123 150.633 35.123 150.812 34.8497C150.991 34.4855 150.812 34.3944 151.081 33.6658C151.081 33.5748 151.26 33.4837 151.44 33.4837C151.798 33.6658 152.246 33.7569 152.694 33.848C152.874 33.848 153.053 34.0301 152.963 34.3033C152.874 35.3051 152.336 35.6694 152.426 36.2158C152.426 36.9443 152.963 37.2175 153.411 37.1265C153.68 37.1265 154.308 36.8533 154.218 36.1247C154.218 35.4872 153.68 35.214 153.591 34.2123C153.591 34.0301 153.68 33.9391 153.86 33.9391C154.577 33.9391 155.204 33.848 155.921 33.5748C156.011 33.4837 156.19 33.5748 156.19 33.7569C156.369 34.3033 156.19 34.4855 156.28 34.6676C156.459 35.214 156.907 35.123 157.265 34.9408C157.624 34.8497 157.803 34.4855 157.624 34.1212C157.445 33.7569 157.355 33.7569 157.176 33.4837C156.997 33.3016 156.997 32.9373 157.265 32.8462C157.803 32.4819 158.341 31.9355 158.789 31.2981C158.968 31.0248 159.327 30.9338 159.596 31.1159C160.313 31.6623 160.492 32.2087 160.94 32.4819C161.568 32.7552 162.016 32.3909 162.195 32.0266C162.285 31.7534 162.374 31.1159 161.657 30.8427C161.12 30.5695 160.671 30.8427 159.865 30.5695C159.596 30.4784 159.417 30.1142 159.506 29.8409C159.685 29.2035 159.865 28.566 159.865 27.9285C159.865 27.7464 160.044 27.6553 160.134 27.6553C160.492 27.7464 160.761 27.9285 160.94 27.9285C161.299 27.9285 161.388 27.6553 161.388 27.4732C161.388 27.1999 161.299 27.0178 161.03 27.0178C160.671 27.0178 160.582 27.1089 160.044 27.1999C159.954 27.1999 159.775 27.1089 159.775 27.0178C159.685 26.1982 159.327 25.3786 158.879 24.7411C158.7 24.4679 158.789 24.1947 158.968 24.0125C159.685 23.4661 159.865 23.6482 160.134 23.4661C160.582 23.1018 160.402 22.7376 160.134 22.4644C159.954 22.1911 159.506 22.1001 159.237 22.3733C158.789 22.7376 159.058 22.8286 158.431 23.5572C158.251 23.7393 157.983 23.7393 157.803 23.5572C157.534 23.284 157.265 23.1018 156.907 22.8286C156.817 22.7376 156.728 22.6465 156.817 22.4644C156.997 22.1911 157.176 22.009 157.265 21.8269C157.355 21.4626 157.176 21.2805 156.997 21.1894C156.817 21.0983 156.548 21.1894 156.459 21.3715C156.369 21.6447 156.369 21.7358 156.369 22.009C156.369 22.1911 156.19 22.2822 156.011 22.1911C155.563 22.009 155.114 21.9179 154.577 21.8269C154.308 21.8269 154.128 21.5537 154.218 21.2805C154.487 20.5519 154.935 20.1876 154.846 19.7323Z" fill="url(#paint1_radial)"/>
<g opacity="0.7">
<path d="M153.411 32.7553H153.322C152.157 32.4821 151.171 31.7536 150.543 30.7518C149.826 29.7501 149.557 28.5662 149.647 27.3823C149.647 27.018 149.737 26.6537 149.826 26.2894C149.826 26.1984 149.916 26.1073 150.006 26.1984C150.095 26.1984 150.185 26.2894 150.095 26.3805C150.006 26.7448 149.916 27.018 149.916 27.3823C149.826 28.4751 150.095 29.659 150.812 30.5697C151.44 31.4804 152.425 32.1179 153.411 32.3911C153.501 32.3911 153.591 32.4821 153.501 32.5732C153.501 32.7553 153.501 32.7553 153.411 32.7553Z" fill="white"/>
<path d="M150.274 25.4697C150.185 25.4697 150.185 25.4697 150.095 25.4697C150.005 25.4697 150.005 25.2876 150.005 25.2876C150.185 24.8323 150.543 24.3769 150.812 24.0126C150.902 23.9216 150.991 23.9216 151.081 24.0126C151.171 24.1037 151.171 24.1948 151.081 24.2858C150.812 24.6501 150.543 25.0144 150.274 25.4697C150.364 25.4697 150.364 25.4697 150.274 25.4697Z" fill="white"/>
</g>
<path d="M153.053 22.9197C153.143 23.1929 152.874 23.6483 152.336 23.8304C151.798 24.0125 151.35 23.9215 151.171 23.6483C151.081 23.3751 151.35 22.9197 151.888 22.7376C152.426 22.5554 152.963 22.6465 153.053 22.9197Z" fill="#733028"/>
<path d="M149.02 28.9302C149.288 28.7481 149.737 29.0213 150.005 29.5677C150.274 30.023 150.185 30.5695 149.916 30.7516C149.647 30.9337 149.199 30.6605 148.93 30.1141C148.661 29.5677 148.751 29.1124 149.02 28.9302Z" fill="#733028"/>
<ellipse cx="155.651" cy="32.5567" rx="0.987951" ry="0.636243" transform="rotate(-20.8726 155.651 32.5567)" fill="#733028"/>
<path d="M158.52 29.6589C158.789 29.841 158.789 30.3874 158.431 30.8428C158.162 31.2981 157.713 31.5713 157.445 31.3892C157.176 31.2071 157.176 30.6606 157.534 30.2053C157.803 29.6589 158.251 29.4767 158.52 29.6589Z" fill="#733028"/>
<path d="M158.431 25.834C158.789 25.834 159.058 26.2893 159.058 26.8357C159.058 27.3822 158.879 27.8375 158.52 27.8375C158.162 27.8375 157.893 27.3822 157.893 26.8357C157.803 26.2893 158.072 25.834 158.431 25.834Z" fill="#733028"/>
<path d="M155.204 23.1019C155.383 22.8287 155.921 22.8287 156.369 23.1019C156.817 23.3751 157.086 23.8304 156.907 24.1036C156.728 24.3768 156.19 24.3768 155.742 24.1036C155.294 23.8304 155.025 23.3751 155.204 23.1019Z" fill="#733028"/>
<ellipse cx="152.37" cy="26.9179" rx="1.53945" ry="1.26195" transform="rotate(-53.4498 152.37 26.9179)" fill="#733028"/>
<ellipse cx="153.834" cy="29.9998" rx="1.2609" ry="1.08771" transform="rotate(-33.2086 153.834 29.9998)" fill="#733028"/>
<path d="M155.652 26.0161C156.28 26.0161 156.817 26.5625 156.817 27.2C156.817 27.9286 156.369 28.475 155.742 28.566C155.114 28.566 154.577 28.0196 154.577 27.3821C154.577 26.6536 155.114 26.0161 155.652 26.0161Z" fill="#733028"/>
<path d="M180.479 6.5271L163.54 20.5517L180.479 6.5271Z" fill="#EED6C1"/>
<path d="M163.271 20.6428C163.271 20.6428 163.36 20.6428 163.271 20.6428C163.36 20.7338 163.45 20.7338 163.539 20.6428L180.569 6.70918C180.658 6.61812 180.658 6.52705 180.569 6.43598C180.479 6.34491 180.39 6.34491 180.3 6.43598L163.271 20.3695C163.271 20.4606 163.271 20.5517 163.271 20.6428Z" fill="#703D18"/>
<path d="M177.701 4.15942L160.671 18.1841L177.701 4.15942Z" fill="#EED6C1"/>
<path d="M160.492 18.2751C160.582 18.3661 160.671 18.3661 160.761 18.2751L177.79 4.34151C177.88 4.25044 177.88 4.15937 177.79 4.0683C177.701 3.97723 177.611 3.97723 177.522 4.0683L160.492 18.0019C160.492 18.0929 160.492 18.184 160.492 18.2751Z" fill="#703D18"/>
<path d="M179.762 10.8074L163.988 24.1945L179.762 10.8074Z" fill="#EED6C1"/>
<path d="M163.808 24.2855C163.898 24.3766 163.988 24.3766 164.077 24.2855L179.852 10.9895C179.942 10.8984 179.942 10.8073 179.852 10.7163C179.762 10.6252 179.673 10.6252 179.583 10.7163L163.808 24.0123C163.808 24.1034 163.719 24.1945 163.808 24.2855Z" fill="#703D18"/>
<path d="M173.309 14.0859L166.945 19.2769L173.309 14.0859Z" fill="#EED6C1"/>
<path d="M166.766 19.3679C166.766 19.3679 166.766 19.459 166.766 19.3679C166.856 19.459 166.945 19.459 167.035 19.3679L173.398 14.177C173.488 14.0859 173.488 13.9948 173.398 13.9038C173.309 13.8127 173.219 13.8127 173.13 13.9038L166.766 19.1858C166.766 19.2768 166.676 19.3679 166.766 19.3679Z" fill="#703D18"/>
<path d="M166.408 15.3608L160.044 20.5518L166.408 15.3608Z" fill="#EED6C1"/>
<path d="M159.865 20.6428C159.954 20.7339 160.044 20.7339 160.134 20.6428L166.497 15.4519C166.587 15.3608 166.587 15.2697 166.497 15.1787C166.408 15.0876 166.318 15.0876 166.228 15.1787L159.865 20.3696C159.865 20.5517 159.865 20.6428 159.865 20.6428Z" fill="#703D18"/>
<path d="M151.833 43.6573C151.833 42.9412 151.194 42.5832 150.738 42.6727C150.464 42.6727 149.734 42.9412 149.734 43.7468C149.734 44.2839 150.099 44.642 150.281 45.2685C150.373 45.6266 150.099 45.9846 149.734 45.9846C148.912 46.0741 148.09 46.3427 147.36 46.7007C147.086 46.7902 146.812 46.7007 146.629 46.5217C146.082 45.5371 146.355 45.358 146.173 45C145.899 44.4629 145.442 44.642 145.077 44.821C144.712 45 144.529 45.358 144.803 45.8056C145.169 46.3427 145.351 45.9846 146.082 47.2378C146.173 47.4168 146.173 47.5958 145.99 47.7749C145.442 48.3119 144.895 48.9385 144.529 49.6546C144.438 49.7441 144.347 49.8336 144.164 49.7441C143.617 49.5651 143.434 49.2071 143.16 49.1175C142.795 49.028 142.612 49.2071 142.521 49.4756C142.43 49.7441 142.521 50.0127 142.795 50.1022C143.16 50.1917 143.251 50.1022 143.89 50.2812C144.073 50.2812 144.164 50.4602 144.073 50.6392C143.89 51.2658 143.799 51.8924 143.799 52.4295C143.799 52.877 143.434 53.2351 142.977 53.2351C141.882 53.2351 141.425 52.7875 140.786 52.9665C140.056 53.1456 139.873 53.6826 139.965 54.1302C140.056 54.3987 140.421 55.0253 141.243 54.8463C141.882 54.6673 142.156 54.1302 143.16 53.8617C143.525 53.7722 143.89 53.9512 143.982 54.3092C144.073 54.7568 144.256 55.2043 144.529 55.6519C144.621 55.8309 144.621 56.0099 144.438 56.189C143.799 56.8156 143.525 56.6365 143.251 56.9051C142.795 57.3526 143.069 57.7107 143.343 57.9792C143.617 58.2477 144.073 58.3373 144.347 57.9792C144.712 57.6212 144.529 57.4421 144.895 56.9051C144.986 56.726 145.169 56.726 145.351 56.9051C145.808 57.3526 146.264 57.8002 146.812 58.1582C146.903 58.2477 146.995 58.3373 146.903 58.5163C146.629 59.1429 146.264 59.4114 146.082 59.6799C145.899 60.038 146.173 60.217 146.447 60.396C146.721 60.4855 146.995 60.4855 147.086 60.217C147.268 59.859 147.086 59.7694 147.36 58.9638C147.451 58.7848 147.542 58.7848 147.725 58.7848C148.181 58.9638 148.638 59.1429 149.094 59.2324C149.277 59.2324 149.46 59.5009 149.46 59.6799C149.277 60.7541 148.821 61.1121 148.821 61.7387C148.821 62.4548 149.46 62.8128 149.916 62.7233C150.19 62.7233 150.92 62.4548 150.829 61.6492C150.829 61.0226 150.19 60.6646 150.099 59.5904C150.099 59.4114 150.19 59.3219 150.373 59.3219C151.194 59.3219 151.925 59.1429 152.655 58.8743C152.838 58.7848 152.929 58.8743 153.02 59.0533C153.203 59.6799 153.02 59.7694 153.112 60.1275C153.385 60.6646 153.842 60.575 154.207 60.4855C154.572 60.3065 154.846 59.9485 154.664 59.5904C154.481 59.2324 154.39 59.2324 154.116 58.9638C153.933 58.7848 153.933 58.4268 154.207 58.2477C154.846 57.8002 155.485 57.2631 155.942 56.6365C156.124 56.368 156.581 56.2785 156.855 56.4575C157.676 57.0841 157.859 57.7107 158.407 57.8897C159.137 58.1582 159.594 57.8002 159.776 57.4421C159.868 57.1736 159.959 56.4575 159.229 56.0995C158.681 55.8309 158.133 56.0995 157.22 55.8309C156.855 55.7414 156.672 55.2939 156.855 55.0253C157.129 54.3092 157.22 53.5931 157.22 52.877C157.22 52.698 157.403 52.6085 157.494 52.6085C157.95 52.698 158.224 52.877 158.407 52.877C158.772 52.877 158.955 52.6085 158.955 52.34C158.955 52.0714 158.863 51.8029 158.498 51.8029C158.133 51.8029 158.042 51.8924 157.403 51.9819C157.22 51.9819 157.129 51.8924 157.129 51.8029C156.946 50.9078 156.672 50.1022 156.124 49.2966C155.942 49.028 156.033 48.67 156.307 48.491C157.037 47.9539 157.311 48.1329 157.585 47.8644C158.042 47.5063 157.859 47.0588 157.585 46.7902C157.311 46.5217 156.946 46.3427 156.581 46.7007C156.124 47.0588 156.398 47.2378 155.668 47.9539C155.485 48.1329 155.211 48.1329 155.029 47.9539C154.755 47.6854 154.39 47.4168 154.025 47.2378C153.933 47.1483 153.842 46.9693 153.933 46.8797C154.116 46.6112 154.298 46.4322 154.39 46.2532C154.572 45.8951 154.298 45.7161 154.025 45.6266C153.751 45.5371 153.477 45.6266 153.385 45.8951C153.294 46.1637 153.294 46.2532 153.294 46.6112C153.294 46.7902 153.112 46.8797 152.929 46.7902C152.381 46.6112 151.925 46.4322 151.377 46.4322C151.103 46.4322 150.92 46.1637 151.012 45.8951C151.468 44.5524 151.833 44.1944 151.833 43.6573Z" fill="url(#paint2_radial)"/>
<g opacity="0.7">
<path d="M150.19 57.8895C150.19 57.8895 150.099 57.8895 150.008 57.8895C148.729 57.5315 147.634 56.8154 146.812 55.7412C145.99 54.6671 145.625 53.3244 145.808 52.0712C145.808 51.7132 145.899 51.2656 145.99 50.9076C145.99 50.8181 146.082 50.7286 146.264 50.8181C146.356 50.8181 146.447 50.9076 146.356 51.0866C146.264 51.4447 146.173 51.8027 146.173 52.1608C146.082 53.4139 146.447 54.5776 147.177 55.6517C147.908 56.6363 148.912 57.3524 150.099 57.621C150.19 57.621 150.281 57.7105 150.19 57.8895C150.281 57.8 150.281 57.8895 150.19 57.8895Z" fill="white"/>
<path d="M146.629 50.0126C146.538 50.0126 146.538 50.0126 146.447 50.0126C146.355 50.0126 146.355 49.8336 146.355 49.744C146.629 49.2965 146.903 48.7594 147.268 48.4014C147.36 48.3119 147.451 48.3119 147.542 48.4014C147.634 48.4909 147.634 48.5804 147.542 48.6699C147.268 49.0279 146.995 49.4755 146.629 50.0126C146.721 49.9231 146.721 49.9231 146.629 50.0126Z" fill="white"/>
</g>
<path d="M149.734 47.2377C149.825 47.5958 149.551 48.0434 148.912 48.2224C148.364 48.4014 147.816 48.3119 147.634 48.0434C147.543 47.6853 147.816 47.2377 148.456 47.0587C149.095 46.7902 149.642 46.8797 149.734 47.2377Z" fill="#733028"/>
<ellipse cx="145.702" cy="54.6657" rx="0.63667" ry="1.07835" transform="rotate(-26.3472 145.702 54.6657)" fill="#733028"/>
<path d="M153.659 57.263C153.751 57.6211 153.477 58.0686 152.838 58.2477C152.29 58.4267 151.742 58.3372 151.56 58.0686C151.468 57.7106 151.742 57.263 152.381 57.084C153.02 56.8155 153.568 56.9945 153.659 57.263Z" fill="#733028"/>
<path d="M155.942 54.4883C156.216 54.6673 156.216 55.2044 155.851 55.7414C155.486 56.2785 155.029 56.4575 154.664 56.2785C154.39 56.0995 154.39 55.5624 154.755 55.0253C155.12 54.4883 155.668 54.3093 155.942 54.4883Z" fill="#733028"/>
<path d="M155.759 50.3706C156.124 50.3706 156.398 50.8182 156.49 51.4447C156.49 52.0713 156.216 52.5189 155.851 52.5189C155.485 52.5189 155.211 52.0713 155.12 51.4447C155.12 50.9077 155.394 50.3706 155.759 50.3706Z" fill="#733028"/>
<path d="M152.199 47.3272C152.382 47.0587 152.929 46.9692 153.477 47.3272C154.025 47.5958 154.299 48.1328 154.116 48.4014C153.934 48.6699 153.386 48.7594 152.838 48.4014C152.29 48.0433 152.016 47.5958 152.199 47.3272Z" fill="#733028"/>
<path d="M150.007 50.2811C150.646 50.7287 150.738 51.7133 150.19 52.4294C149.642 53.1455 148.638 53.3245 147.999 52.8769C147.36 52.4294 147.268 51.4447 147.816 50.7287C148.364 50.0126 149.368 49.744 150.007 50.2811Z" fill="#733028"/>
<path d="M151.834 54.1301C152.199 54.6672 152.016 55.4728 151.286 55.9203C150.647 56.3679 149.825 56.1889 149.369 55.6518C149.003 55.1147 149.186 54.3091 149.916 53.8616C150.647 53.5035 151.469 53.593 151.834 54.1301Z" fill="#733028"/>
<ellipse cx="152.835" cy="51.8898" rx="1.2781" ry="1.43224" transform="rotate(-2.79122 152.835 51.8898)" fill="#733028"/>
<path d="M180.775 29.3354L161.511 44.5524L180.775 29.3354Z" fill="#EED6C1"/>
<path d="M161.329 44.642C161.42 44.7315 161.603 44.7315 161.694 44.642L180.867 29.425C180.958 29.3355 180.958 29.246 180.958 29.1565C180.867 29.067 180.775 29.067 180.684 29.1565L161.511 44.3735C161.329 44.463 161.329 44.5525 161.329 44.642Z" fill="#703D18"/>
<path d="M177.579 26.8291L158.407 41.9566L177.579 26.8291Z" fill="#EED6C1"/>
<path d="M158.224 42.1357C158.316 42.2252 158.498 42.2252 158.589 42.1357L177.762 26.9187C177.853 26.8292 177.853 26.7397 177.853 26.6501C177.762 26.5606 177.671 26.5606 177.58 26.6501L158.407 41.8671C158.224 41.9567 158.133 42.0462 158.224 42.1357Z" fill="#703D18"/>
<path d="M179.862 33.99L162.059 48.4909L179.862 33.99Z" fill="#EED6C1"/>
<path d="M161.876 48.5805C161.876 48.67 161.876 48.67 161.876 48.5805C161.968 48.67 162.15 48.67 162.242 48.5805L180.045 34.0796C180.136 33.9901 180.136 33.9005 180.045 33.811C179.954 33.7215 179.862 33.7215 179.771 33.811L161.968 48.3119C161.876 48.491 161.876 48.5805 161.876 48.5805Z" fill="#703D18"/>
<path d="M172.558 37.5706L165.437 43.2098L172.558 37.5706Z" fill="#EED6C1"/>
<path d="M165.163 43.2993C165.163 43.2993 165.254 43.3888 165.163 43.2993C165.254 43.3888 165.437 43.3888 165.528 43.2993L172.741 37.5705C172.832 37.481 172.832 37.3915 172.832 37.302C172.741 37.2125 172.65 37.2125 172.558 37.302L165.346 43.0307C165.163 43.1203 165.163 43.2993 165.163 43.2993Z" fill="#703D18"/>
<path d="M164.889 38.9133L157.676 44.5526L164.889 38.9133Z" fill="#EED6C1"/>
<path d="M157.494 44.7317C157.585 44.8212 157.768 44.8212 157.859 44.7317L165.072 39.0029C165.163 38.9134 165.163 38.8239 165.163 38.7344C165.072 38.6449 164.98 38.6449 164.889 38.7344L157.676 44.4631C157.494 44.5526 157.403 44.6421 157.494 44.7317Z" fill="#703D18"/>
<path d="M127.856 59.9059C127.856 59.2653 127.398 59.0823 127.032 59.0823C126.757 59.0823 126.208 59.2653 126.3 59.9974C126.3 60.455 126.666 60.7295 126.757 61.2786C126.849 61.5531 126.666 61.8276 126.391 61.9192C125.751 62.0107 125.11 62.1937 124.47 62.5597C124.287 62.6512 124.012 62.5597 123.921 62.3767C123.463 61.5531 123.738 61.3701 123.555 61.0955C123.28 60.638 122.914 60.7295 122.639 60.9125C122.365 61.0955 122.182 61.3701 122.365 61.7361C122.639 62.1937 122.731 61.9192 123.372 62.9258C123.463 63.1088 123.463 63.2003 123.28 63.3833C122.822 63.8409 122.456 64.2985 122.09 64.939C121.999 65.0306 121.907 65.1221 121.816 65.0306C121.358 64.8475 121.175 64.573 120.992 64.573C120.718 64.4815 120.535 64.6645 120.443 64.8475C120.352 65.0306 120.443 65.3051 120.626 65.3966C120.901 65.4881 120.992 65.3966 121.541 65.4881C121.633 65.4881 121.724 65.6711 121.724 65.7627C121.541 66.2202 121.45 66.7693 121.45 67.2269C121.45 67.5929 121.175 67.8674 120.809 67.8674C119.986 67.8674 119.528 67.5014 119.07 67.5929C118.43 67.6844 118.338 68.2335 118.338 68.5995C118.43 68.8741 118.704 69.3316 119.345 69.2401C119.894 69.1486 120.077 68.5995 120.901 68.4165C121.175 68.325 121.45 68.508 121.541 68.7826C121.633 69.1486 121.816 69.5147 121.999 69.8807C122.09 70.0637 122.09 70.2468 121.907 70.3383C121.358 70.8873 121.175 70.7043 120.992 70.8873C120.626 71.2534 120.809 71.6194 121.084 71.8025C121.267 71.9855 121.633 72.077 121.907 71.8025C122.182 71.5279 122.09 71.4364 122.365 70.8873C122.456 70.7958 122.639 70.7958 122.731 70.8873C123.097 71.2534 123.463 71.6194 123.921 71.894C124.012 71.9855 124.012 72.077 124.012 72.1685C123.738 72.7176 123.463 72.9006 123.372 73.0836C123.28 73.3582 123.463 73.5412 123.646 73.6327C123.829 73.7242 124.104 73.7242 124.195 73.4497C124.378 73.0836 124.195 73.0836 124.47 72.443C124.47 72.3515 124.653 72.26 124.744 72.3515C125.11 72.5346 125.476 72.6261 125.842 72.7176C126.025 72.7176 126.117 72.9006 126.117 73.0836C126.025 73.9987 125.568 74.2733 125.568 74.8224C125.568 75.4629 126.025 75.646 126.483 75.646C126.757 75.646 127.307 75.3714 127.215 74.7308C127.215 74.1818 126.757 73.9072 126.666 73.0836C126.666 72.9921 126.757 72.8091 126.849 72.8091C127.49 72.8091 128.13 72.7176 128.679 72.443C128.771 72.443 128.954 72.443 128.954 72.6261C129.045 73.0836 128.954 73.2667 129.045 73.4497C129.228 73.9072 129.594 73.8157 129.96 73.7242C130.235 73.6327 130.418 73.2667 130.326 72.9921C130.235 72.7176 130.052 72.7176 129.869 72.443C129.686 72.26 129.777 71.9855 129.96 71.8025C130.509 71.4364 130.967 70.9788 131.333 70.4298C131.516 70.1552 131.882 70.1552 132.065 70.3383C132.706 70.7958 132.889 71.3449 133.255 71.5279C133.804 71.8025 134.261 71.5279 134.353 71.1619C134.445 70.9788 134.536 70.3383 133.895 70.0637C133.438 69.8807 132.98 70.0637 132.248 69.7892C131.974 69.6977 131.791 69.3316 131.882 69.0571C132.065 68.508 132.157 67.8674 132.157 67.3184C132.157 67.2269 132.248 67.0438 132.431 67.1353C132.797 67.2269 132.98 67.3184 133.163 67.3184C133.529 67.3184 133.621 67.0438 133.621 66.8608C133.621 66.6778 133.529 66.4032 133.255 66.4032C132.889 66.4032 132.889 66.4948 132.34 66.4948C132.248 66.4948 132.157 66.4032 132.065 66.3117C131.974 65.5796 131.699 64.8475 131.333 64.2985C131.242 64.1154 131.242 63.8409 131.425 63.6579C132.065 63.2003 132.248 63.3833 132.431 63.2003C132.797 62.9258 132.614 62.5597 132.431 62.2852C132.248 62.0107 131.882 61.9192 131.608 62.1937C131.242 62.4682 131.425 62.6512 130.876 63.2003C130.693 63.3833 130.509 63.3833 130.326 63.2003C130.052 62.9258 129.777 62.7428 129.503 62.5597C129.411 62.4682 129.411 62.3767 129.411 62.2852C129.594 62.0107 129.686 61.9192 129.777 61.7361C129.869 61.4616 129.686 61.2786 129.503 61.1871C129.32 61.0955 129.045 61.1871 128.954 61.3701C128.862 61.5531 128.862 61.7361 128.862 61.9192C128.862 62.1022 128.679 62.1022 128.588 62.1022C128.13 61.9192 127.764 61.8276 127.307 61.7361C127.124 61.7361 126.941 61.4616 126.941 61.2786C127.581 60.638 127.856 60.3634 127.856 59.9059Z" fill="url(#paint3_radial)"/>
<g opacity="0.7">
<path d="M126.575 71.6192H126.483C125.477 71.3447 124.561 70.7041 123.921 69.8805C123.28 68.9654 123.006 67.9587 123.097 66.8606C123.097 66.4945 123.189 66.22 123.28 65.854C123.28 65.7625 123.372 65.7625 123.463 65.7625C123.555 65.7625 123.555 65.854 123.555 65.9455C123.463 66.22 123.372 66.5861 123.372 66.8606C123.28 67.8672 123.555 68.8739 124.195 69.6975C124.744 70.5211 125.66 71.0702 126.575 71.3447C126.575 71.3447 126.666 71.4362 126.575 71.6192C126.575 71.5277 126.575 71.6192 126.575 71.6192Z" fill="white"/>
<path d="M123.738 65.122C123.738 65.122 123.646 65.122 123.555 65.122C123.463 65.122 123.463 65.0305 123.463 64.939C123.646 64.5729 123.921 64.1154 124.195 63.8409C124.287 63.7493 124.378 63.7493 124.378 63.8409C124.47 63.9324 124.47 64.0239 124.378 64.0239C124.195 64.2984 123.921 64.6645 123.738 65.122C123.738 65.0305 123.738 65.0305 123.738 65.122Z" fill="white"/>
</g>
<path d="M126.208 62.8342C126.3 63.1087 126.025 63.4747 125.568 63.6578C125.11 63.8408 124.653 63.7493 124.561 63.4747C124.469 63.2002 124.744 62.8342 125.202 62.6511C125.659 62.4681 126.117 62.5596 126.208 62.8342Z" fill="#733028"/>
<ellipse cx="122.913" cy="68.968" rx="0.54906" ry="0.9151" transform="rotate(-26.3472 122.913 68.968)" fill="#733028"/>
<path d="M129.32 71.0702C129.411 71.3448 129.137 71.7108 128.679 71.8938C128.221 72.0769 127.764 71.9854 127.672 71.7108C127.581 71.4363 127.855 71.0702 128.313 70.8872C128.77 70.7042 129.228 70.7957 129.32 71.0702Z" fill="#733028"/>
<path d="M131.15 68.7824C131.424 68.9654 131.333 69.423 131.15 69.789C130.875 70.2466 130.418 70.4296 130.235 70.2466C129.96 70.0635 130.052 69.606 130.235 69.2399C130.509 68.8739 130.967 68.5994 131.15 68.7824Z" fill="#733028"/>
<ellipse cx="131.063" cy="66.3154" rx="0.549089" ry="0.915148" transform="rotate(-2.33315 131.063 66.3154)" fill="#733028"/>
<path d="M128.13 62.9256C128.313 62.6511 128.771 62.6511 129.137 62.9256C129.594 63.2002 129.777 63.5662 129.686 63.8407C129.503 64.1153 129.045 64.1153 128.679 63.8407C128.222 63.5662 127.947 63.1087 128.13 62.9256Z" fill="#733028"/>
<ellipse cx="125.595" cy="66.4277" rx="1.3727" ry="1.18968" transform="rotate(-53.4452 125.595 66.4277)" fill="#733028"/>
<ellipse cx="126.853" cy="69.1672" rx="1.18968" ry="1.00665" transform="rotate(-33.2086 126.853 69.1672)" fill="#733028"/>
<path d="M128.587 65.488C129.137 65.488 129.594 65.9456 129.686 66.5862C129.686 67.2268 129.32 67.7758 128.771 67.7758C128.221 67.7758 127.764 67.3183 127.672 66.6777C127.581 66.1286 128.038 65.5795 128.587 65.488Z" fill="#733028"/>
<path d="M129.595 43.2507L111.567 57.8012L129.595 43.2507Z" fill="#EED6C1"/>
<path d="M111.384 57.8927C111.475 57.9842 111.658 57.9842 111.75 57.8927L129.686 43.4337C129.778 43.3422 129.778 43.2507 129.686 43.1592C129.595 43.0677 129.503 43.0677 129.412 43.1592L111.475 57.6181C111.384 57.7096 111.384 57.8011 111.384 57.8927Z" fill="#703D18"/>
<path d="M128.771 47.7349L112.116 61.5532L128.771 47.7349Z" fill="#EED6C1"/>
<path d="M111.933 61.6447C111.933 61.7362 111.933 61.7362 111.933 61.6447C112.024 61.7362 112.116 61.7362 112.207 61.6447L128.863 47.8263C128.954 47.7348 128.954 47.6433 128.863 47.5518C128.771 47.4603 128.679 47.4603 128.588 47.5518L111.933 61.3701C111.933 61.5531 111.841 61.6447 111.933 61.6447Z" fill="#703D18"/>
<path d="M121.907 51.1208L115.227 56.5201L121.907 51.1208Z" fill="#EED6C1"/>
<path d="M115.044 56.6115C115.136 56.703 115.319 56.703 115.41 56.6115L122.091 51.2123C122.182 51.1208 122.182 51.0293 122.091 50.9378C121.999 50.8463 121.908 50.8463 121.816 50.9378L115.136 56.337C115.044 56.4285 114.953 56.52 115.044 56.6115Z" fill="#703D18"/>
<path d="M114.678 52.4019L107.998 57.8011L114.678 52.4019Z" fill="#EED6C1"/>
<path d="M107.815 57.9841C107.906 58.0756 108.089 58.0756 108.181 57.9841L114.861 52.5849C114.953 52.4934 114.953 52.4018 114.861 52.3103C114.77 52.2188 114.678 52.2188 114.587 52.3103L107.906 57.7095C107.815 57.8011 107.723 57.8926 107.815 57.9841Z" fill="#703D18"/>
<path d="M113.305 64.5729C113.305 64.5729 113.397 64.5729 113.488 64.5729C115.044 63.5662 116.691 63.2917 118.43 63.7492C118.522 63.7492 118.613 63.7492 118.613 63.6577C118.613 63.5662 118.613 63.4747 118.522 63.4747C116.691 63.0171 114.953 63.2917 113.305 64.3898C113.214 64.3898 113.214 64.4813 113.305 64.5729Z" fill="#603B3E"/>
<path d="M115.044 62.5597H115.136C116.051 62.2851 116.874 62.1936 117.698 62.1936C118.522 62.2851 119.254 62.4682 120.169 62.8342C120.26 62.8342 120.352 62.8342 120.352 62.7427C120.352 62.6512 120.352 62.5597 120.26 62.5597C118.43 61.7361 116.874 61.6445 115.044 62.2851C114.953 62.2851 114.953 62.3766 114.953 62.4682C114.953 62.4682 115.044 62.4682 115.044 62.5597Z" fill="#603B3E"/>
<path d="M135.36 63.7495C135.36 63.841 135.36 63.841 135.36 63.7495C136.183 64.6646 136.458 65.5797 136.366 66.6779C136.366 66.7694 136.366 66.7694 136.458 66.7694C136.55 66.7694 136.55 66.7694 136.55 66.6779C136.641 65.4882 136.275 64.4816 135.543 63.658C135.451 63.658 135.36 63.658 135.36 63.7495Z" fill="#603B3E"/>
<path d="M136.732 64.573C136.732 64.573 136.732 64.6645 136.732 64.573C137.007 65.122 137.19 65.6711 137.19 66.1287C137.282 66.5862 137.19 67.1353 137.007 67.6844C137.007 67.7759 137.007 67.7759 137.098 67.7759C137.19 67.7759 137.19 67.7759 137.19 67.6844C137.465 66.4947 137.373 65.5796 136.824 64.4814C136.915 64.4814 136.824 64.4814 136.732 64.573Z" fill="#603B3E"/>
<path d="M107.632 60.2721C109.096 61.4617 109.919 60.7296 110.469 60.1805C110.56 59.9975 110.835 60.1805 110.743 60.3636C110.469 61.5532 110.377 62.1023 112.207 61.8278C112.39 61.8278 112.482 62.0108 112.39 62.1023C111.201 63.7495 112.116 64.4816 113.397 65.2137C113.488 65.3052 113.488 65.4882 113.397 65.5798C112.116 66.1288 110.56 64.5731 111.018 67.044C111.018 67.227 110.835 67.3185 110.743 67.227C109.187 65.8543 109.37 66.4034 108.089 67.6845C107.998 67.7761 107.723 67.6845 107.815 67.5015C107.998 65.6713 106.991 65.5798 106.076 65.4882C105.893 65.4882 105.801 65.2137 105.984 65.1222C107.815 63.9325 106.35 63.1089 105.344 62.7429C105.161 62.6514 105.161 62.3768 105.435 62.3768C106.9 62.2853 107.632 62.7429 107.449 60.4551C107.266 60.2721 107.449 60.1805 107.632 60.2721Z" fill="white"/>
<path d="M107.906 60.8211C109.096 61.7362 109.828 61.2786 110.285 60.7296C110.377 60.638 110.56 60.7296 110.56 60.8211C110.377 61.8277 110.285 62.2853 111.75 62.0107C111.841 62.0107 111.933 62.1022 111.933 62.2853C110.926 63.6579 111.75 64.207 112.756 64.8476C112.848 64.9391 112.848 65.0306 112.756 65.1221C111.658 65.5797 110.377 64.2985 110.743 66.3118C110.743 66.4948 110.56 66.5863 110.468 66.4948C109.187 65.3967 109.279 65.8542 108.272 66.8609C108.181 66.9524 107.998 66.8609 107.998 66.7694C108.181 65.2136 107.357 65.2136 106.533 65.1221C106.35 65.1221 106.35 64.9391 106.442 64.8476C107.998 63.9325 106.716 63.2004 105.893 62.8343C105.71 62.7428 105.801 62.5598 105.984 62.5598C107.174 62.4683 107.814 62.8343 107.631 60.9126C107.631 60.8211 107.814 60.7296 107.906 60.8211Z" fill="url(#paint4_radial)"/>
<path opacity="0.11" d="M109.861 92.5698C109.593 92.7511 109.234 92.9325 108.966 93.1139C104.757 95.0183 99.4739 96.1973 93.2952 87.1285C90.0715 82.4127 87.4746 63.8216 85.8628 47.9512C87.5642 49.8556 89.3551 51.9415 91.0565 54.2993C99.2052 65.3633 106.638 80.3268 109.055 88.6702C109.503 90.0305 109.772 91.3001 109.861 92.207C109.861 92.2977 109.861 92.3884 109.861 92.5698Z" fill="#201F39"/>
<g opacity="0.79">
<path d="M25.1878 100.598C23.8879 101.588 22.4951 97.0882 24.0736 97.8082C24.445 98.4381 24.445 99.2481 24.7236 99.878C25.095 99.3381 24.9093 97.8082 25.8378 97.8082C26.8591 98.0781 25.4664 99.968 25.1878 100.598Z" fill="#01517C"/>
<path fill-rule="evenodd" clip-rule="evenodd" d="M28.2517 100.868C29.8302 101.678 28.6231 96.9082 27.1375 97.9881C27.1106 98.1968 26.9433 98.5415 26.7599 98.9194C26.3106 99.8452 25.7649 100.97 26.9518 100.778C27.0446 100.148 27.5089 100.148 28.066 100.238C28.066 100.418 28.066 100.778 28.2517 100.868ZM27.6557 98.9377C27.7018 98.8345 27.7502 98.7263 27.7875 98.6181C27.8259 98.6926 27.8484 98.8135 27.8748 98.9551C27.9122 99.1554 27.9572 99.3971 28.066 99.608C27.3236 99.6799 27.4716 99.3492 27.6557 98.9377Z" fill="#01517C"/>
<path d="M31.1302 98.6181C30.2945 98.5281 30.1088 99.608 30.4802 100.058C30.8516 100.688 31.873 99.788 31.873 100.598C31.6873 101.318 30.2945 101.048 29.8302 100.598C28.9017 99.698 29.5517 97.8081 31.0373 97.8981C32.1515 97.8981 32.2444 99.248 31.1302 98.6181Z" fill="#01517C"/>
<path d="M33.9158 98.798C33.0801 98.708 32.8944 99.7879 33.2658 100.238C33.6372 100.868 34.6586 99.9679 34.6586 100.778C34.4729 101.498 33.0801 101.228 32.6159 100.778C31.6874 99.8779 32.3373 97.9881 33.8229 98.0781C34.9372 97.9881 35.03 99.338 33.9158 98.798Z" fill="#01517C"/>
<path d="M35.9584 101.138C34.4728 101.678 35.4013 98.7981 35.2156 98.1682C35.4013 98.1682 35.6798 98.0782 35.7727 98.1682C36.3298 98.2582 35.8655 100.868 35.9584 101.138Z" fill="#01517C"/>
<path d="M39.3011 101.228C38.0941 101.858 37.9084 100.058 37.4441 99.4282C37.3513 100.058 37.8155 101.498 36.7942 101.228C36.2371 101.228 36.7942 98.7082 36.7013 98.4382C37.537 97.7183 38.0941 98.9782 38.2798 99.6081C38.744 100.958 38.4655 98.8882 38.5583 98.3482C40.044 97.8083 39.1154 100.688 39.3011 101.228Z" fill="#01517C"/>
<path d="M40.0439 98.8881C40.0439 98.0782 41.7152 98.6181 42.1795 98.5281C42.6437 99.4281 41.3438 99.1581 40.8796 99.1581C40.601 99.8781 41.6224 99.5181 41.9938 99.6981C42.458 100.508 41.3438 100.328 40.8796 100.328C40.5081 101.318 41.9938 100.508 42.1795 101.048C42.458 101.948 40.7867 101.408 40.4153 101.498C39.5796 101.498 40.2296 99.3381 40.0439 98.8881Z" fill="#01517C"/>
</g>
<defs>
<radialGradient id="paint0_radial" cx="0" cy="0" r="1" gradientUnits="userSpaceOnUse" gradientTransform="translate(125.677 28.3058) rotate(-28.7771) scale(7.55901 7.64949)">
<stop offset="0.1486" stop-color="#E33A26"/>
<stop offset="0.2986" stop-color="#DC2E27"/>
<stop offset="0.4117" stop-color="#D42027"/>
<stop offset="0.8601" stop-color="#B11F24"/>
</radialGradient>
<radialGradient id="paint1_radial" cx="0" cy="0" r="1" gradientUnits="userSpaceOnUse" gradientTransform="translate(153.504 27.8135) rotate(-29.4536) scale(8.42578 8.57534)">
<stop offset="0.1486" stop-color="#E33A26"/>
<stop offset="0.2986" stop-color="#DC2E27"/>
<stop offset="0.4117" stop-color="#D42027"/>
<stop offset="0.8601" stop-color="#B11F24"/>
</radialGradient>
<radialGradient id="paint2_radial" cx="0" cy="0" r="1" gradientUnits="userSpaceOnUse" gradientTransform="translate(150.281 52.4859) rotate(-28.5857) scale(9.42342 9.47068)">
<stop offset="0.1486" stop-color="#E33A26"/>
<stop offset="0.2986" stop-color="#DC2E27"/>
<stop offset="0.4117" stop-color="#D42027"/>
<stop offset="0.8601" stop-color="#B11F24"/>
</radialGradient>
<radialGradient id="paint3_radial" cx="0" cy="0" r="1" gradientUnits="userSpaceOnUse" gradientTransform="translate(126.609 67.1462) rotate(-29.0641) scale(7.63826 7.76134)">
<stop offset="0.1486" stop-color="#E33A26"/>
<stop offset="0.2986" stop-color="#DC2E27"/>
<stop offset="0.4117" stop-color="#D42027"/>
<stop offset="0.8601" stop-color="#B11F24"/>
</radialGradient>
<radialGradient id="paint4_radial" cx="0" cy="0" r="1" gradientUnits="userSpaceOnUse" gradientTransform="translate(109.271 63.8645) scale(3.32692 2.93674)">
<stop offset="0.1486" stop-color="#E33A26"/>
<stop offset="0.2986" stop-color="#DC2E27"/>
<stop offset="0.4117" stop-color="#D42027"/>
<stop offset="0.8601" stop-color="#B11F24"/>
</radialGradient>
</defs>
</svg>
