<svg width="194" height="156" viewBox="0 0 194 156" fill="none" xmlns="http://www.w3.org/2000/svg">
<path opacity="0.65" d="M118.328 27.0878L131.816 125.791C132.327 129.532 129.708 132.992 125.955 133.504L82.3604 139.462C78.6198 139.973 75.1596 137.354 74.6478 133.601L61.16 34.9099C60.6483 31.1694 63.2679 27.7092 67.0206 27.1974L110.627 21.2394C114.368 20.7277 117.816 23.3472 118.328 27.0878Z" fill="#4E4E4E"/>
<path d="M107.301 18.2057L63.6942 24.1637C59.9537 24.6755 57.3219 28.1235 57.8336 31.8762L71.3336 130.58C71.8453 134.32 75.2934 136.952 79.0461 136.44L122.653 130.482C126.394 129.97 129.025 126.522 128.514 122.77L115.014 24.0662C114.502 20.3135 111.054 17.694 107.301 18.2057ZM79.3873 28.2941C79.3386 27.9164 79.5944 27.5753 79.9721 27.5143L92.5096 25.7964C92.8873 25.7477 93.2284 26.0035 93.2893 26.3812L93.4477 27.5509C93.4965 27.9286 93.2406 28.2698 92.8629 28.3307L80.3255 30.0486C79.9478 30.0974 79.6066 29.8415 79.5457 29.4638L79.3873 28.2941ZM100.527 131.152C98.0046 131.493 95.6774 129.727 95.3241 127.205C94.9829 124.682 96.7496 122.355 99.2717 122.002C101.794 121.649 104.121 123.427 104.474 125.95C104.828 128.472 103.061 130.799 100.527 131.152ZM124.517 114.679C124.554 114.911 124.383 115.118 124.152 115.154L73.4658 122.087C73.2343 122.124 73.0272 121.953 72.9906 121.722L61.367 36.7133C61.3305 36.4818 61.5011 36.2747 61.7325 36.2381L112.418 29.3054C112.65 29.2689 112.857 29.4394 112.894 29.6709L124.517 114.679Z" fill="#D9E5EC"/>
<path d="M112.906 29.6586L124.53 114.667C124.566 114.898 124.396 115.106 124.164 115.142L73.4783 122.075C73.2468 122.111 73.0396 121.941 73.0031 121.709L61.3795 36.701C61.3429 36.4695 61.5135 36.2624 61.745 36.2258L112.431 29.2931C112.662 29.2687 112.869 29.4393 112.906 29.6586Z" fill="#676767"/>
<path d="M104.475 125.95C104.816 128.472 103.049 130.799 100.527 131.152C98.0049 131.506 95.6777 129.727 95.3244 127.205C94.9832 124.683 96.7499 122.355 99.272 122.002C101.794 121.649 104.133 123.428 104.475 125.95Z" fill="#BAC6CC"/>
<path d="M93.2893 26.3933L93.4477 27.5629C93.4965 27.9406 93.2406 28.2818 92.8629 28.3427L80.3255 30.0485C79.9478 30.0972 79.6066 29.8414 79.5457 29.4637L79.3873 28.294C79.3386 27.9163 79.5944 27.5751 79.9721 27.5142L92.5096 25.7962C92.8994 25.7475 93.2406 26.0156 93.2893 26.3933Z" fill="#BAC6CC"/>
<path d="M132.23 69.5007C132.742 68.8306 133.692 68.6966 134.362 69.2083L143.5 76.1532C144.17 76.665 144.304 77.6153 143.792 78.2855C143.281 78.9556 142.33 79.0896 141.66 78.5779L132.522 71.6329C131.852 71.1212 131.718 70.1708 132.23 69.5007Z" fill="#F7C63C"/>
<path d="M130.561 57.2434C129.891 56.7317 129.757 55.7813 130.268 55.1112L137.213 45.9731C137.725 45.303 138.675 45.169 139.346 45.6807C140.016 46.1924 140.15 47.1428 139.638 47.8129L132.693 56.951C132.181 57.6211 131.231 57.7551 130.561 57.2434Z" fill="#F7C63C"/>
<path d="M133.923 62.9823C133.814 62.1538 134.399 61.3862 135.227 61.2643L147.094 59.6438C147.923 59.5342 148.69 60.119 148.812 60.9475C148.934 61.776 148.337 62.5436 147.509 62.6655L135.641 64.286C134.813 64.3956 134.045 63.8108 133.923 62.9823Z" fill="#F7C63C"/>
<path opacity="0.65" d="M125.163 46.8017L129.963 81.9528C130.231 83.951 128.94 85.7786 127.076 86.0345L98.4797 89.9456C97.9192 90.0187 97.4075 90.3355 97.0663 90.8106L87.4653 104.396C87.3313 104.579 87.0632 104.506 87.0266 104.274L85.6011 93.8567C85.4427 92.687 84.4314 91.8707 83.3471 92.0169L75.3421 93.1134C73.4779 93.3693 71.7478 91.9559 71.4676 89.9578L66.667 54.8067C66.399 52.8085 67.6905 50.9809 69.5547 50.725L121.276 43.6582C123.165 43.378 124.895 44.8035 125.163 46.8017Z" fill="#4E4E4E"/>
<path d="M123.615 45.7538L128.416 80.9049C128.684 82.903 127.393 84.7307 125.528 84.9865L96.9445 88.8976C96.3841 88.9707 95.8723 89.2875 95.5312 89.7627L85.9301 103.348C85.7961 103.531 85.528 103.458 85.4915 103.226L84.066 92.8087C83.9076 91.639 82.8963 90.8227 81.8119 90.9689L73.807 92.0655C71.9428 92.3213 70.2126 90.908 69.9324 88.9098L65.1319 53.7587C64.8638 51.7605 66.1553 49.9329 68.0195 49.677L119.741 42.6103C121.605 42.3422 123.347 43.7556 123.615 45.7538Z" fill="white"/>
<path d="M108.546 58.9981L76.7124 63.3484L79.6984 85.1987L111.532 80.8484L108.546 58.9981Z" fill="#FED376"/>
<path d="M93.4112 66.9543L102.476 73.8993L111.529 80.8442L95.6165 83.013L79.6919 85.1939L86.5515 76.068L93.4112 66.9543Z" fill="#F2BA58"/>
<path d="M93.5208 67.6731L102.525 74.2647L111.529 80.8441L95.6165 83.0129L79.6919 85.1938L86.6003 76.4335L93.5208 67.6731Z" fill="#F3BD5D"/>
<path d="M94.7029 76.3726L85.7111 69.8662L76.707 63.3478L92.6316 61.1668L108.544 58.998L101.623 67.6853L94.7029 76.3726Z" fill="#EDB450"/>
<path d="M94.5689 75.3491L85.638 69.3423L76.707 63.3478L92.6316 61.1668L108.544 58.998L101.55 67.1736L94.5689 75.3491Z" fill="#FFDC90"/>
<path d="M117.718 56.3419C118.254 60.2896 115.489 63.9326 111.541 64.4687C107.593 65.0048 103.95 62.239 103.414 58.2914C102.878 54.3437 105.644 50.7007 109.591 50.1646C113.539 49.6285 117.182 52.3943 117.718 56.3419Z" fill="#EC2027"/>
<path d="M111.517 60.4844L110.457 60.6306L109.738 55.3671L108.946 55.9153L108.788 54.7944L109.665 54.1365L110.64 54.0024L111.517 60.4844Z" fill="white"/>
<path d="M118.888 54.3925C118.693 53.8442 118.449 53.3203 118.157 52.8207C117.864 52.3334 117.523 51.8704 117.146 51.4439C116.768 51.0297 116.354 50.6398 115.903 50.2986C115.452 49.9575 114.965 49.6529 114.465 49.4092C113.953 49.1533 113.417 48.9584 112.869 48.8122C112.309 48.666 111.736 48.5685 111.163 48.5319C110.566 48.4954 109.969 48.5197 109.384 48.5929C108.787 48.6781 108.215 48.8122 107.654 49.0071C107.106 49.2021 106.582 49.4457 106.082 49.7382C105.595 50.0306 105.132 50.3717 104.706 50.7494C104.291 51.1271 103.901 51.5414 103.56 51.9922C103.219 52.443 102.915 52.9304 102.671 53.4299C102.415 53.9417 102.22 54.4778 102.074 55.026C101.928 55.5865 101.83 56.1592 101.794 56.7318C101.757 57.3288 101.781 57.9259 101.855 58.5107C101.94 59.1077 102.074 59.6804 102.269 60.2408C102.464 60.7891 102.707 61.313 103 61.8126C103.292 62.2999 103.633 62.7629 104.011 63.1894C104.389 63.6036 104.803 63.9935 105.254 64.3347C105.705 64.6758 106.192 64.9804 106.692 65.2241C107.203 65.48 107.739 65.6749 108.288 65.8211C108.848 65.9674 109.421 66.0648 109.994 66.1014C110.591 66.1379 111.188 66.1136 111.772 66.0405C112.369 65.9552 112.942 65.8211 113.503 65.6262C114.051 65.4313 114.575 65.1876 115.074 64.8952C115.562 64.6027 116.025 64.2616 116.451 63.8839C116.865 63.5062 117.255 63.0919 117.596 62.6411C117.938 62.1903 118.242 61.7029 118.486 61.2034C118.742 60.6916 118.937 60.1555 119.083 59.6073C119.229 59.0468 119.327 58.4741 119.363 57.9015C119.4 57.3045 119.375 56.7074 119.302 56.1226C119.229 55.5378 119.083 54.9529 118.888 54.3925ZM111.553 64.4687C107.605 65.0048 103.962 62.239 103.426 58.2914C102.89 54.3437 105.656 50.7007 109.604 50.1646C113.551 49.6285 117.194 52.3943 117.73 56.3419C118.267 60.2896 115.501 63.9326 111.553 64.4687Z" fill="white"/>
<path opacity="0.8" d="M51.4251 31.0233C51.1205 30.2922 50.9134 29.5246 50.8037 28.7448C50.1336 23.8347 53.6183 19.2413 58.5285 18.5711C59.3082 18.4615 60.1002 18.4615 60.8922 18.559" stroke="#F7C63C" stroke-width="3.55136" stroke-miterlimit="10" stroke-linecap="round"/>
<path opacity="0.8" d="M44.9427 31.6569C44.4676 30.5238 44.1386 29.3297 43.968 28.1113C42.9202 20.4475 48.3665 13.2833 56.0181 12.2355C57.2365 12.0649 58.4793 12.0649 59.6977 12.2233" stroke="#F7C63C" stroke-width="3.55136" stroke-miterlimit="10" stroke-linecap="round"/>
<path opacity="0.8" d="M136.202 125.023C136.507 125.754 136.714 126.522 136.823 127.302C137.493 132.212 134.009 136.805 129.099 137.476C128.319 137.585 127.527 137.585 126.735 137.488" stroke="#F7C63C" stroke-width="3.55136" stroke-miterlimit="10" stroke-linecap="round"/>
<path opacity="0.8" d="M142.684 124.39C143.159 125.523 143.488 126.717 143.659 127.935C144.707 135.599 139.26 142.763 131.609 143.811C130.39 143.982 129.148 143.982 127.929 143.824" stroke="#F7C63C" stroke-width="3.55136" stroke-miterlimit="10" stroke-linecap="round"/>
</svg>
