<svg width="251" height="294" viewBox="0 0 251 294" fill="none" xmlns="http://www.w3.org/2000/svg">
<path d="M121.826 210C63.9186 210 17 162.907 17 105C17 47.093 64.093 0 121.826 0C179.733 0.174419 226.826 47.2674 226.826 105.174C226.826 162.907 179.733 210 121.826 210Z" fill="#00D7A2"/>
<path d="M65.6631 103.256L107 144.593L191.07 60.5234" stroke="white" stroke-width="16"/>
<path d="M17.7389 280.672C14.6403 280.672 11.6349 280.261 8.72294 279.44C5.84827 278.581 3.5336 277.48 1.77894 276.136L4.85894 269.304C6.53894 270.536 8.53627 271.525 10.8509 272.272C13.1656 273.019 15.4803 273.392 17.7949 273.392C20.3709 273.392 22.2749 273.019 23.5069 272.272C24.7389 271.488 25.3549 270.461 25.3549 269.192C25.3549 268.259 24.9816 267.493 24.2349 266.896C23.5256 266.261 22.5923 265.757 21.4349 265.384C20.3149 265.011 18.7843 264.6 16.8429 264.152C13.8563 263.443 11.4109 262.733 9.50694 262.024C7.60294 261.315 5.96027 260.176 4.57894 258.608C3.23494 257.04 2.56294 254.949 2.56294 252.336C2.56294 250.059 3.17894 248.005 4.41094 246.176C5.64294 244.309 7.49094 242.835 9.95494 241.752C12.4563 240.669 15.4989 240.128 19.0829 240.128C21.5843 240.128 24.0296 240.427 26.4189 241.024C28.8083 241.621 30.8989 242.48 32.6909 243.6L29.8909 250.488C26.2696 248.435 22.6483 247.408 19.0269 247.408C16.4883 247.408 14.6029 247.819 13.3709 248.64C12.1763 249.461 11.5789 250.544 11.5789 251.888C11.5789 253.232 12.2696 254.24 13.6509 254.912C15.0696 255.547 17.2163 256.181 20.0909 256.816C23.0776 257.525 25.5229 258.235 27.4269 258.944C29.3309 259.653 30.9549 260.773 32.2989 262.304C33.6803 263.835 34.3709 265.907 34.3709 268.52C34.3709 270.76 33.7363 272.813 32.4669 274.68C31.2349 276.509 29.3683 277.965 26.8669 279.048C24.3656 280.131 21.3229 280.672 17.7389 280.672ZM70.3059 249.872V280H62.0179V276.416C60.8605 277.723 59.4792 278.731 57.8739 279.44C56.2685 280.112 54.5325 280.448 52.6659 280.448C48.7085 280.448 45.5725 279.309 43.2579 277.032C40.9432 274.755 39.7859 271.376 39.7859 266.896V249.872H48.5219V265.608C48.5219 270.461 50.5565 272.888 54.6259 272.888C56.7165 272.888 58.3965 272.216 59.6659 270.872C60.9352 269.491 61.5699 267.456 61.5699 264.768V249.872H70.3059ZM92.9592 280.448C89.7485 280.448 86.8552 279.795 84.2792 278.488C81.7405 277.144 79.7432 275.296 78.2872 272.944C76.8685 270.592 76.1592 267.923 76.1592 264.936C76.1592 261.949 76.8685 259.28 78.2872 256.928C79.7432 254.576 81.7405 252.747 84.2792 251.44C86.8552 250.096 89.7485 249.424 92.9592 249.424C96.1325 249.424 98.8952 250.096 101.247 251.44C103.637 252.747 105.373 254.632 106.455 257.096L99.6792 260.736C98.1112 257.973 95.8525 256.592 92.9032 256.592C90.6259 256.592 88.7405 257.339 87.2472 258.832C85.7539 260.325 85.0072 262.36 85.0072 264.936C85.0072 267.512 85.7539 269.547 87.2472 271.04C88.7405 272.533 90.6259 273.28 92.9032 273.28C95.8899 273.28 98.1485 271.899 99.6792 269.136L106.455 272.832C105.373 275.221 103.637 277.088 101.247 278.432C98.8952 279.776 96.1325 280.448 92.9592 280.448ZM125.662 280.448C122.452 280.448 119.558 279.795 116.982 278.488C114.444 277.144 112.446 275.296 110.99 272.944C109.572 270.592 108.862 267.923 108.862 264.936C108.862 261.949 109.572 259.28 110.99 256.928C112.446 254.576 114.444 252.747 116.982 251.44C119.558 250.096 122.452 249.424 125.662 249.424C128.836 249.424 131.598 250.096 133.95 251.44C136.34 252.747 138.076 254.632 139.158 257.096L132.382 260.736C130.814 257.973 128.556 256.592 125.606 256.592C123.329 256.592 121.444 257.339 119.95 258.832C118.457 260.325 117.71 262.36 117.71 264.936C117.71 267.512 118.457 269.547 119.95 271.04C121.444 272.533 123.329 273.28 125.606 273.28C128.593 273.28 130.852 271.899 132.382 269.136L139.158 272.832C138.076 275.221 136.34 277.088 133.95 278.432C131.598 279.776 128.836 280.448 125.662 280.448ZM173.317 265.048C173.317 265.16 173.261 265.944 173.149 267.4H150.357C150.768 269.267 151.739 270.741 153.269 271.824C154.8 272.907 156.704 273.448 158.981 273.448C160.549 273.448 161.931 273.224 163.125 272.776C164.357 272.291 165.496 271.544 166.541 270.536L171.189 275.576C168.352 278.824 164.208 280.448 158.757 280.448C155.36 280.448 152.355 279.795 149.741 278.488C147.128 277.144 145.112 275.296 143.693 272.944C142.275 270.592 141.565 267.923 141.565 264.936C141.565 261.987 142.256 259.336 143.637 256.984C145.056 254.595 146.979 252.747 149.405 251.44C151.869 250.096 154.613 249.424 157.637 249.424C160.587 249.424 163.256 250.059 165.645 251.328C168.035 252.597 169.901 254.427 171.245 256.816C172.627 259.168 173.317 261.912 173.317 265.048ZM157.693 256.032C155.715 256.032 154.053 256.592 152.709 257.712C151.365 258.832 150.544 260.363 150.245 262.304H165.085C164.787 260.4 163.965 258.888 162.621 257.768C161.277 256.611 159.635 256.032 157.693 256.032ZM189.27 280.448C186.768 280.448 184.323 280.149 181.934 279.552C179.544 278.917 177.64 278.133 176.222 277.2L179.134 270.928C180.478 271.787 182.102 272.496 184.006 273.056C185.91 273.579 187.776 273.84 189.606 273.84C193.302 273.84 195.15 272.925 195.15 271.096C195.15 270.237 194.646 269.621 193.638 269.248C192.63 268.875 191.08 268.557 188.99 268.296C186.526 267.923 184.491 267.493 182.886 267.008C181.28 266.523 179.88 265.664 178.686 264.432C177.528 263.2 176.95 261.445 176.95 259.168C176.95 257.264 177.491 255.584 178.574 254.128C179.694 252.635 181.299 251.477 183.39 250.656C185.518 249.835 188.019 249.424 190.894 249.424C193.022 249.424 195.131 249.667 197.222 250.152C199.35 250.6 201.104 251.235 202.486 252.056L199.574 258.272C196.923 256.779 194.03 256.032 190.894 256.032C189.027 256.032 187.627 256.293 186.694 256.816C185.76 257.339 185.294 258.011 185.294 258.832C185.294 259.765 185.798 260.419 186.806 260.792C187.814 261.165 189.419 261.52 191.622 261.856C194.086 262.267 196.102 262.715 197.67 263.2C199.238 263.648 200.6 264.488 201.758 265.72C202.915 266.952 203.494 268.669 203.494 270.872C203.494 272.739 202.934 274.4 201.814 275.856C200.694 277.312 199.051 278.451 196.886 279.272C194.758 280.056 192.219 280.448 189.27 280.448ZM219.02 280.448C216.518 280.448 214.073 280.149 211.684 279.552C209.294 278.917 207.39 278.133 205.972 277.2L208.884 270.928C210.228 271.787 211.852 272.496 213.756 273.056C215.66 273.579 217.526 273.84 219.356 273.84C223.052 273.84 224.9 272.925 224.9 271.096C224.9 270.237 224.396 269.621 223.388 269.248C222.38 268.875 220.83 268.557 218.74 268.296C216.276 267.923 214.241 267.493 212.636 267.008C211.03 266.523 209.63 265.664 208.436 264.432C207.278 263.2 206.7 261.445 206.7 259.168C206.7 257.264 207.241 255.584 208.324 254.128C209.444 252.635 211.049 251.477 213.14 250.656C215.268 249.835 217.769 249.424 220.644 249.424C222.772 249.424 224.881 249.667 226.972 250.152C229.1 250.6 230.854 251.235 232.236 252.056L229.324 258.272C226.673 256.779 223.78 256.032 220.644 256.032C218.777 256.032 217.377 256.293 216.444 256.816C215.51 257.339 215.044 258.011 215.044 258.832C215.044 259.765 215.548 260.419 216.556 260.792C217.564 261.165 219.169 261.52 221.372 261.856C223.836 262.267 225.852 262.715 227.42 263.2C228.988 263.648 230.35 264.488 231.508 265.72C232.665 266.952 233.244 268.669 233.244 270.872C233.244 272.739 232.684 274.4 231.564 275.856C230.444 277.312 228.801 278.451 226.636 279.272C224.508 280.056 221.969 280.448 219.02 280.448ZM237.514 240.8H247.93L246.194 266.392H239.25L237.514 240.8ZM242.722 280.448C241.191 280.448 239.903 279.963 238.858 278.992C237.85 277.984 237.346 276.771 237.346 275.352C237.346 273.933 237.85 272.757 238.858 271.824C239.866 270.853 241.154 270.368 242.722 270.368C244.29 270.368 245.578 270.853 246.586 271.824C247.594 272.757 248.098 273.933 248.098 275.352C248.098 276.771 247.575 277.984 246.53 278.992C245.522 279.963 244.252 280.448 242.722 280.448Z" fill="#00D7A2"/>
</svg>
