<svg width="194" height="156" viewBox="0 0 194 156" fill="none" xmlns="http://www.w3.org/2000/svg">
<path d="M92.6719 37.7422C74.3125 37.7422 59.2734 52.7812 59.2734 71.1406V143.914H74.9375C73.4141 141.18 72.5156 138.016 72.5156 134.656V72.1562C72.5156 61.6484 81.1094 53.0156 91.6563 53.0156C96.9297 53.0156 101.695 55.1641 105.172 58.6406C108.648 62.1172 110.797 66.8828 110.797 72.1562V134.656C110.797 138.016 109.938 141.18 108.375 143.914H126.031V71.1406C126.07 52.7812 111.031 37.7422 92.6719 37.7422Z" fill="#8D6D59"/>
<path d="M136.422 93.7969V134.148C136.422 139.539 132.008 143.914 126.656 143.914H55.7578C50.3672 143.914 45.9922 139.5 45.9922 134.148V93.7969C45.9922 88.4063 50.4062 84.0313 55.7578 84.0313H126.656C132.008 83.9922 136.422 88.4063 136.422 93.7969Z" fill="#F59651"/>
<path d="M99.3906 106.57C99.3906 102.039 95.7188 98.3672 91.1875 98.3672C86.6562 98.3672 82.9844 102.039 82.9844 106.57C82.9844 109.539 84.5469 112.117 86.8906 113.563L85.7969 129.539H96.5781L95.4844 113.563C97.8281 112.117 99.3906 109.539 99.3906 106.57Z" fill="white"/>
<path d="M85.4844 64.6562L79.625 59.5391C79.4688 59.4219 79.3125 59.3047 79.1172 59.2266C78.8828 59.1484 78.6484 59.1094 78.4141 59.1484C78.1016 59.1094 77.7891 59.1094 77.4766 59.1094H47.5156C45.0156 54.1875 39.9375 50.8281 34.0781 50.8281C25.7578 50.8281 19 57.5859 19 65.9062C19 74.2266 25.7578 80.9844 34.0781 80.9844C39.9766 80.9844 45.0547 77.625 47.5156 72.7031H56.1875C56.1875 72.7422 56.2266 72.7812 56.2266 72.8203L59.0391 77.7031C59.7031 78.875 61.3828 78.875 62.0859 77.7031L64.8984 72.8203C64.9375 72.7812 64.9375 72.7422 64.9375 72.7031H65.0938L67.8281 77.4297C68.4922 78.6016 70.1719 78.6016 70.875 77.4297L73.6094 72.7031H77.4375C77.75 72.7031 78.1016 72.7031 78.4141 72.6641C78.6875 72.7031 78.9609 72.6641 79.1953 72.5469C79.3516 72.4687 79.5078 72.3906 79.625 72.2734L85.4453 67.1562C86.2266 66.4531 86.2266 65.3203 85.4844 64.6562ZM34.0781 68.9922C32.3594 68.9922 30.9922 67.625 30.9922 65.9062C30.9922 64.1875 32.3594 62.8203 34.0781 62.8203C35.7969 62.8203 37.1641 64.1875 37.1641 65.9062C37.1641 67.625 35.7969 68.9922 34.0781 68.9922Z" fill="#EF6F64"/>
<path d="M37.1641 65.9062C37.1641 67.625 35.7969 68.9922 34.0781 68.9922C32.3594 68.9922 30.9922 67.625 30.9922 65.9062H19C19 74.2266 25.7578 80.9844 34.0781 80.9844C39.9766 80.9844 45.0547 77.625 47.5156 72.7031H56.1875C56.1875 72.7422 56.2266 72.7812 56.2266 72.8203L59.0391 77.7031C59.7031 78.875 61.3828 78.875 62.0859 77.7031L64.8984 72.8203C64.9375 72.7812 64.9375 72.7422 64.9375 72.7031H65.0937L67.8281 77.4297C68.4922 78.6016 70.1719 78.6016 70.875 77.4297L73.6094 72.7031H77.4375C77.75 72.7031 78.1016 72.7031 78.4141 72.6641C78.6875 72.7031 78.9609 72.6641 79.1953 72.5469C79.3516 72.4687 79.5078 72.3906 79.625 72.2734L85.4453 67.1562C85.7969 66.8437 85.9922 66.375 85.9922 65.9453H37.1641V65.9062Z" fill="#CC5751"/>
<path d="M125.328 31.9609H122.711V28.9922C122.711 28.4844 122.398 28.0938 122.008 28.0938C121.617 28.0938 121.305 28.4844 121.305 28.9922V31.9609H118.687C118.297 31.9609 117.984 32.3516 117.984 32.8594C117.984 33.3672 118.297 33.7578 118.687 33.7578H121.305V37.4297C121.305 37.9375 121.617 38.3281 122.008 38.3281C122.398 38.3281 122.711 37.9375 122.711 37.4297V33.7578H125.328C125.719 33.7578 126.031 33.3672 126.031 32.8594C126.031 32.3516 125.719 31.9609 125.328 31.9609Z" fill="#FCDE94"/>
<path d="M139.469 55.0078C139.469 55.9453 138.687 56.7266 137.75 56.7266C136.812 56.7266 136.031 55.9453 136.031 55.0078C136.031 54.0703 136.812 53.2891 137.75 53.2891C138.687 53.2891 139.469 54.0703 139.469 55.0078Z" fill="#51B1D5"/>
<path d="M50.875 25.6719H47.7891V22.8984C47.7891 22.4297 47.3984 22.0391 46.9297 22.0391C46.4609 22.0391 46.0703 22.4297 46.0703 22.8984V25.6719H42.9844C42.5156 25.6719 42.125 26.0625 42.125 26.5313C42.125 27 42.5156 27.3906 42.9844 27.3906H46.0703V30.7891C46.0703 31.2578 46.4609 31.6484 46.9297 31.6484C47.3984 31.6484 47.7891 31.2578 47.7891 30.7891V27.3906H50.875C51.3437 27.3906 51.7344 27 51.7344 26.5313C51.7344 26.0234 51.3437 25.6719 50.875 25.6719Z" fill="#F59651"/>
<path d="M43.4141 41.375C43.4141 42.0781 42.8281 42.6641 42.125 42.6641C41.4219 42.6641 40.8359 42.0781 40.8359 41.375C40.8359 40.6719 41.4219 40.0859 42.125 40.0859C42.8672 40.0859 43.4141 40.6719 43.4141 41.375Z" fill="#51B1D5"/>
<path d="M105.094 16.8047C103.648 16.8047 102.477 17.9766 102.477 19.4219C102.477 20.8672 103.648 22.0391 105.094 22.0391C106.539 22.0391 107.711 20.8672 107.711 19.4219C107.711 17.9766 106.539 16.8047 105.094 16.8047ZM105.094 21.1406C104.156 21.1406 103.414 20.3984 103.414 19.4609C103.414 18.5234 104.156 17.7812 105.094 17.7812C106.031 17.7812 106.773 18.5234 106.773 19.4609C106.773 20.3594 106.031 21.1406 105.094 21.1406Z" fill="#EF6F64"/>
<path d="M67.0859 26.8438C67.9057 26.8438 68.5703 26.1792 68.5703 25.3594C68.5703 24.5396 67.9057 23.875 67.0859 23.875C66.2661 23.875 65.6016 24.5396 65.6016 25.3594C65.6016 26.1792 66.2661 26.8438 67.0859 26.8438Z" fill="#51B1D5"/>
<path d="M149 39.6172H147.203V37.9766C147.203 37.7031 146.969 37.4688 146.695 37.4688C146.422 37.4688 146.187 37.7031 146.187 37.9766V39.6172H144.391C144.117 39.6172 143.883 39.8516 143.883 40.125C143.883 40.3984 144.117 40.6328 144.391 40.6328H146.187V42.625C146.187 42.8984 146.422 43.1328 146.695 43.1328C146.969 43.1328 147.203 42.8984 147.203 42.625V40.6328H149C149.273 40.6328 149.508 40.3984 149.508 40.125C149.508 39.8516 149.273 39.6172 149 39.6172Z" fill="#F59651"/>
<path d="M60.875 14.3047H59.3125V12.5469C59.3125 12.2344 59.1172 12 58.8828 12C58.6484 12 58.4531 12.2344 58.4531 12.5469V14.3047H56.9297C56.6953 14.3047 56.5 14.5391 56.5 14.8516C56.5 15.1641 56.6953 15.3984 56.9297 15.3984H58.4531V17.5469C58.4531 17.8594 58.6484 18.0938 58.8828 18.0938C59.1172 18.0938 59.3125 17.8594 59.3125 17.5469V15.3984H60.8359C61.0703 15.3984 61.2656 15.1641 61.2656 14.8516C61.2656 14.5391 61.1094 14.3047 60.875 14.3047Z" fill="#FCDE94"/>
<path d="M92.71 37.7422C92.2021 37.7422 91.6943 37.7422 91.2256 37.7813V53.0547C91.3818 53.0547 91.5771 53.0547 91.7334 53.0547C96.9678 53.0547 101.772 55.2031 105.249 58.6797C108.726 62.1562 110.874 66.9219 110.874 72.1953V134.695C110.874 138.055 110.015 141.219 108.452 143.953H126.108V71.1406C126.069 52.7812 111.069 37.7422 92.71 37.7422Z" fill="#503B2D"/>
<path d="M136.422 93.7969V134.148C136.422 139.539 132.008 143.914 126.656 143.914H91.1875V83.9922H126.656C132.047 83.9922 136.422 88.4063 136.422 93.7969Z" fill="#D47E42"/>
<path d="M95.4844 113.563L96.5781 129.539H91.1875V98.3672C95.7187 98.3672 99.4297 102.039 99.4297 106.57C99.3906 109.539 97.8281 112.117 95.4844 113.563Z" fill="white"/>
<path d="M91.2266 129.539C93.4702 129.539 95.2891 122.561 95.2891 113.953C95.2891 105.345 93.4702 98.3672 91.2266 98.3672C88.9829 98.3672 87.1641 105.345 87.1641 113.953C87.1641 122.561 88.9829 129.539 91.2266 129.539Z" fill="white"/>
</svg>
