<svg width="194" height="156" viewBox="0 0 194 156" fill="none" xmlns="http://www.w3.org/2000/svg">
<circle cx="96.2208" cy="86.6884" r="50.6622" stroke="#37CED1" stroke-width="7.36308"/>
<ellipse cx="47.4781" cy="70.7361" rx="13.5171" ry="14.2285" fill="#04E080"/>
<path d="M57.8098 83.5413C55.0209 85.9359 51.409 87.3774 47.4771 87.3774C43.5452 87.3774 39.9333 85.9359 37.1444 83.5413C29.6464 87.4704 24.3658 95.4914 24 104.884H70.9542C70.5884 95.4914 65.3078 87.4704 57.8098 83.5413Z" fill="#04E080"/>
<ellipse cx="95.9849" cy="22.2285" rx="13.5171" ry="14.2285" fill="#04E080"/>
<path d="M106.317 35.0337C103.528 37.4284 99.9158 38.8698 95.9839 38.8698C92.052 38.8698 88.4402 37.4284 85.6513 35.0337C78.1532 38.9628 72.8726 46.9838 72.5068 56.3765H119.461C119.095 46.9838 113.815 38.9628 106.317 35.0337Z" fill="#04E080"/>
<ellipse cx="146.645" cy="70.7361" rx="13.5171" ry="14.2285" fill="#04E080"/>
<path d="M156.976 83.5413C154.187 85.9359 150.576 87.3774 146.644 87.3774C142.712 87.3774 139.1 85.9359 136.311 83.5413C128.813 87.4704 123.532 95.4914 123.167 104.884H170.121C169.755 95.4914 164.474 87.4704 156.976 83.5413Z" fill="#04E080"/>
<ellipse cx="94.9019" cy="113.852" rx="13.5171" ry="14.2285" fill="#04E080"/>
<path d="M105.234 126.657C102.445 129.052 98.8328 130.493 94.9009 130.493C90.969 130.493 87.3572 129.052 84.5683 126.657C77.0702 130.586 71.7896 138.607 71.4238 148H118.378C118.012 138.607 112.732 130.586 105.234 126.657Z" fill="#04E080"/>
</svg>
