<svg width="194" height="156" viewBox="0 0 194 156" fill="none" xmlns="http://www.w3.org/2000/svg">
<rect x="20" y="138.769" width="153.704" height="9.23068" fill="#F59651"/>
<path fill-rule="evenodd" clip-rule="evenodd" d="M36.415 14.1523V138.767H111.028V14.1523H36.415ZM67.7524 118.768H46.8606V97.2296H67.7524V118.768ZM46.8606 88.0003H67.7524V66.4621H46.8606V88.0003ZM67.7524 55.6921H46.8606V34.1539H67.7524V55.6921ZM79.6895 118.768H100.581V97.2296H79.6895V118.768ZM100.581 88.0003H79.6895V66.4621H100.581V88.0003ZM79.6895 55.6921H100.581V34.1539H79.6895V55.6921Z" fill="#D37537"/>
<path fill-rule="evenodd" clip-rule="evenodd" d="M111.163 65.8982V48.6978H157.423V139.466H111.163V122.266H120.62V108.174H111.163V101.128H120.62V87.036H111.163V79.9901H120.62V65.8982H111.163ZM129.071 122.544H142.501V108.698H129.071V122.544ZM142.501 101.004H129.071V87.1576H142.501V101.004ZM129.071 79.4635H142.501V65.6175H129.071V79.4635Z" fill="#D37537"/>
<rect x="51.3379" y="8" width="43.2758" height="6.15379" fill="#F59651"/>
<rect x="115.504" y="43.7407" width="29.8454" height="6.15379" fill="#F59651"/>
</svg>
